%TF.GenerationSoftware,KiCad,Pcbnew,8.0.4*%
%TF.CreationDate,2024-10-23T14:51:26+02:00*%
%TF.ProjectId,leds,6c656473-2e6b-4696-9361-645f70636258,rev?*%
%TF.SameCoordinates,Original*%
%TF.FileFunction,Drillmap*%
%TF.FilePolarity,Positive*%
%FSLAX45Y45*%
G04 Gerber Fmt 4.5, Leading zero omitted, Abs format (unit mm)*
G04 Created by KiCad (PCBNEW 8.0.4) date 2024-10-23 14:51:26*
%MOMM*%
%LPD*%
G01*
G04 APERTURE LIST*
%ADD10C,0.050000*%
%ADD11C,0.200000*%
%ADD12C,0.110000*%
G04 APERTURE END LIST*
D10*
X11750000Y-5550000D02*
X18450000Y-5550000D01*
X18450000Y-16150000D01*
X11750000Y-16150000D01*
X11750000Y-5550000D01*
D11*
D12*
X16030000Y-9998330D02*
X16140000Y-10108330D01*
X16140000Y-9998330D02*
X16030000Y-10108330D01*
D11*
X12008277Y-16463984D02*
X12008277Y-16263984D01*
X12008277Y-16263984D02*
X12055896Y-16263984D01*
X12055896Y-16263984D02*
X12084467Y-16273508D01*
X12084467Y-16273508D02*
X12103515Y-16292555D01*
X12103515Y-16292555D02*
X12113039Y-16311603D01*
X12113039Y-16311603D02*
X12122562Y-16349698D01*
X12122562Y-16349698D02*
X12122562Y-16378269D01*
X12122562Y-16378269D02*
X12113039Y-16416365D01*
X12113039Y-16416365D02*
X12103515Y-16435412D01*
X12103515Y-16435412D02*
X12084467Y-16454460D01*
X12084467Y-16454460D02*
X12055896Y-16463984D01*
X12055896Y-16463984D02*
X12008277Y-16463984D01*
X12208277Y-16463984D02*
X12208277Y-16330650D01*
X12208277Y-16368746D02*
X12217801Y-16349698D01*
X12217801Y-16349698D02*
X12227324Y-16340174D01*
X12227324Y-16340174D02*
X12246372Y-16330650D01*
X12246372Y-16330650D02*
X12265420Y-16330650D01*
X12332086Y-16463984D02*
X12332086Y-16330650D01*
X12332086Y-16263984D02*
X12322562Y-16273508D01*
X12322562Y-16273508D02*
X12332086Y-16283031D01*
X12332086Y-16283031D02*
X12341610Y-16273508D01*
X12341610Y-16273508D02*
X12332086Y-16263984D01*
X12332086Y-16263984D02*
X12332086Y-16283031D01*
X12455896Y-16463984D02*
X12436848Y-16454460D01*
X12436848Y-16454460D02*
X12427324Y-16435412D01*
X12427324Y-16435412D02*
X12427324Y-16263984D01*
X12560658Y-16463984D02*
X12541610Y-16454460D01*
X12541610Y-16454460D02*
X12532086Y-16435412D01*
X12532086Y-16435412D02*
X12532086Y-16263984D01*
X12789229Y-16463984D02*
X12789229Y-16263984D01*
X12789229Y-16263984D02*
X12855896Y-16406841D01*
X12855896Y-16406841D02*
X12922562Y-16263984D01*
X12922562Y-16263984D02*
X12922562Y-16463984D01*
X13103515Y-16463984D02*
X13103515Y-16359222D01*
X13103515Y-16359222D02*
X13093991Y-16340174D01*
X13093991Y-16340174D02*
X13074943Y-16330650D01*
X13074943Y-16330650D02*
X13036848Y-16330650D01*
X13036848Y-16330650D02*
X13017801Y-16340174D01*
X13103515Y-16454460D02*
X13084467Y-16463984D01*
X13084467Y-16463984D02*
X13036848Y-16463984D01*
X13036848Y-16463984D02*
X13017801Y-16454460D01*
X13017801Y-16454460D02*
X13008277Y-16435412D01*
X13008277Y-16435412D02*
X13008277Y-16416365D01*
X13008277Y-16416365D02*
X13017801Y-16397317D01*
X13017801Y-16397317D02*
X13036848Y-16387793D01*
X13036848Y-16387793D02*
X13084467Y-16387793D01*
X13084467Y-16387793D02*
X13103515Y-16378269D01*
X13198753Y-16330650D02*
X13198753Y-16530650D01*
X13198753Y-16340174D02*
X13217801Y-16330650D01*
X13217801Y-16330650D02*
X13255896Y-16330650D01*
X13255896Y-16330650D02*
X13274943Y-16340174D01*
X13274943Y-16340174D02*
X13284467Y-16349698D01*
X13284467Y-16349698D02*
X13293991Y-16368746D01*
X13293991Y-16368746D02*
X13293991Y-16425888D01*
X13293991Y-16425888D02*
X13284467Y-16444936D01*
X13284467Y-16444936D02*
X13274943Y-16454460D01*
X13274943Y-16454460D02*
X13255896Y-16463984D01*
X13255896Y-16463984D02*
X13217801Y-16463984D01*
X13217801Y-16463984D02*
X13198753Y-16454460D01*
X13379705Y-16444936D02*
X13389229Y-16454460D01*
X13389229Y-16454460D02*
X13379705Y-16463984D01*
X13379705Y-16463984D02*
X13370182Y-16454460D01*
X13370182Y-16454460D02*
X13379705Y-16444936D01*
X13379705Y-16444936D02*
X13379705Y-16463984D01*
X13379705Y-16340174D02*
X13389229Y-16349698D01*
X13389229Y-16349698D02*
X13379705Y-16359222D01*
X13379705Y-16359222D02*
X13370182Y-16349698D01*
X13370182Y-16349698D02*
X13379705Y-16340174D01*
X13379705Y-16340174D02*
X13379705Y-16359222D01*
D12*
X11637500Y-16737500D02*
X11747500Y-16847500D01*
X11747500Y-16737500D02*
X11637500Y-16847500D01*
D11*
X12113039Y-16883984D02*
X11998753Y-16883984D01*
X12055896Y-16883984D02*
X12055896Y-16683984D01*
X12055896Y-16683984D02*
X12036848Y-16712555D01*
X12036848Y-16712555D02*
X12017801Y-16731603D01*
X12017801Y-16731603D02*
X11998753Y-16741127D01*
X12198753Y-16864936D02*
X12208277Y-16874460D01*
X12208277Y-16874460D02*
X12198753Y-16883984D01*
X12198753Y-16883984D02*
X12189229Y-16874460D01*
X12189229Y-16874460D02*
X12198753Y-16864936D01*
X12198753Y-16864936D02*
X12198753Y-16883984D01*
X12398753Y-16883984D02*
X12284467Y-16883984D01*
X12341610Y-16883984D02*
X12341610Y-16683984D01*
X12341610Y-16683984D02*
X12322562Y-16712555D01*
X12322562Y-16712555D02*
X12303515Y-16731603D01*
X12303515Y-16731603D02*
X12284467Y-16741127D01*
X12522562Y-16683984D02*
X12541610Y-16683984D01*
X12541610Y-16683984D02*
X12560658Y-16693508D01*
X12560658Y-16693508D02*
X12570182Y-16703031D01*
X12570182Y-16703031D02*
X12579705Y-16722079D01*
X12579705Y-16722079D02*
X12589229Y-16760174D01*
X12589229Y-16760174D02*
X12589229Y-16807793D01*
X12589229Y-16807793D02*
X12579705Y-16845889D01*
X12579705Y-16845889D02*
X12570182Y-16864936D01*
X12570182Y-16864936D02*
X12560658Y-16874460D01*
X12560658Y-16874460D02*
X12541610Y-16883984D01*
X12541610Y-16883984D02*
X12522562Y-16883984D01*
X12522562Y-16883984D02*
X12503515Y-16874460D01*
X12503515Y-16874460D02*
X12493991Y-16864936D01*
X12493991Y-16864936D02*
X12484467Y-16845889D01*
X12484467Y-16845889D02*
X12474943Y-16807793D01*
X12474943Y-16807793D02*
X12474943Y-16760174D01*
X12474943Y-16760174D02*
X12484467Y-16722079D01*
X12484467Y-16722079D02*
X12493991Y-16703031D01*
X12493991Y-16703031D02*
X12503515Y-16693508D01*
X12503515Y-16693508D02*
X12522562Y-16683984D01*
X12713039Y-16683984D02*
X12732086Y-16683984D01*
X12732086Y-16683984D02*
X12751134Y-16693508D01*
X12751134Y-16693508D02*
X12760658Y-16703031D01*
X12760658Y-16703031D02*
X12770182Y-16722079D01*
X12770182Y-16722079D02*
X12779705Y-16760174D01*
X12779705Y-16760174D02*
X12779705Y-16807793D01*
X12779705Y-16807793D02*
X12770182Y-16845889D01*
X12770182Y-16845889D02*
X12760658Y-16864936D01*
X12760658Y-16864936D02*
X12751134Y-16874460D01*
X12751134Y-16874460D02*
X12732086Y-16883984D01*
X12732086Y-16883984D02*
X12713039Y-16883984D01*
X12713039Y-16883984D02*
X12693991Y-16874460D01*
X12693991Y-16874460D02*
X12684467Y-16864936D01*
X12684467Y-16864936D02*
X12674943Y-16845889D01*
X12674943Y-16845889D02*
X12665420Y-16807793D01*
X12665420Y-16807793D02*
X12665420Y-16760174D01*
X12665420Y-16760174D02*
X12674943Y-16722079D01*
X12674943Y-16722079D02*
X12684467Y-16703031D01*
X12684467Y-16703031D02*
X12693991Y-16693508D01*
X12693991Y-16693508D02*
X12713039Y-16683984D01*
X12865420Y-16883984D02*
X12865420Y-16750650D01*
X12865420Y-16769698D02*
X12874943Y-16760174D01*
X12874943Y-16760174D02*
X12893991Y-16750650D01*
X12893991Y-16750650D02*
X12922563Y-16750650D01*
X12922563Y-16750650D02*
X12941610Y-16760174D01*
X12941610Y-16760174D02*
X12951134Y-16779222D01*
X12951134Y-16779222D02*
X12951134Y-16883984D01*
X12951134Y-16779222D02*
X12960658Y-16760174D01*
X12960658Y-16760174D02*
X12979705Y-16750650D01*
X12979705Y-16750650D02*
X13008277Y-16750650D01*
X13008277Y-16750650D02*
X13027324Y-16760174D01*
X13027324Y-16760174D02*
X13036848Y-16779222D01*
X13036848Y-16779222D02*
X13036848Y-16883984D01*
X13132086Y-16883984D02*
X13132086Y-16750650D01*
X13132086Y-16769698D02*
X13141610Y-16760174D01*
X13141610Y-16760174D02*
X13160658Y-16750650D01*
X13160658Y-16750650D02*
X13189229Y-16750650D01*
X13189229Y-16750650D02*
X13208277Y-16760174D01*
X13208277Y-16760174D02*
X13217801Y-16779222D01*
X13217801Y-16779222D02*
X13217801Y-16883984D01*
X13217801Y-16779222D02*
X13227324Y-16760174D01*
X13227324Y-16760174D02*
X13246372Y-16750650D01*
X13246372Y-16750650D02*
X13274943Y-16750650D01*
X13274943Y-16750650D02*
X13293991Y-16760174D01*
X13293991Y-16760174D02*
X13303515Y-16779222D01*
X13303515Y-16779222D02*
X13303515Y-16883984D01*
X13693991Y-16674460D02*
X13522563Y-16931603D01*
X13951134Y-16683984D02*
X13970182Y-16683984D01*
X13970182Y-16683984D02*
X13989229Y-16693508D01*
X13989229Y-16693508D02*
X13998753Y-16703031D01*
X13998753Y-16703031D02*
X14008277Y-16722079D01*
X14008277Y-16722079D02*
X14017801Y-16760174D01*
X14017801Y-16760174D02*
X14017801Y-16807793D01*
X14017801Y-16807793D02*
X14008277Y-16845889D01*
X14008277Y-16845889D02*
X13998753Y-16864936D01*
X13998753Y-16864936D02*
X13989229Y-16874460D01*
X13989229Y-16874460D02*
X13970182Y-16883984D01*
X13970182Y-16883984D02*
X13951134Y-16883984D01*
X13951134Y-16883984D02*
X13932086Y-16874460D01*
X13932086Y-16874460D02*
X13922563Y-16864936D01*
X13922563Y-16864936D02*
X13913039Y-16845889D01*
X13913039Y-16845889D02*
X13903515Y-16807793D01*
X13903515Y-16807793D02*
X13903515Y-16760174D01*
X13903515Y-16760174D02*
X13913039Y-16722079D01*
X13913039Y-16722079D02*
X13922563Y-16703031D01*
X13922563Y-16703031D02*
X13932086Y-16693508D01*
X13932086Y-16693508D02*
X13951134Y-16683984D01*
X14103515Y-16864936D02*
X14113039Y-16874460D01*
X14113039Y-16874460D02*
X14103515Y-16883984D01*
X14103515Y-16883984D02*
X14093991Y-16874460D01*
X14093991Y-16874460D02*
X14103515Y-16864936D01*
X14103515Y-16864936D02*
X14103515Y-16883984D01*
X14236848Y-16683984D02*
X14255896Y-16683984D01*
X14255896Y-16683984D02*
X14274944Y-16693508D01*
X14274944Y-16693508D02*
X14284467Y-16703031D01*
X14284467Y-16703031D02*
X14293991Y-16722079D01*
X14293991Y-16722079D02*
X14303515Y-16760174D01*
X14303515Y-16760174D02*
X14303515Y-16807793D01*
X14303515Y-16807793D02*
X14293991Y-16845889D01*
X14293991Y-16845889D02*
X14284467Y-16864936D01*
X14284467Y-16864936D02*
X14274944Y-16874460D01*
X14274944Y-16874460D02*
X14255896Y-16883984D01*
X14255896Y-16883984D02*
X14236848Y-16883984D01*
X14236848Y-16883984D02*
X14217801Y-16874460D01*
X14217801Y-16874460D02*
X14208277Y-16864936D01*
X14208277Y-16864936D02*
X14198753Y-16845889D01*
X14198753Y-16845889D02*
X14189229Y-16807793D01*
X14189229Y-16807793D02*
X14189229Y-16760174D01*
X14189229Y-16760174D02*
X14198753Y-16722079D01*
X14198753Y-16722079D02*
X14208277Y-16703031D01*
X14208277Y-16703031D02*
X14217801Y-16693508D01*
X14217801Y-16693508D02*
X14236848Y-16683984D01*
X14474944Y-16750650D02*
X14474944Y-16883984D01*
X14427325Y-16674460D02*
X14379706Y-16817317D01*
X14379706Y-16817317D02*
X14503515Y-16817317D01*
X14560658Y-16683984D02*
X14684467Y-16683984D01*
X14684467Y-16683984D02*
X14617801Y-16760174D01*
X14617801Y-16760174D02*
X14646372Y-16760174D01*
X14646372Y-16760174D02*
X14665420Y-16769698D01*
X14665420Y-16769698D02*
X14674944Y-16779222D01*
X14674944Y-16779222D02*
X14684467Y-16798270D01*
X14684467Y-16798270D02*
X14684467Y-16845889D01*
X14684467Y-16845889D02*
X14674944Y-16864936D01*
X14674944Y-16864936D02*
X14665420Y-16874460D01*
X14665420Y-16874460D02*
X14646372Y-16883984D01*
X14646372Y-16883984D02*
X14589229Y-16883984D01*
X14589229Y-16883984D02*
X14570182Y-16874460D01*
X14570182Y-16874460D02*
X14560658Y-16864936D01*
X14751134Y-16683984D02*
X14874944Y-16683984D01*
X14874944Y-16683984D02*
X14808277Y-16760174D01*
X14808277Y-16760174D02*
X14836848Y-16760174D01*
X14836848Y-16760174D02*
X14855896Y-16769698D01*
X14855896Y-16769698D02*
X14865420Y-16779222D01*
X14865420Y-16779222D02*
X14874944Y-16798270D01*
X14874944Y-16798270D02*
X14874944Y-16845889D01*
X14874944Y-16845889D02*
X14865420Y-16864936D01*
X14865420Y-16864936D02*
X14855896Y-16874460D01*
X14855896Y-16874460D02*
X14836848Y-16883984D01*
X14836848Y-16883984D02*
X14779706Y-16883984D01*
X14779706Y-16883984D02*
X14760658Y-16874460D01*
X14760658Y-16874460D02*
X14751134Y-16864936D01*
X14951134Y-16683984D02*
X14951134Y-16722079D01*
X15027325Y-16683984D02*
X15027325Y-16722079D01*
X15322563Y-16960174D02*
X15313039Y-16950650D01*
X15313039Y-16950650D02*
X15293991Y-16922079D01*
X15293991Y-16922079D02*
X15284468Y-16903031D01*
X15284468Y-16903031D02*
X15274944Y-16874460D01*
X15274944Y-16874460D02*
X15265420Y-16826841D01*
X15265420Y-16826841D02*
X15265420Y-16788746D01*
X15265420Y-16788746D02*
X15274944Y-16741127D01*
X15274944Y-16741127D02*
X15284468Y-16712555D01*
X15284468Y-16712555D02*
X15293991Y-16693508D01*
X15293991Y-16693508D02*
X15313039Y-16664936D01*
X15313039Y-16664936D02*
X15322563Y-16655412D01*
X15503515Y-16883984D02*
X15389229Y-16883984D01*
X15446372Y-16883984D02*
X15446372Y-16683984D01*
X15446372Y-16683984D02*
X15427325Y-16712555D01*
X15427325Y-16712555D02*
X15408277Y-16731603D01*
X15408277Y-16731603D02*
X15389229Y-16741127D01*
X15741610Y-16883984D02*
X15741610Y-16683984D01*
X15827325Y-16883984D02*
X15827325Y-16779222D01*
X15827325Y-16779222D02*
X15817801Y-16760174D01*
X15817801Y-16760174D02*
X15798753Y-16750650D01*
X15798753Y-16750650D02*
X15770182Y-16750650D01*
X15770182Y-16750650D02*
X15751134Y-16760174D01*
X15751134Y-16760174D02*
X15741610Y-16769698D01*
X15951134Y-16883984D02*
X15932087Y-16874460D01*
X15932087Y-16874460D02*
X15922563Y-16864936D01*
X15922563Y-16864936D02*
X15913039Y-16845889D01*
X15913039Y-16845889D02*
X15913039Y-16788746D01*
X15913039Y-16788746D02*
X15922563Y-16769698D01*
X15922563Y-16769698D02*
X15932087Y-16760174D01*
X15932087Y-16760174D02*
X15951134Y-16750650D01*
X15951134Y-16750650D02*
X15979706Y-16750650D01*
X15979706Y-16750650D02*
X15998753Y-16760174D01*
X15998753Y-16760174D02*
X16008277Y-16769698D01*
X16008277Y-16769698D02*
X16017801Y-16788746D01*
X16017801Y-16788746D02*
X16017801Y-16845889D01*
X16017801Y-16845889D02*
X16008277Y-16864936D01*
X16008277Y-16864936D02*
X15998753Y-16874460D01*
X15998753Y-16874460D02*
X15979706Y-16883984D01*
X15979706Y-16883984D02*
X15951134Y-16883984D01*
X16132087Y-16883984D02*
X16113039Y-16874460D01*
X16113039Y-16874460D02*
X16103515Y-16855412D01*
X16103515Y-16855412D02*
X16103515Y-16683984D01*
X16284468Y-16874460D02*
X16265420Y-16883984D01*
X16265420Y-16883984D02*
X16227325Y-16883984D01*
X16227325Y-16883984D02*
X16208277Y-16874460D01*
X16208277Y-16874460D02*
X16198753Y-16855412D01*
X16198753Y-16855412D02*
X16198753Y-16779222D01*
X16198753Y-16779222D02*
X16208277Y-16760174D01*
X16208277Y-16760174D02*
X16227325Y-16750650D01*
X16227325Y-16750650D02*
X16265420Y-16750650D01*
X16265420Y-16750650D02*
X16284468Y-16760174D01*
X16284468Y-16760174D02*
X16293991Y-16779222D01*
X16293991Y-16779222D02*
X16293991Y-16798270D01*
X16293991Y-16798270D02*
X16198753Y-16817317D01*
X16360658Y-16960174D02*
X16370182Y-16950650D01*
X16370182Y-16950650D02*
X16389230Y-16922079D01*
X16389230Y-16922079D02*
X16398753Y-16903031D01*
X16398753Y-16903031D02*
X16408277Y-16874460D01*
X16408277Y-16874460D02*
X16417801Y-16826841D01*
X16417801Y-16826841D02*
X16417801Y-16788746D01*
X16417801Y-16788746D02*
X16408277Y-16741127D01*
X16408277Y-16741127D02*
X16398753Y-16712555D01*
X16398753Y-16712555D02*
X16389230Y-16693508D01*
X16389230Y-16693508D02*
X16370182Y-16664936D01*
X16370182Y-16664936D02*
X16360658Y-16655412D01*
X16722563Y-16960174D02*
X16713039Y-16950650D01*
X16713039Y-16950650D02*
X16693991Y-16922079D01*
X16693991Y-16922079D02*
X16684468Y-16903031D01*
X16684468Y-16903031D02*
X16674944Y-16874460D01*
X16674944Y-16874460D02*
X16665420Y-16826841D01*
X16665420Y-16826841D02*
X16665420Y-16788746D01*
X16665420Y-16788746D02*
X16674944Y-16741127D01*
X16674944Y-16741127D02*
X16684468Y-16712555D01*
X16684468Y-16712555D02*
X16693991Y-16693508D01*
X16693991Y-16693508D02*
X16713039Y-16664936D01*
X16713039Y-16664936D02*
X16722563Y-16655412D01*
X16798753Y-16750650D02*
X16798753Y-16883984D01*
X16798753Y-16769698D02*
X16808277Y-16760174D01*
X16808277Y-16760174D02*
X16827325Y-16750650D01*
X16827325Y-16750650D02*
X16855896Y-16750650D01*
X16855896Y-16750650D02*
X16874944Y-16760174D01*
X16874944Y-16760174D02*
X16884468Y-16779222D01*
X16884468Y-16779222D02*
X16884468Y-16883984D01*
X17008277Y-16883984D02*
X16989230Y-16874460D01*
X16989230Y-16874460D02*
X16979706Y-16864936D01*
X16979706Y-16864936D02*
X16970182Y-16845889D01*
X16970182Y-16845889D02*
X16970182Y-16788746D01*
X16970182Y-16788746D02*
X16979706Y-16769698D01*
X16979706Y-16769698D02*
X16989230Y-16760174D01*
X16989230Y-16760174D02*
X17008277Y-16750650D01*
X17008277Y-16750650D02*
X17036849Y-16750650D01*
X17036849Y-16750650D02*
X17055896Y-16760174D01*
X17055896Y-16760174D02*
X17065420Y-16769698D01*
X17065420Y-16769698D02*
X17074944Y-16788746D01*
X17074944Y-16788746D02*
X17074944Y-16845889D01*
X17074944Y-16845889D02*
X17065420Y-16864936D01*
X17065420Y-16864936D02*
X17055896Y-16874460D01*
X17055896Y-16874460D02*
X17036849Y-16883984D01*
X17036849Y-16883984D02*
X17008277Y-16883984D01*
X17132087Y-16750650D02*
X17208277Y-16750650D01*
X17160658Y-16683984D02*
X17160658Y-16855412D01*
X17160658Y-16855412D02*
X17170182Y-16874460D01*
X17170182Y-16874460D02*
X17189230Y-16883984D01*
X17189230Y-16883984D02*
X17208277Y-16883984D01*
X17427325Y-16750650D02*
X17427325Y-16950650D01*
X17427325Y-16760174D02*
X17446373Y-16750650D01*
X17446373Y-16750650D02*
X17484468Y-16750650D01*
X17484468Y-16750650D02*
X17503515Y-16760174D01*
X17503515Y-16760174D02*
X17513039Y-16769698D01*
X17513039Y-16769698D02*
X17522563Y-16788746D01*
X17522563Y-16788746D02*
X17522563Y-16845889D01*
X17522563Y-16845889D02*
X17513039Y-16864936D01*
X17513039Y-16864936D02*
X17503515Y-16874460D01*
X17503515Y-16874460D02*
X17484468Y-16883984D01*
X17484468Y-16883984D02*
X17446373Y-16883984D01*
X17446373Y-16883984D02*
X17427325Y-16874460D01*
X17636849Y-16883984D02*
X17617801Y-16874460D01*
X17617801Y-16874460D02*
X17608277Y-16855412D01*
X17608277Y-16855412D02*
X17608277Y-16683984D01*
X17798754Y-16883984D02*
X17798754Y-16779222D01*
X17798754Y-16779222D02*
X17789230Y-16760174D01*
X17789230Y-16760174D02*
X17770182Y-16750650D01*
X17770182Y-16750650D02*
X17732087Y-16750650D01*
X17732087Y-16750650D02*
X17713039Y-16760174D01*
X17798754Y-16874460D02*
X17779706Y-16883984D01*
X17779706Y-16883984D02*
X17732087Y-16883984D01*
X17732087Y-16883984D02*
X17713039Y-16874460D01*
X17713039Y-16874460D02*
X17703515Y-16855412D01*
X17703515Y-16855412D02*
X17703515Y-16836365D01*
X17703515Y-16836365D02*
X17713039Y-16817317D01*
X17713039Y-16817317D02*
X17732087Y-16807793D01*
X17732087Y-16807793D02*
X17779706Y-16807793D01*
X17779706Y-16807793D02*
X17798754Y-16798270D01*
X17865420Y-16750650D02*
X17941611Y-16750650D01*
X17893992Y-16683984D02*
X17893992Y-16855412D01*
X17893992Y-16855412D02*
X17903515Y-16874460D01*
X17903515Y-16874460D02*
X17922563Y-16883984D01*
X17922563Y-16883984D02*
X17941611Y-16883984D01*
X18084468Y-16874460D02*
X18065420Y-16883984D01*
X18065420Y-16883984D02*
X18027325Y-16883984D01*
X18027325Y-16883984D02*
X18008277Y-16874460D01*
X18008277Y-16874460D02*
X17998754Y-16855412D01*
X17998754Y-16855412D02*
X17998754Y-16779222D01*
X17998754Y-16779222D02*
X18008277Y-16760174D01*
X18008277Y-16760174D02*
X18027325Y-16750650D01*
X18027325Y-16750650D02*
X18065420Y-16750650D01*
X18065420Y-16750650D02*
X18084468Y-16760174D01*
X18084468Y-16760174D02*
X18093992Y-16779222D01*
X18093992Y-16779222D02*
X18093992Y-16798270D01*
X18093992Y-16798270D02*
X17998754Y-16817317D01*
X18265420Y-16883984D02*
X18265420Y-16683984D01*
X18265420Y-16874460D02*
X18246373Y-16883984D01*
X18246373Y-16883984D02*
X18208277Y-16883984D01*
X18208277Y-16883984D02*
X18189230Y-16874460D01*
X18189230Y-16874460D02*
X18179706Y-16864936D01*
X18179706Y-16864936D02*
X18170182Y-16845889D01*
X18170182Y-16845889D02*
X18170182Y-16788746D01*
X18170182Y-16788746D02*
X18179706Y-16769698D01*
X18179706Y-16769698D02*
X18189230Y-16760174D01*
X18189230Y-16760174D02*
X18208277Y-16750650D01*
X18208277Y-16750650D02*
X18246373Y-16750650D01*
X18246373Y-16750650D02*
X18265420Y-16760174D01*
X18341611Y-16960174D02*
X18351135Y-16950650D01*
X18351135Y-16950650D02*
X18370182Y-16922079D01*
X18370182Y-16922079D02*
X18379706Y-16903031D01*
X18379706Y-16903031D02*
X18389230Y-16874460D01*
X18389230Y-16874460D02*
X18398754Y-16826841D01*
X18398754Y-16826841D02*
X18398754Y-16788746D01*
X18398754Y-16788746D02*
X18389230Y-16741127D01*
X18389230Y-16741127D02*
X18379706Y-16712555D01*
X18379706Y-16712555D02*
X18370182Y-16693508D01*
X18370182Y-16693508D02*
X18351135Y-16664936D01*
X18351135Y-16664936D02*
X18341611Y-16655412D01*
M02*
