M48
; DRILL file {KiCad 8.0.4} date 2024-10-23T14:50:53+0200
; FORMAT={-:-/ absolute / inch / decimal}
; #@! TF.CreationDate,2024-10-23T14:50:53+02:00
; #@! TF.GenerationSoftware,Kicad,Pcbnew,8.0.4
; #@! TF.FileFunction,Plated,1,2,PTH
FMAT,2
INCH
; #@! TA.AperFunction,Plated,PTH,ViaDrill
T1C0.0118
; #@! TA.AperFunction,Plated,PTH,ComponentDrill
T2C0.0315
; #@! TA.AperFunction,Plated,PTH,ComponentDrill
T3C0.0354
; #@! TA.AperFunction,Plated,PTH,ComponentDrill
T4C0.0402
; #@! TA.AperFunction,Plated,PTH,ComponentDrill
T5C0.0440
; #@! TA.AperFunction,Plated,PTH,ComponentDrill
T6C0.0689
%
G90
G05
T1
X6.6215Y-3.9852
T2
X5.1506Y-2.9693
X5.1506Y-3.0693
X5.1506Y-3.1693
X5.1506Y-3.2693
X5.1506Y-3.3693
X5.1506Y-3.4693
X5.1506Y-3.5693
X5.1506Y-3.6693
X5.1506Y-3.7693
X5.1506Y-4.8819
X5.1506Y-4.9819
X5.1506Y-5.0819
X5.1506Y-5.1819
X5.1506Y-5.2819
X5.1506Y-5.3819
X5.1506Y-5.4819
X5.1506Y-5.5819
X5.1506Y-5.6819
T3
X5.6821Y-2.4803
X5.6821Y-2.5803
X5.6821Y-2.7178
X5.6821Y-2.8178
X5.6821Y-2.9554
X5.6821Y-3.0554
X5.6821Y-3.1929
X5.6821Y-3.2929
X5.6821Y-3.4304
X5.6821Y-3.5304
X5.6821Y-3.668
X5.6821Y-3.768
X5.6821Y-3.9055
X5.6821Y-4.0055
X5.6821Y-4.143
X5.6821Y-4.243
X5.6821Y-4.3806
X5.6821Y-4.4806
X5.6821Y-4.6181
X5.6821Y-4.7181
X5.6821Y-4.8556
X5.6821Y-4.9556
X5.6821Y-5.0932
X5.6821Y-5.1932
X5.6821Y-5.3307
X5.6821Y-5.4307
X5.6821Y-5.5682
X5.6821Y-5.6682
X5.6821Y-5.8058
X5.6821Y-5.9058
X5.6821Y-6.0433
X5.6821Y-6.1433
T4
X6.4177Y-3.858
X6.4177Y-3.958
X6.4177Y-4.058
X6.4177Y-4.158
T5
X6.2795Y-2.7102
X6.2795Y-2.8102
X6.2795Y-2.9102
X6.2795Y-3.0102
X6.2795Y-3.1102
X6.2795Y-3.2102
X6.2795Y-3.3102
X6.2795Y-3.4102
X6.2795Y-4.6066
X6.2795Y-4.7066
X6.2795Y-4.8066
X6.2795Y-4.9066
X6.2795Y-5.0066
X6.2795Y-5.1066
X6.2795Y-5.2066
X6.2795Y-5.3066
X6.5795Y-2.7102
X6.5795Y-2.8102
X6.5795Y-2.9102
X6.5795Y-3.0102
X6.5795Y-3.1102
X6.5795Y-3.2102
X6.5795Y-3.3102
X6.5795Y-3.4102
X6.5795Y-4.6066
X6.5795Y-4.7066
X6.5795Y-4.8066
X6.5795Y-4.9066
X6.5795Y-5.0066
X6.5795Y-5.1066
X6.5795Y-5.2066
X6.5795Y-5.3066
T6
X6.3544Y-5.826
X6.5072Y-5.826
M30
