%TF.GenerationSoftware,KiCad,Pcbnew,8.0.4*%
%TF.CreationDate,2024-10-23T14:50:50+02:00*%
%TF.ProjectId,leds,6c656473-2e6b-4696-9361-645f70636258,rev?*%
%TF.SameCoordinates,Original*%
%TF.FileFunction,Drillmap*%
%TF.FilePolarity,Positive*%
%FSLAX45Y45*%
G04 Gerber Fmt 4.5, Leading zero omitted, Abs format (unit mm)*
G04 Created by KiCad (PCBNEW 8.0.4) date 2024-10-23 14:50:50*
%MOMM*%
%LPD*%
G01*
G04 APERTURE LIST*
%ADD10C,0.050000*%
%ADD11C,0.200000*%
%ADD12C,0.100000*%
%ADD13C,0.102000*%
%ADD14C,0.111760*%
%ADD15C,0.175000*%
G04 APERTURE END LIST*
D10*
X11750000Y-5550000D02*
X18450000Y-5550000D01*
X18450000Y-16150000D01*
X11750000Y-16150000D01*
X11750000Y-5550000D01*
D11*
D12*
X16803650Y-10107470D02*
X16833650Y-10137470D01*
X16833650Y-10107470D02*
X16803650Y-10137470D01*
X13122500Y-7542000D02*
G75*
G02*
X13042500Y-7542000I-40000J0D01*
G01*
X13042500Y-7542000D02*
G75*
G02*
X13122500Y-7542000I40000J0D01*
G01*
X13122500Y-7796000D02*
G75*
G02*
X13042500Y-7796000I-40000J0D01*
G01*
X13042500Y-7796000D02*
G75*
G02*
X13122500Y-7796000I40000J0D01*
G01*
X13122500Y-8050000D02*
G75*
G02*
X13042500Y-8050000I-40000J0D01*
G01*
X13042500Y-8050000D02*
G75*
G02*
X13122500Y-8050000I40000J0D01*
G01*
X13122500Y-8304000D02*
G75*
G02*
X13042500Y-8304000I-40000J0D01*
G01*
X13042500Y-8304000D02*
G75*
G02*
X13122500Y-8304000I40000J0D01*
G01*
X13122500Y-8558000D02*
G75*
G02*
X13042500Y-8558000I-40000J0D01*
G01*
X13042500Y-8558000D02*
G75*
G02*
X13122500Y-8558000I40000J0D01*
G01*
X13122500Y-8812000D02*
G75*
G02*
X13042500Y-8812000I-40000J0D01*
G01*
X13042500Y-8812000D02*
G75*
G02*
X13122500Y-8812000I40000J0D01*
G01*
X13122500Y-9066000D02*
G75*
G02*
X13042500Y-9066000I-40000J0D01*
G01*
X13042500Y-9066000D02*
G75*
G02*
X13122500Y-9066000I40000J0D01*
G01*
X13122500Y-9320000D02*
G75*
G02*
X13042500Y-9320000I-40000J0D01*
G01*
X13042500Y-9320000D02*
G75*
G02*
X13122500Y-9320000I40000J0D01*
G01*
X13122500Y-9574000D02*
G75*
G02*
X13042500Y-9574000I-40000J0D01*
G01*
X13042500Y-9574000D02*
G75*
G02*
X13122500Y-9574000I40000J0D01*
G01*
X13122500Y-12400000D02*
G75*
G02*
X13042500Y-12400000I-40000J0D01*
G01*
X13042500Y-12400000D02*
G75*
G02*
X13122500Y-12400000I40000J0D01*
G01*
X13122500Y-12654000D02*
G75*
G02*
X13042500Y-12654000I-40000J0D01*
G01*
X13042500Y-12654000D02*
G75*
G02*
X13122500Y-12654000I40000J0D01*
G01*
X13122500Y-12908000D02*
G75*
G02*
X13042500Y-12908000I-40000J0D01*
G01*
X13042500Y-12908000D02*
G75*
G02*
X13122500Y-12908000I40000J0D01*
G01*
X13122500Y-13162000D02*
G75*
G02*
X13042500Y-13162000I-40000J0D01*
G01*
X13042500Y-13162000D02*
G75*
G02*
X13122500Y-13162000I40000J0D01*
G01*
X13122500Y-13416000D02*
G75*
G02*
X13042500Y-13416000I-40000J0D01*
G01*
X13042500Y-13416000D02*
G75*
G02*
X13122500Y-13416000I40000J0D01*
G01*
X13122500Y-13670000D02*
G75*
G02*
X13042500Y-13670000I-40000J0D01*
G01*
X13042500Y-13670000D02*
G75*
G02*
X13122500Y-13670000I40000J0D01*
G01*
X13122500Y-13924000D02*
G75*
G02*
X13042500Y-13924000I-40000J0D01*
G01*
X13042500Y-13924000D02*
G75*
G02*
X13122500Y-13924000I40000J0D01*
G01*
X13122500Y-14178000D02*
G75*
G02*
X13042500Y-14178000I-40000J0D01*
G01*
X13042500Y-14178000D02*
G75*
G02*
X13122500Y-14178000I40000J0D01*
G01*
X13122500Y-14432000D02*
G75*
G02*
X13042500Y-14432000I-40000J0D01*
G01*
X13042500Y-14432000D02*
G75*
G02*
X13122500Y-14432000I40000J0D01*
G01*
X14432500Y-6255000D02*
X14432500Y-6345000D01*
X14387500Y-6300000D02*
X14477500Y-6300000D01*
X14432500Y-6509000D02*
X14432500Y-6599000D01*
X14387500Y-6554000D02*
X14477500Y-6554000D01*
X14432500Y-6858330D02*
X14432500Y-6948330D01*
X14387500Y-6903330D02*
X14477500Y-6903330D01*
X14432500Y-7112330D02*
X14432500Y-7202330D01*
X14387500Y-7157330D02*
X14477500Y-7157330D01*
X14432500Y-7461670D02*
X14432500Y-7551670D01*
X14387500Y-7506670D02*
X14477500Y-7506670D01*
X14432500Y-7715670D02*
X14432500Y-7805670D01*
X14387500Y-7760670D02*
X14477500Y-7760670D01*
X14432500Y-8065000D02*
X14432500Y-8155000D01*
X14387500Y-8110000D02*
X14477500Y-8110000D01*
X14432500Y-8319000D02*
X14432500Y-8409000D01*
X14387500Y-8364000D02*
X14477500Y-8364000D01*
X14432500Y-8668330D02*
X14432500Y-8758330D01*
X14387500Y-8713330D02*
X14477500Y-8713330D01*
X14432500Y-8922330D02*
X14432500Y-9012330D01*
X14387500Y-8967330D02*
X14477500Y-8967330D01*
X14432500Y-9271670D02*
X14432500Y-9361670D01*
X14387500Y-9316670D02*
X14477500Y-9316670D01*
X14432500Y-9525670D02*
X14432500Y-9615670D01*
X14387500Y-9570670D02*
X14477500Y-9570670D01*
X14432500Y-9875000D02*
X14432500Y-9965000D01*
X14387500Y-9920000D02*
X14477500Y-9920000D01*
X14432500Y-10129000D02*
X14432500Y-10219000D01*
X14387500Y-10174000D02*
X14477500Y-10174000D01*
X14432500Y-10478330D02*
X14432500Y-10568330D01*
X14387500Y-10523330D02*
X14477500Y-10523330D01*
X14432500Y-10732330D02*
X14432500Y-10822330D01*
X14387500Y-10777330D02*
X14477500Y-10777330D01*
X14432500Y-11081670D02*
X14432500Y-11171670D01*
X14387500Y-11126670D02*
X14477500Y-11126670D01*
X14432500Y-11335670D02*
X14432500Y-11425670D01*
X14387500Y-11380670D02*
X14477500Y-11380670D01*
X14432500Y-11685000D02*
X14432500Y-11775000D01*
X14387500Y-11730000D02*
X14477500Y-11730000D01*
X14432500Y-11939000D02*
X14432500Y-12029000D01*
X14387500Y-11984000D02*
X14477500Y-11984000D01*
X14432500Y-12288330D02*
X14432500Y-12378330D01*
X14387500Y-12333330D02*
X14477500Y-12333330D01*
X14432500Y-12542330D02*
X14432500Y-12632330D01*
X14387500Y-12587330D02*
X14477500Y-12587330D01*
X14432500Y-12891670D02*
X14432500Y-12981670D01*
X14387500Y-12936670D02*
X14477500Y-12936670D01*
X14432500Y-13145670D02*
X14432500Y-13235670D01*
X14387500Y-13190670D02*
X14477500Y-13190670D01*
X14432500Y-13495000D02*
X14432500Y-13585000D01*
X14387500Y-13540000D02*
X14477500Y-13540000D01*
X14432500Y-13749000D02*
X14432500Y-13839000D01*
X14387500Y-13794000D02*
X14477500Y-13794000D01*
X14432500Y-14098330D02*
X14432500Y-14188330D01*
X14387500Y-14143330D02*
X14477500Y-14143330D01*
X14432500Y-14352330D02*
X14432500Y-14442330D01*
X14387500Y-14397330D02*
X14477500Y-14397330D01*
X14432500Y-14701660D02*
X14432500Y-14791660D01*
X14387500Y-14746660D02*
X14477500Y-14746660D01*
X14432500Y-14955660D02*
X14432500Y-15045660D01*
X14387500Y-15000660D02*
X14477500Y-15000660D01*
X14432500Y-15305000D02*
X14432500Y-15395000D01*
X14387500Y-15350000D02*
X14477500Y-15350000D01*
X14432500Y-15559000D02*
X14432500Y-15649000D01*
X14387500Y-15604000D02*
X14477500Y-15604000D01*
D13*
X16337063Y-9835393D02*
X16337063Y-9763267D01*
X16264937Y-9763267D01*
X16264937Y-9835393D01*
X16337063Y-9835393D01*
X16337063Y-10089393D02*
X16337063Y-10017267D01*
X16264937Y-10017267D01*
X16264937Y-10089393D01*
X16337063Y-10089393D01*
X16337063Y-10343393D02*
X16337063Y-10271267D01*
X16264937Y-10271267D01*
X16264937Y-10343393D01*
X16337063Y-10343393D01*
X16337063Y-10597393D02*
X16337063Y-10525267D01*
X16264937Y-10525267D01*
X16264937Y-10597393D01*
X16337063Y-10597393D01*
D14*
X15950000Y-6939880D02*
X16005880Y-6884000D01*
X15950000Y-6828120D01*
X15894120Y-6884000D01*
X15950000Y-6939880D01*
X15950000Y-7193880D02*
X16005880Y-7138000D01*
X15950000Y-7082120D01*
X15894120Y-7138000D01*
X15950000Y-7193880D01*
X15950000Y-7447880D02*
X16005880Y-7392000D01*
X15950000Y-7336120D01*
X15894120Y-7392000D01*
X15950000Y-7447880D01*
X15950000Y-7701880D02*
X16005880Y-7646000D01*
X15950000Y-7590120D01*
X15894120Y-7646000D01*
X15950000Y-7701880D01*
X15950000Y-7955880D02*
X16005880Y-7900000D01*
X15950000Y-7844120D01*
X15894120Y-7900000D01*
X15950000Y-7955880D01*
X15950000Y-8209880D02*
X16005880Y-8154000D01*
X15950000Y-8098120D01*
X15894120Y-8154000D01*
X15950000Y-8209880D01*
X15950000Y-8463880D02*
X16005880Y-8408000D01*
X15950000Y-8352120D01*
X15894120Y-8408000D01*
X15950000Y-8463880D01*
X15950000Y-8717880D02*
X16005880Y-8662000D01*
X15950000Y-8606120D01*
X15894120Y-8662000D01*
X15950000Y-8717880D01*
X15950000Y-11756550D02*
X16005880Y-11700670D01*
X15950000Y-11644790D01*
X15894120Y-11700670D01*
X15950000Y-11756550D01*
X15950000Y-12010550D02*
X16005880Y-11954670D01*
X15950000Y-11898790D01*
X15894120Y-11954670D01*
X15950000Y-12010550D01*
X15950000Y-12264550D02*
X16005880Y-12208670D01*
X15950000Y-12152790D01*
X15894120Y-12208670D01*
X15950000Y-12264550D01*
X15950000Y-12518550D02*
X16005880Y-12462670D01*
X15950000Y-12406790D01*
X15894120Y-12462670D01*
X15950000Y-12518550D01*
X15950000Y-12772550D02*
X16005880Y-12716670D01*
X15950000Y-12660790D01*
X15894120Y-12716670D01*
X15950000Y-12772550D01*
X15950000Y-13026550D02*
X16005880Y-12970670D01*
X15950000Y-12914790D01*
X15894120Y-12970670D01*
X15950000Y-13026550D01*
X15950000Y-13280550D02*
X16005880Y-13224670D01*
X15950000Y-13168790D01*
X15894120Y-13224670D01*
X15950000Y-13280550D01*
X15950000Y-13534550D02*
X16005880Y-13478670D01*
X15950000Y-13422790D01*
X15894120Y-13478670D01*
X15950000Y-13534550D01*
X16712000Y-6939880D02*
X16767880Y-6884000D01*
X16712000Y-6828120D01*
X16656120Y-6884000D01*
X16712000Y-6939880D01*
X16712000Y-7193880D02*
X16767880Y-7138000D01*
X16712000Y-7082120D01*
X16656120Y-7138000D01*
X16712000Y-7193880D01*
X16712000Y-7447880D02*
X16767880Y-7392000D01*
X16712000Y-7336120D01*
X16656120Y-7392000D01*
X16712000Y-7447880D01*
X16712000Y-7701880D02*
X16767880Y-7646000D01*
X16712000Y-7590120D01*
X16656120Y-7646000D01*
X16712000Y-7701880D01*
X16712000Y-7955880D02*
X16767880Y-7900000D01*
X16712000Y-7844120D01*
X16656120Y-7900000D01*
X16712000Y-7955880D01*
X16712000Y-8209880D02*
X16767880Y-8154000D01*
X16712000Y-8098120D01*
X16656120Y-8154000D01*
X16712000Y-8209880D01*
X16712000Y-8463880D02*
X16767880Y-8408000D01*
X16712000Y-8352120D01*
X16656120Y-8408000D01*
X16712000Y-8463880D01*
X16712000Y-8717880D02*
X16767880Y-8662000D01*
X16712000Y-8606120D01*
X16656120Y-8662000D01*
X16712000Y-8717880D01*
X16712000Y-11756550D02*
X16767880Y-11700670D01*
X16712000Y-11644790D01*
X16656120Y-11700670D01*
X16712000Y-11756550D01*
X16712000Y-12010550D02*
X16767880Y-11954670D01*
X16712000Y-11898790D01*
X16656120Y-11954670D01*
X16712000Y-12010550D01*
X16712000Y-12264550D02*
X16767880Y-12208670D01*
X16712000Y-12152790D01*
X16656120Y-12208670D01*
X16712000Y-12264550D01*
X16712000Y-12518550D02*
X16767880Y-12462670D01*
X16712000Y-12406790D01*
X16656120Y-12462670D01*
X16712000Y-12518550D01*
X16712000Y-12772550D02*
X16767880Y-12716670D01*
X16712000Y-12660790D01*
X16656120Y-12716670D01*
X16712000Y-12772550D01*
X16712000Y-13026550D02*
X16767880Y-12970670D01*
X16712000Y-12914790D01*
X16656120Y-12970670D01*
X16712000Y-13026550D01*
X16712000Y-13280550D02*
X16767880Y-13224670D01*
X16712000Y-13168790D01*
X16656120Y-13224670D01*
X16712000Y-13280550D01*
X16712000Y-13534550D02*
X16767880Y-13478670D01*
X16712000Y-13422790D01*
X16656120Y-13478670D01*
X16712000Y-13534550D01*
D15*
X16052750Y-14710500D02*
X16227750Y-14885500D01*
X16227750Y-14710500D02*
X16052750Y-14885500D01*
X16227750Y-14798000D02*
G75*
G02*
X16052750Y-14798000I-87500J0D01*
G01*
X16052750Y-14798000D02*
G75*
G02*
X16227750Y-14798000I87500J0D01*
G01*
X16440750Y-14710500D02*
X16615750Y-14885500D01*
X16615750Y-14710500D02*
X16440750Y-14885500D01*
X16615750Y-14798000D02*
G75*
G02*
X16440750Y-14798000I-87500J0D01*
G01*
X16440750Y-14798000D02*
G75*
G02*
X16615750Y-14798000I87500J0D01*
G01*
D11*
X12008277Y-16463984D02*
X12008277Y-16263984D01*
X12008277Y-16263984D02*
X12055896Y-16263984D01*
X12055896Y-16263984D02*
X12084467Y-16273508D01*
X12084467Y-16273508D02*
X12103515Y-16292555D01*
X12103515Y-16292555D02*
X12113039Y-16311603D01*
X12113039Y-16311603D02*
X12122562Y-16349698D01*
X12122562Y-16349698D02*
X12122562Y-16378269D01*
X12122562Y-16378269D02*
X12113039Y-16416365D01*
X12113039Y-16416365D02*
X12103515Y-16435412D01*
X12103515Y-16435412D02*
X12084467Y-16454460D01*
X12084467Y-16454460D02*
X12055896Y-16463984D01*
X12055896Y-16463984D02*
X12008277Y-16463984D01*
X12208277Y-16463984D02*
X12208277Y-16330650D01*
X12208277Y-16368746D02*
X12217801Y-16349698D01*
X12217801Y-16349698D02*
X12227324Y-16340174D01*
X12227324Y-16340174D02*
X12246372Y-16330650D01*
X12246372Y-16330650D02*
X12265420Y-16330650D01*
X12332086Y-16463984D02*
X12332086Y-16330650D01*
X12332086Y-16263984D02*
X12322562Y-16273508D01*
X12322562Y-16273508D02*
X12332086Y-16283031D01*
X12332086Y-16283031D02*
X12341610Y-16273508D01*
X12341610Y-16273508D02*
X12332086Y-16263984D01*
X12332086Y-16263984D02*
X12332086Y-16283031D01*
X12455896Y-16463984D02*
X12436848Y-16454460D01*
X12436848Y-16454460D02*
X12427324Y-16435412D01*
X12427324Y-16435412D02*
X12427324Y-16263984D01*
X12560658Y-16463984D02*
X12541610Y-16454460D01*
X12541610Y-16454460D02*
X12532086Y-16435412D01*
X12532086Y-16435412D02*
X12532086Y-16263984D01*
X12789229Y-16463984D02*
X12789229Y-16263984D01*
X12789229Y-16263984D02*
X12855896Y-16406841D01*
X12855896Y-16406841D02*
X12922562Y-16263984D01*
X12922562Y-16263984D02*
X12922562Y-16463984D01*
X13103515Y-16463984D02*
X13103515Y-16359222D01*
X13103515Y-16359222D02*
X13093991Y-16340174D01*
X13093991Y-16340174D02*
X13074943Y-16330650D01*
X13074943Y-16330650D02*
X13036848Y-16330650D01*
X13036848Y-16330650D02*
X13017801Y-16340174D01*
X13103515Y-16454460D02*
X13084467Y-16463984D01*
X13084467Y-16463984D02*
X13036848Y-16463984D01*
X13036848Y-16463984D02*
X13017801Y-16454460D01*
X13017801Y-16454460D02*
X13008277Y-16435412D01*
X13008277Y-16435412D02*
X13008277Y-16416365D01*
X13008277Y-16416365D02*
X13017801Y-16397317D01*
X13017801Y-16397317D02*
X13036848Y-16387793D01*
X13036848Y-16387793D02*
X13084467Y-16387793D01*
X13084467Y-16387793D02*
X13103515Y-16378269D01*
X13198753Y-16330650D02*
X13198753Y-16530650D01*
X13198753Y-16340174D02*
X13217801Y-16330650D01*
X13217801Y-16330650D02*
X13255896Y-16330650D01*
X13255896Y-16330650D02*
X13274943Y-16340174D01*
X13274943Y-16340174D02*
X13284467Y-16349698D01*
X13284467Y-16349698D02*
X13293991Y-16368746D01*
X13293991Y-16368746D02*
X13293991Y-16425888D01*
X13293991Y-16425888D02*
X13284467Y-16444936D01*
X13284467Y-16444936D02*
X13274943Y-16454460D01*
X13274943Y-16454460D02*
X13255896Y-16463984D01*
X13255896Y-16463984D02*
X13217801Y-16463984D01*
X13217801Y-16463984D02*
X13198753Y-16454460D01*
X13379705Y-16444936D02*
X13389229Y-16454460D01*
X13389229Y-16454460D02*
X13379705Y-16463984D01*
X13379705Y-16463984D02*
X13370182Y-16454460D01*
X13370182Y-16454460D02*
X13379705Y-16444936D01*
X13379705Y-16444936D02*
X13379705Y-16463984D01*
X13379705Y-16340174D02*
X13389229Y-16349698D01*
X13389229Y-16349698D02*
X13379705Y-16359222D01*
X13379705Y-16359222D02*
X13370182Y-16349698D01*
X13370182Y-16349698D02*
X13379705Y-16340174D01*
X13379705Y-16340174D02*
X13379705Y-16359222D01*
D12*
X11717500Y-16777500D02*
X11747500Y-16807500D01*
X11747500Y-16777500D02*
X11717500Y-16807500D01*
D11*
X12046372Y-16683984D02*
X12065420Y-16683984D01*
X12065420Y-16683984D02*
X12084467Y-16693508D01*
X12084467Y-16693508D02*
X12093991Y-16703031D01*
X12093991Y-16703031D02*
X12103515Y-16722079D01*
X12103515Y-16722079D02*
X12113039Y-16760174D01*
X12113039Y-16760174D02*
X12113039Y-16807793D01*
X12113039Y-16807793D02*
X12103515Y-16845889D01*
X12103515Y-16845889D02*
X12093991Y-16864936D01*
X12093991Y-16864936D02*
X12084467Y-16874460D01*
X12084467Y-16874460D02*
X12065420Y-16883984D01*
X12065420Y-16883984D02*
X12046372Y-16883984D01*
X12046372Y-16883984D02*
X12027324Y-16874460D01*
X12027324Y-16874460D02*
X12017801Y-16864936D01*
X12017801Y-16864936D02*
X12008277Y-16845889D01*
X12008277Y-16845889D02*
X11998753Y-16807793D01*
X11998753Y-16807793D02*
X11998753Y-16760174D01*
X11998753Y-16760174D02*
X12008277Y-16722079D01*
X12008277Y-16722079D02*
X12017801Y-16703031D01*
X12017801Y-16703031D02*
X12027324Y-16693508D01*
X12027324Y-16693508D02*
X12046372Y-16683984D01*
X12198753Y-16864936D02*
X12208277Y-16874460D01*
X12208277Y-16874460D02*
X12198753Y-16883984D01*
X12198753Y-16883984D02*
X12189229Y-16874460D01*
X12189229Y-16874460D02*
X12198753Y-16864936D01*
X12198753Y-16864936D02*
X12198753Y-16883984D01*
X12274943Y-16683984D02*
X12398753Y-16683984D01*
X12398753Y-16683984D02*
X12332086Y-16760174D01*
X12332086Y-16760174D02*
X12360658Y-16760174D01*
X12360658Y-16760174D02*
X12379705Y-16769698D01*
X12379705Y-16769698D02*
X12389229Y-16779222D01*
X12389229Y-16779222D02*
X12398753Y-16798270D01*
X12398753Y-16798270D02*
X12398753Y-16845889D01*
X12398753Y-16845889D02*
X12389229Y-16864936D01*
X12389229Y-16864936D02*
X12379705Y-16874460D01*
X12379705Y-16874460D02*
X12360658Y-16883984D01*
X12360658Y-16883984D02*
X12303515Y-16883984D01*
X12303515Y-16883984D02*
X12284467Y-16874460D01*
X12284467Y-16874460D02*
X12274943Y-16864936D01*
X12522562Y-16683984D02*
X12541610Y-16683984D01*
X12541610Y-16683984D02*
X12560658Y-16693508D01*
X12560658Y-16693508D02*
X12570182Y-16703031D01*
X12570182Y-16703031D02*
X12579705Y-16722079D01*
X12579705Y-16722079D02*
X12589229Y-16760174D01*
X12589229Y-16760174D02*
X12589229Y-16807793D01*
X12589229Y-16807793D02*
X12579705Y-16845889D01*
X12579705Y-16845889D02*
X12570182Y-16864936D01*
X12570182Y-16864936D02*
X12560658Y-16874460D01*
X12560658Y-16874460D02*
X12541610Y-16883984D01*
X12541610Y-16883984D02*
X12522562Y-16883984D01*
X12522562Y-16883984D02*
X12503515Y-16874460D01*
X12503515Y-16874460D02*
X12493991Y-16864936D01*
X12493991Y-16864936D02*
X12484467Y-16845889D01*
X12484467Y-16845889D02*
X12474943Y-16807793D01*
X12474943Y-16807793D02*
X12474943Y-16760174D01*
X12474943Y-16760174D02*
X12484467Y-16722079D01*
X12484467Y-16722079D02*
X12493991Y-16703031D01*
X12493991Y-16703031D02*
X12503515Y-16693508D01*
X12503515Y-16693508D02*
X12522562Y-16683984D01*
X12713039Y-16683984D02*
X12732086Y-16683984D01*
X12732086Y-16683984D02*
X12751134Y-16693508D01*
X12751134Y-16693508D02*
X12760658Y-16703031D01*
X12760658Y-16703031D02*
X12770182Y-16722079D01*
X12770182Y-16722079D02*
X12779705Y-16760174D01*
X12779705Y-16760174D02*
X12779705Y-16807793D01*
X12779705Y-16807793D02*
X12770182Y-16845889D01*
X12770182Y-16845889D02*
X12760658Y-16864936D01*
X12760658Y-16864936D02*
X12751134Y-16874460D01*
X12751134Y-16874460D02*
X12732086Y-16883984D01*
X12732086Y-16883984D02*
X12713039Y-16883984D01*
X12713039Y-16883984D02*
X12693991Y-16874460D01*
X12693991Y-16874460D02*
X12684467Y-16864936D01*
X12684467Y-16864936D02*
X12674943Y-16845889D01*
X12674943Y-16845889D02*
X12665420Y-16807793D01*
X12665420Y-16807793D02*
X12665420Y-16760174D01*
X12665420Y-16760174D02*
X12674943Y-16722079D01*
X12674943Y-16722079D02*
X12684467Y-16703031D01*
X12684467Y-16703031D02*
X12693991Y-16693508D01*
X12693991Y-16693508D02*
X12713039Y-16683984D01*
X12865420Y-16883984D02*
X12865420Y-16750650D01*
X12865420Y-16769698D02*
X12874943Y-16760174D01*
X12874943Y-16760174D02*
X12893991Y-16750650D01*
X12893991Y-16750650D02*
X12922563Y-16750650D01*
X12922563Y-16750650D02*
X12941610Y-16760174D01*
X12941610Y-16760174D02*
X12951134Y-16779222D01*
X12951134Y-16779222D02*
X12951134Y-16883984D01*
X12951134Y-16779222D02*
X12960658Y-16760174D01*
X12960658Y-16760174D02*
X12979705Y-16750650D01*
X12979705Y-16750650D02*
X13008277Y-16750650D01*
X13008277Y-16750650D02*
X13027324Y-16760174D01*
X13027324Y-16760174D02*
X13036848Y-16779222D01*
X13036848Y-16779222D02*
X13036848Y-16883984D01*
X13132086Y-16883984D02*
X13132086Y-16750650D01*
X13132086Y-16769698D02*
X13141610Y-16760174D01*
X13141610Y-16760174D02*
X13160658Y-16750650D01*
X13160658Y-16750650D02*
X13189229Y-16750650D01*
X13189229Y-16750650D02*
X13208277Y-16760174D01*
X13208277Y-16760174D02*
X13217801Y-16779222D01*
X13217801Y-16779222D02*
X13217801Y-16883984D01*
X13217801Y-16779222D02*
X13227324Y-16760174D01*
X13227324Y-16760174D02*
X13246372Y-16750650D01*
X13246372Y-16750650D02*
X13274943Y-16750650D01*
X13274943Y-16750650D02*
X13293991Y-16760174D01*
X13293991Y-16760174D02*
X13303515Y-16779222D01*
X13303515Y-16779222D02*
X13303515Y-16883984D01*
X13693991Y-16674460D02*
X13522563Y-16931603D01*
X13951134Y-16683984D02*
X13970182Y-16683984D01*
X13970182Y-16683984D02*
X13989229Y-16693508D01*
X13989229Y-16693508D02*
X13998753Y-16703031D01*
X13998753Y-16703031D02*
X14008277Y-16722079D01*
X14008277Y-16722079D02*
X14017801Y-16760174D01*
X14017801Y-16760174D02*
X14017801Y-16807793D01*
X14017801Y-16807793D02*
X14008277Y-16845889D01*
X14008277Y-16845889D02*
X13998753Y-16864936D01*
X13998753Y-16864936D02*
X13989229Y-16874460D01*
X13989229Y-16874460D02*
X13970182Y-16883984D01*
X13970182Y-16883984D02*
X13951134Y-16883984D01*
X13951134Y-16883984D02*
X13932086Y-16874460D01*
X13932086Y-16874460D02*
X13922563Y-16864936D01*
X13922563Y-16864936D02*
X13913039Y-16845889D01*
X13913039Y-16845889D02*
X13903515Y-16807793D01*
X13903515Y-16807793D02*
X13903515Y-16760174D01*
X13903515Y-16760174D02*
X13913039Y-16722079D01*
X13913039Y-16722079D02*
X13922563Y-16703031D01*
X13922563Y-16703031D02*
X13932086Y-16693508D01*
X13932086Y-16693508D02*
X13951134Y-16683984D01*
X14103515Y-16864936D02*
X14113039Y-16874460D01*
X14113039Y-16874460D02*
X14103515Y-16883984D01*
X14103515Y-16883984D02*
X14093991Y-16874460D01*
X14093991Y-16874460D02*
X14103515Y-16864936D01*
X14103515Y-16864936D02*
X14103515Y-16883984D01*
X14236848Y-16683984D02*
X14255896Y-16683984D01*
X14255896Y-16683984D02*
X14274944Y-16693508D01*
X14274944Y-16693508D02*
X14284467Y-16703031D01*
X14284467Y-16703031D02*
X14293991Y-16722079D01*
X14293991Y-16722079D02*
X14303515Y-16760174D01*
X14303515Y-16760174D02*
X14303515Y-16807793D01*
X14303515Y-16807793D02*
X14293991Y-16845889D01*
X14293991Y-16845889D02*
X14284467Y-16864936D01*
X14284467Y-16864936D02*
X14274944Y-16874460D01*
X14274944Y-16874460D02*
X14255896Y-16883984D01*
X14255896Y-16883984D02*
X14236848Y-16883984D01*
X14236848Y-16883984D02*
X14217801Y-16874460D01*
X14217801Y-16874460D02*
X14208277Y-16864936D01*
X14208277Y-16864936D02*
X14198753Y-16845889D01*
X14198753Y-16845889D02*
X14189229Y-16807793D01*
X14189229Y-16807793D02*
X14189229Y-16760174D01*
X14189229Y-16760174D02*
X14198753Y-16722079D01*
X14198753Y-16722079D02*
X14208277Y-16703031D01*
X14208277Y-16703031D02*
X14217801Y-16693508D01*
X14217801Y-16693508D02*
X14236848Y-16683984D01*
X14493991Y-16883984D02*
X14379706Y-16883984D01*
X14436848Y-16883984D02*
X14436848Y-16683984D01*
X14436848Y-16683984D02*
X14417801Y-16712555D01*
X14417801Y-16712555D02*
X14398753Y-16731603D01*
X14398753Y-16731603D02*
X14379706Y-16741127D01*
X14684467Y-16883984D02*
X14570182Y-16883984D01*
X14627325Y-16883984D02*
X14627325Y-16683984D01*
X14627325Y-16683984D02*
X14608277Y-16712555D01*
X14608277Y-16712555D02*
X14589229Y-16731603D01*
X14589229Y-16731603D02*
X14570182Y-16741127D01*
X14798753Y-16769698D02*
X14779706Y-16760174D01*
X14779706Y-16760174D02*
X14770182Y-16750650D01*
X14770182Y-16750650D02*
X14760658Y-16731603D01*
X14760658Y-16731603D02*
X14760658Y-16722079D01*
X14760658Y-16722079D02*
X14770182Y-16703031D01*
X14770182Y-16703031D02*
X14779706Y-16693508D01*
X14779706Y-16693508D02*
X14798753Y-16683984D01*
X14798753Y-16683984D02*
X14836848Y-16683984D01*
X14836848Y-16683984D02*
X14855896Y-16693508D01*
X14855896Y-16693508D02*
X14865420Y-16703031D01*
X14865420Y-16703031D02*
X14874944Y-16722079D01*
X14874944Y-16722079D02*
X14874944Y-16731603D01*
X14874944Y-16731603D02*
X14865420Y-16750650D01*
X14865420Y-16750650D02*
X14855896Y-16760174D01*
X14855896Y-16760174D02*
X14836848Y-16769698D01*
X14836848Y-16769698D02*
X14798753Y-16769698D01*
X14798753Y-16769698D02*
X14779706Y-16779222D01*
X14779706Y-16779222D02*
X14770182Y-16788746D01*
X14770182Y-16788746D02*
X14760658Y-16807793D01*
X14760658Y-16807793D02*
X14760658Y-16845889D01*
X14760658Y-16845889D02*
X14770182Y-16864936D01*
X14770182Y-16864936D02*
X14779706Y-16874460D01*
X14779706Y-16874460D02*
X14798753Y-16883984D01*
X14798753Y-16883984D02*
X14836848Y-16883984D01*
X14836848Y-16883984D02*
X14855896Y-16874460D01*
X14855896Y-16874460D02*
X14865420Y-16864936D01*
X14865420Y-16864936D02*
X14874944Y-16845889D01*
X14874944Y-16845889D02*
X14874944Y-16807793D01*
X14874944Y-16807793D02*
X14865420Y-16788746D01*
X14865420Y-16788746D02*
X14855896Y-16779222D01*
X14855896Y-16779222D02*
X14836848Y-16769698D01*
X14951134Y-16683984D02*
X14951134Y-16722079D01*
X15027325Y-16683984D02*
X15027325Y-16722079D01*
X15322563Y-16960174D02*
X15313039Y-16950650D01*
X15313039Y-16950650D02*
X15293991Y-16922079D01*
X15293991Y-16922079D02*
X15284468Y-16903031D01*
X15284468Y-16903031D02*
X15274944Y-16874460D01*
X15274944Y-16874460D02*
X15265420Y-16826841D01*
X15265420Y-16826841D02*
X15265420Y-16788746D01*
X15265420Y-16788746D02*
X15274944Y-16741127D01*
X15274944Y-16741127D02*
X15284468Y-16712555D01*
X15284468Y-16712555D02*
X15293991Y-16693508D01*
X15293991Y-16693508D02*
X15313039Y-16664936D01*
X15313039Y-16664936D02*
X15322563Y-16655412D01*
X15503515Y-16883984D02*
X15389229Y-16883984D01*
X15446372Y-16883984D02*
X15446372Y-16683984D01*
X15446372Y-16683984D02*
X15427325Y-16712555D01*
X15427325Y-16712555D02*
X15408277Y-16731603D01*
X15408277Y-16731603D02*
X15389229Y-16741127D01*
X15741610Y-16883984D02*
X15741610Y-16683984D01*
X15827325Y-16883984D02*
X15827325Y-16779222D01*
X15827325Y-16779222D02*
X15817801Y-16760174D01*
X15817801Y-16760174D02*
X15798753Y-16750650D01*
X15798753Y-16750650D02*
X15770182Y-16750650D01*
X15770182Y-16750650D02*
X15751134Y-16760174D01*
X15751134Y-16760174D02*
X15741610Y-16769698D01*
X15951134Y-16883984D02*
X15932087Y-16874460D01*
X15932087Y-16874460D02*
X15922563Y-16864936D01*
X15922563Y-16864936D02*
X15913039Y-16845889D01*
X15913039Y-16845889D02*
X15913039Y-16788746D01*
X15913039Y-16788746D02*
X15922563Y-16769698D01*
X15922563Y-16769698D02*
X15932087Y-16760174D01*
X15932087Y-16760174D02*
X15951134Y-16750650D01*
X15951134Y-16750650D02*
X15979706Y-16750650D01*
X15979706Y-16750650D02*
X15998753Y-16760174D01*
X15998753Y-16760174D02*
X16008277Y-16769698D01*
X16008277Y-16769698D02*
X16017801Y-16788746D01*
X16017801Y-16788746D02*
X16017801Y-16845889D01*
X16017801Y-16845889D02*
X16008277Y-16864936D01*
X16008277Y-16864936D02*
X15998753Y-16874460D01*
X15998753Y-16874460D02*
X15979706Y-16883984D01*
X15979706Y-16883984D02*
X15951134Y-16883984D01*
X16132087Y-16883984D02*
X16113039Y-16874460D01*
X16113039Y-16874460D02*
X16103515Y-16855412D01*
X16103515Y-16855412D02*
X16103515Y-16683984D01*
X16284468Y-16874460D02*
X16265420Y-16883984D01*
X16265420Y-16883984D02*
X16227325Y-16883984D01*
X16227325Y-16883984D02*
X16208277Y-16874460D01*
X16208277Y-16874460D02*
X16198753Y-16855412D01*
X16198753Y-16855412D02*
X16198753Y-16779222D01*
X16198753Y-16779222D02*
X16208277Y-16760174D01*
X16208277Y-16760174D02*
X16227325Y-16750650D01*
X16227325Y-16750650D02*
X16265420Y-16750650D01*
X16265420Y-16750650D02*
X16284468Y-16760174D01*
X16284468Y-16760174D02*
X16293991Y-16779222D01*
X16293991Y-16779222D02*
X16293991Y-16798270D01*
X16293991Y-16798270D02*
X16198753Y-16817317D01*
X16360658Y-16960174D02*
X16370182Y-16950650D01*
X16370182Y-16950650D02*
X16389230Y-16922079D01*
X16389230Y-16922079D02*
X16398753Y-16903031D01*
X16398753Y-16903031D02*
X16408277Y-16874460D01*
X16408277Y-16874460D02*
X16417801Y-16826841D01*
X16417801Y-16826841D02*
X16417801Y-16788746D01*
X16417801Y-16788746D02*
X16408277Y-16741127D01*
X16408277Y-16741127D02*
X16398753Y-16712555D01*
X16398753Y-16712555D02*
X16389230Y-16693508D01*
X16389230Y-16693508D02*
X16370182Y-16664936D01*
X16370182Y-16664936D02*
X16360658Y-16655412D01*
D12*
X11747500Y-17056500D02*
G75*
G02*
X11667500Y-17056500I-40000J0D01*
G01*
X11667500Y-17056500D02*
G75*
G02*
X11747500Y-17056500I40000J0D01*
G01*
D11*
X12046372Y-16947984D02*
X12065420Y-16947984D01*
X12065420Y-16947984D02*
X12084467Y-16957508D01*
X12084467Y-16957508D02*
X12093991Y-16967031D01*
X12093991Y-16967031D02*
X12103515Y-16986079D01*
X12103515Y-16986079D02*
X12113039Y-17024174D01*
X12113039Y-17024174D02*
X12113039Y-17071793D01*
X12113039Y-17071793D02*
X12103515Y-17109889D01*
X12103515Y-17109889D02*
X12093991Y-17128936D01*
X12093991Y-17128936D02*
X12084467Y-17138460D01*
X12084467Y-17138460D02*
X12065420Y-17147984D01*
X12065420Y-17147984D02*
X12046372Y-17147984D01*
X12046372Y-17147984D02*
X12027324Y-17138460D01*
X12027324Y-17138460D02*
X12017801Y-17128936D01*
X12017801Y-17128936D02*
X12008277Y-17109889D01*
X12008277Y-17109889D02*
X11998753Y-17071793D01*
X11998753Y-17071793D02*
X11998753Y-17024174D01*
X11998753Y-17024174D02*
X12008277Y-16986079D01*
X12008277Y-16986079D02*
X12017801Y-16967031D01*
X12017801Y-16967031D02*
X12027324Y-16957508D01*
X12027324Y-16957508D02*
X12046372Y-16947984D01*
X12198753Y-17128936D02*
X12208277Y-17138460D01*
X12208277Y-17138460D02*
X12198753Y-17147984D01*
X12198753Y-17147984D02*
X12189229Y-17138460D01*
X12189229Y-17138460D02*
X12198753Y-17128936D01*
X12198753Y-17128936D02*
X12198753Y-17147984D01*
X12322562Y-17033698D02*
X12303515Y-17024174D01*
X12303515Y-17024174D02*
X12293991Y-17014650D01*
X12293991Y-17014650D02*
X12284467Y-16995603D01*
X12284467Y-16995603D02*
X12284467Y-16986079D01*
X12284467Y-16986079D02*
X12293991Y-16967031D01*
X12293991Y-16967031D02*
X12303515Y-16957508D01*
X12303515Y-16957508D02*
X12322562Y-16947984D01*
X12322562Y-16947984D02*
X12360658Y-16947984D01*
X12360658Y-16947984D02*
X12379705Y-16957508D01*
X12379705Y-16957508D02*
X12389229Y-16967031D01*
X12389229Y-16967031D02*
X12398753Y-16986079D01*
X12398753Y-16986079D02*
X12398753Y-16995603D01*
X12398753Y-16995603D02*
X12389229Y-17014650D01*
X12389229Y-17014650D02*
X12379705Y-17024174D01*
X12379705Y-17024174D02*
X12360658Y-17033698D01*
X12360658Y-17033698D02*
X12322562Y-17033698D01*
X12322562Y-17033698D02*
X12303515Y-17043222D01*
X12303515Y-17043222D02*
X12293991Y-17052746D01*
X12293991Y-17052746D02*
X12284467Y-17071793D01*
X12284467Y-17071793D02*
X12284467Y-17109889D01*
X12284467Y-17109889D02*
X12293991Y-17128936D01*
X12293991Y-17128936D02*
X12303515Y-17138460D01*
X12303515Y-17138460D02*
X12322562Y-17147984D01*
X12322562Y-17147984D02*
X12360658Y-17147984D01*
X12360658Y-17147984D02*
X12379705Y-17138460D01*
X12379705Y-17138460D02*
X12389229Y-17128936D01*
X12389229Y-17128936D02*
X12398753Y-17109889D01*
X12398753Y-17109889D02*
X12398753Y-17071793D01*
X12398753Y-17071793D02*
X12389229Y-17052746D01*
X12389229Y-17052746D02*
X12379705Y-17043222D01*
X12379705Y-17043222D02*
X12360658Y-17033698D01*
X12522562Y-16947984D02*
X12541610Y-16947984D01*
X12541610Y-16947984D02*
X12560658Y-16957508D01*
X12560658Y-16957508D02*
X12570182Y-16967031D01*
X12570182Y-16967031D02*
X12579705Y-16986079D01*
X12579705Y-16986079D02*
X12589229Y-17024174D01*
X12589229Y-17024174D02*
X12589229Y-17071793D01*
X12589229Y-17071793D02*
X12579705Y-17109889D01*
X12579705Y-17109889D02*
X12570182Y-17128936D01*
X12570182Y-17128936D02*
X12560658Y-17138460D01*
X12560658Y-17138460D02*
X12541610Y-17147984D01*
X12541610Y-17147984D02*
X12522562Y-17147984D01*
X12522562Y-17147984D02*
X12503515Y-17138460D01*
X12503515Y-17138460D02*
X12493991Y-17128936D01*
X12493991Y-17128936D02*
X12484467Y-17109889D01*
X12484467Y-17109889D02*
X12474943Y-17071793D01*
X12474943Y-17071793D02*
X12474943Y-17024174D01*
X12474943Y-17024174D02*
X12484467Y-16986079D01*
X12484467Y-16986079D02*
X12493991Y-16967031D01*
X12493991Y-16967031D02*
X12503515Y-16957508D01*
X12503515Y-16957508D02*
X12522562Y-16947984D01*
X12713039Y-16947984D02*
X12732086Y-16947984D01*
X12732086Y-16947984D02*
X12751134Y-16957508D01*
X12751134Y-16957508D02*
X12760658Y-16967031D01*
X12760658Y-16967031D02*
X12770182Y-16986079D01*
X12770182Y-16986079D02*
X12779705Y-17024174D01*
X12779705Y-17024174D02*
X12779705Y-17071793D01*
X12779705Y-17071793D02*
X12770182Y-17109889D01*
X12770182Y-17109889D02*
X12760658Y-17128936D01*
X12760658Y-17128936D02*
X12751134Y-17138460D01*
X12751134Y-17138460D02*
X12732086Y-17147984D01*
X12732086Y-17147984D02*
X12713039Y-17147984D01*
X12713039Y-17147984D02*
X12693991Y-17138460D01*
X12693991Y-17138460D02*
X12684467Y-17128936D01*
X12684467Y-17128936D02*
X12674943Y-17109889D01*
X12674943Y-17109889D02*
X12665420Y-17071793D01*
X12665420Y-17071793D02*
X12665420Y-17024174D01*
X12665420Y-17024174D02*
X12674943Y-16986079D01*
X12674943Y-16986079D02*
X12684467Y-16967031D01*
X12684467Y-16967031D02*
X12693991Y-16957508D01*
X12693991Y-16957508D02*
X12713039Y-16947984D01*
X12865420Y-17147984D02*
X12865420Y-17014650D01*
X12865420Y-17033698D02*
X12874943Y-17024174D01*
X12874943Y-17024174D02*
X12893991Y-17014650D01*
X12893991Y-17014650D02*
X12922563Y-17014650D01*
X12922563Y-17014650D02*
X12941610Y-17024174D01*
X12941610Y-17024174D02*
X12951134Y-17043222D01*
X12951134Y-17043222D02*
X12951134Y-17147984D01*
X12951134Y-17043222D02*
X12960658Y-17024174D01*
X12960658Y-17024174D02*
X12979705Y-17014650D01*
X12979705Y-17014650D02*
X13008277Y-17014650D01*
X13008277Y-17014650D02*
X13027324Y-17024174D01*
X13027324Y-17024174D02*
X13036848Y-17043222D01*
X13036848Y-17043222D02*
X13036848Y-17147984D01*
X13132086Y-17147984D02*
X13132086Y-17014650D01*
X13132086Y-17033698D02*
X13141610Y-17024174D01*
X13141610Y-17024174D02*
X13160658Y-17014650D01*
X13160658Y-17014650D02*
X13189229Y-17014650D01*
X13189229Y-17014650D02*
X13208277Y-17024174D01*
X13208277Y-17024174D02*
X13217801Y-17043222D01*
X13217801Y-17043222D02*
X13217801Y-17147984D01*
X13217801Y-17043222D02*
X13227324Y-17024174D01*
X13227324Y-17024174D02*
X13246372Y-17014650D01*
X13246372Y-17014650D02*
X13274943Y-17014650D01*
X13274943Y-17014650D02*
X13293991Y-17024174D01*
X13293991Y-17024174D02*
X13303515Y-17043222D01*
X13303515Y-17043222D02*
X13303515Y-17147984D01*
X13693991Y-16938460D02*
X13522563Y-17195603D01*
X13951134Y-16947984D02*
X13970182Y-16947984D01*
X13970182Y-16947984D02*
X13989229Y-16957508D01*
X13989229Y-16957508D02*
X13998753Y-16967031D01*
X13998753Y-16967031D02*
X14008277Y-16986079D01*
X14008277Y-16986079D02*
X14017801Y-17024174D01*
X14017801Y-17024174D02*
X14017801Y-17071793D01*
X14017801Y-17071793D02*
X14008277Y-17109889D01*
X14008277Y-17109889D02*
X13998753Y-17128936D01*
X13998753Y-17128936D02*
X13989229Y-17138460D01*
X13989229Y-17138460D02*
X13970182Y-17147984D01*
X13970182Y-17147984D02*
X13951134Y-17147984D01*
X13951134Y-17147984D02*
X13932086Y-17138460D01*
X13932086Y-17138460D02*
X13922563Y-17128936D01*
X13922563Y-17128936D02*
X13913039Y-17109889D01*
X13913039Y-17109889D02*
X13903515Y-17071793D01*
X13903515Y-17071793D02*
X13903515Y-17024174D01*
X13903515Y-17024174D02*
X13913039Y-16986079D01*
X13913039Y-16986079D02*
X13922563Y-16967031D01*
X13922563Y-16967031D02*
X13932086Y-16957508D01*
X13932086Y-16957508D02*
X13951134Y-16947984D01*
X14103515Y-17128936D02*
X14113039Y-17138460D01*
X14113039Y-17138460D02*
X14103515Y-17147984D01*
X14103515Y-17147984D02*
X14093991Y-17138460D01*
X14093991Y-17138460D02*
X14103515Y-17128936D01*
X14103515Y-17128936D02*
X14103515Y-17147984D01*
X14236848Y-16947984D02*
X14255896Y-16947984D01*
X14255896Y-16947984D02*
X14274944Y-16957508D01*
X14274944Y-16957508D02*
X14284467Y-16967031D01*
X14284467Y-16967031D02*
X14293991Y-16986079D01*
X14293991Y-16986079D02*
X14303515Y-17024174D01*
X14303515Y-17024174D02*
X14303515Y-17071793D01*
X14303515Y-17071793D02*
X14293991Y-17109889D01*
X14293991Y-17109889D02*
X14284467Y-17128936D01*
X14284467Y-17128936D02*
X14274944Y-17138460D01*
X14274944Y-17138460D02*
X14255896Y-17147984D01*
X14255896Y-17147984D02*
X14236848Y-17147984D01*
X14236848Y-17147984D02*
X14217801Y-17138460D01*
X14217801Y-17138460D02*
X14208277Y-17128936D01*
X14208277Y-17128936D02*
X14198753Y-17109889D01*
X14198753Y-17109889D02*
X14189229Y-17071793D01*
X14189229Y-17071793D02*
X14189229Y-17024174D01*
X14189229Y-17024174D02*
X14198753Y-16986079D01*
X14198753Y-16986079D02*
X14208277Y-16967031D01*
X14208277Y-16967031D02*
X14217801Y-16957508D01*
X14217801Y-16957508D02*
X14236848Y-16947984D01*
X14370182Y-16947984D02*
X14493991Y-16947984D01*
X14493991Y-16947984D02*
X14427325Y-17024174D01*
X14427325Y-17024174D02*
X14455896Y-17024174D01*
X14455896Y-17024174D02*
X14474944Y-17033698D01*
X14474944Y-17033698D02*
X14484467Y-17043222D01*
X14484467Y-17043222D02*
X14493991Y-17062270D01*
X14493991Y-17062270D02*
X14493991Y-17109889D01*
X14493991Y-17109889D02*
X14484467Y-17128936D01*
X14484467Y-17128936D02*
X14474944Y-17138460D01*
X14474944Y-17138460D02*
X14455896Y-17147984D01*
X14455896Y-17147984D02*
X14398753Y-17147984D01*
X14398753Y-17147984D02*
X14379706Y-17138460D01*
X14379706Y-17138460D02*
X14370182Y-17128936D01*
X14684467Y-17147984D02*
X14570182Y-17147984D01*
X14627325Y-17147984D02*
X14627325Y-16947984D01*
X14627325Y-16947984D02*
X14608277Y-16976555D01*
X14608277Y-16976555D02*
X14589229Y-16995603D01*
X14589229Y-16995603D02*
X14570182Y-17005127D01*
X14865420Y-16947984D02*
X14770182Y-16947984D01*
X14770182Y-16947984D02*
X14760658Y-17043222D01*
X14760658Y-17043222D02*
X14770182Y-17033698D01*
X14770182Y-17033698D02*
X14789229Y-17024174D01*
X14789229Y-17024174D02*
X14836848Y-17024174D01*
X14836848Y-17024174D02*
X14855896Y-17033698D01*
X14855896Y-17033698D02*
X14865420Y-17043222D01*
X14865420Y-17043222D02*
X14874944Y-17062270D01*
X14874944Y-17062270D02*
X14874944Y-17109889D01*
X14874944Y-17109889D02*
X14865420Y-17128936D01*
X14865420Y-17128936D02*
X14855896Y-17138460D01*
X14855896Y-17138460D02*
X14836848Y-17147984D01*
X14836848Y-17147984D02*
X14789229Y-17147984D01*
X14789229Y-17147984D02*
X14770182Y-17138460D01*
X14770182Y-17138460D02*
X14760658Y-17128936D01*
X14951134Y-16947984D02*
X14951134Y-16986079D01*
X15027325Y-16947984D02*
X15027325Y-16986079D01*
X15322563Y-17224174D02*
X15313039Y-17214650D01*
X15313039Y-17214650D02*
X15293991Y-17186079D01*
X15293991Y-17186079D02*
X15284468Y-17167031D01*
X15284468Y-17167031D02*
X15274944Y-17138460D01*
X15274944Y-17138460D02*
X15265420Y-17090841D01*
X15265420Y-17090841D02*
X15265420Y-17052746D01*
X15265420Y-17052746D02*
X15274944Y-17005127D01*
X15274944Y-17005127D02*
X15284468Y-16976555D01*
X15284468Y-16976555D02*
X15293991Y-16957508D01*
X15293991Y-16957508D02*
X15313039Y-16928936D01*
X15313039Y-16928936D02*
X15322563Y-16919412D01*
X15503515Y-17147984D02*
X15389229Y-17147984D01*
X15446372Y-17147984D02*
X15446372Y-16947984D01*
X15446372Y-16947984D02*
X15427325Y-16976555D01*
X15427325Y-16976555D02*
X15408277Y-16995603D01*
X15408277Y-16995603D02*
X15389229Y-17005127D01*
X15617801Y-17033698D02*
X15598753Y-17024174D01*
X15598753Y-17024174D02*
X15589229Y-17014650D01*
X15589229Y-17014650D02*
X15579706Y-16995603D01*
X15579706Y-16995603D02*
X15579706Y-16986079D01*
X15579706Y-16986079D02*
X15589229Y-16967031D01*
X15589229Y-16967031D02*
X15598753Y-16957508D01*
X15598753Y-16957508D02*
X15617801Y-16947984D01*
X15617801Y-16947984D02*
X15655896Y-16947984D01*
X15655896Y-16947984D02*
X15674944Y-16957508D01*
X15674944Y-16957508D02*
X15684468Y-16967031D01*
X15684468Y-16967031D02*
X15693991Y-16986079D01*
X15693991Y-16986079D02*
X15693991Y-16995603D01*
X15693991Y-16995603D02*
X15684468Y-17014650D01*
X15684468Y-17014650D02*
X15674944Y-17024174D01*
X15674944Y-17024174D02*
X15655896Y-17033698D01*
X15655896Y-17033698D02*
X15617801Y-17033698D01*
X15617801Y-17033698D02*
X15598753Y-17043222D01*
X15598753Y-17043222D02*
X15589229Y-17052746D01*
X15589229Y-17052746D02*
X15579706Y-17071793D01*
X15579706Y-17071793D02*
X15579706Y-17109889D01*
X15579706Y-17109889D02*
X15589229Y-17128936D01*
X15589229Y-17128936D02*
X15598753Y-17138460D01*
X15598753Y-17138460D02*
X15617801Y-17147984D01*
X15617801Y-17147984D02*
X15655896Y-17147984D01*
X15655896Y-17147984D02*
X15674944Y-17138460D01*
X15674944Y-17138460D02*
X15684468Y-17128936D01*
X15684468Y-17128936D02*
X15693991Y-17109889D01*
X15693991Y-17109889D02*
X15693991Y-17071793D01*
X15693991Y-17071793D02*
X15684468Y-17052746D01*
X15684468Y-17052746D02*
X15674944Y-17043222D01*
X15674944Y-17043222D02*
X15655896Y-17033698D01*
X15932087Y-17147984D02*
X15932087Y-16947984D01*
X16017801Y-17147984D02*
X16017801Y-17043222D01*
X16017801Y-17043222D02*
X16008277Y-17024174D01*
X16008277Y-17024174D02*
X15989230Y-17014650D01*
X15989230Y-17014650D02*
X15960658Y-17014650D01*
X15960658Y-17014650D02*
X15941610Y-17024174D01*
X15941610Y-17024174D02*
X15932087Y-17033698D01*
X16141610Y-17147984D02*
X16122563Y-17138460D01*
X16122563Y-17138460D02*
X16113039Y-17128936D01*
X16113039Y-17128936D02*
X16103515Y-17109889D01*
X16103515Y-17109889D02*
X16103515Y-17052746D01*
X16103515Y-17052746D02*
X16113039Y-17033698D01*
X16113039Y-17033698D02*
X16122563Y-17024174D01*
X16122563Y-17024174D02*
X16141610Y-17014650D01*
X16141610Y-17014650D02*
X16170182Y-17014650D01*
X16170182Y-17014650D02*
X16189230Y-17024174D01*
X16189230Y-17024174D02*
X16198753Y-17033698D01*
X16198753Y-17033698D02*
X16208277Y-17052746D01*
X16208277Y-17052746D02*
X16208277Y-17109889D01*
X16208277Y-17109889D02*
X16198753Y-17128936D01*
X16198753Y-17128936D02*
X16189230Y-17138460D01*
X16189230Y-17138460D02*
X16170182Y-17147984D01*
X16170182Y-17147984D02*
X16141610Y-17147984D01*
X16322563Y-17147984D02*
X16303515Y-17138460D01*
X16303515Y-17138460D02*
X16293991Y-17119412D01*
X16293991Y-17119412D02*
X16293991Y-16947984D01*
X16474944Y-17138460D02*
X16455896Y-17147984D01*
X16455896Y-17147984D02*
X16417801Y-17147984D01*
X16417801Y-17147984D02*
X16398753Y-17138460D01*
X16398753Y-17138460D02*
X16389230Y-17119412D01*
X16389230Y-17119412D02*
X16389230Y-17043222D01*
X16389230Y-17043222D02*
X16398753Y-17024174D01*
X16398753Y-17024174D02*
X16417801Y-17014650D01*
X16417801Y-17014650D02*
X16455896Y-17014650D01*
X16455896Y-17014650D02*
X16474944Y-17024174D01*
X16474944Y-17024174D02*
X16484468Y-17043222D01*
X16484468Y-17043222D02*
X16484468Y-17062270D01*
X16484468Y-17062270D02*
X16389230Y-17081317D01*
X16560658Y-17138460D02*
X16579706Y-17147984D01*
X16579706Y-17147984D02*
X16617801Y-17147984D01*
X16617801Y-17147984D02*
X16636849Y-17138460D01*
X16636849Y-17138460D02*
X16646372Y-17119412D01*
X16646372Y-17119412D02*
X16646372Y-17109889D01*
X16646372Y-17109889D02*
X16636849Y-17090841D01*
X16636849Y-17090841D02*
X16617801Y-17081317D01*
X16617801Y-17081317D02*
X16589230Y-17081317D01*
X16589230Y-17081317D02*
X16570182Y-17071793D01*
X16570182Y-17071793D02*
X16560658Y-17052746D01*
X16560658Y-17052746D02*
X16560658Y-17043222D01*
X16560658Y-17043222D02*
X16570182Y-17024174D01*
X16570182Y-17024174D02*
X16589230Y-17014650D01*
X16589230Y-17014650D02*
X16617801Y-17014650D01*
X16617801Y-17014650D02*
X16636849Y-17024174D01*
X16713039Y-17224174D02*
X16722563Y-17214650D01*
X16722563Y-17214650D02*
X16741611Y-17186079D01*
X16741611Y-17186079D02*
X16751134Y-17167031D01*
X16751134Y-17167031D02*
X16760658Y-17138460D01*
X16760658Y-17138460D02*
X16770182Y-17090841D01*
X16770182Y-17090841D02*
X16770182Y-17052746D01*
X16770182Y-17052746D02*
X16760658Y-17005127D01*
X16760658Y-17005127D02*
X16751134Y-16976555D01*
X16751134Y-16976555D02*
X16741611Y-16957508D01*
X16741611Y-16957508D02*
X16722563Y-16928936D01*
X16722563Y-16928936D02*
X16713039Y-16919412D01*
D12*
X11702500Y-17275500D02*
X11702500Y-17365500D01*
X11657500Y-17320500D02*
X11747500Y-17320500D01*
D11*
X12046372Y-17211984D02*
X12065420Y-17211984D01*
X12065420Y-17211984D02*
X12084467Y-17221508D01*
X12084467Y-17221508D02*
X12093991Y-17231031D01*
X12093991Y-17231031D02*
X12103515Y-17250079D01*
X12103515Y-17250079D02*
X12113039Y-17288174D01*
X12113039Y-17288174D02*
X12113039Y-17335793D01*
X12113039Y-17335793D02*
X12103515Y-17373889D01*
X12103515Y-17373889D02*
X12093991Y-17392936D01*
X12093991Y-17392936D02*
X12084467Y-17402460D01*
X12084467Y-17402460D02*
X12065420Y-17411984D01*
X12065420Y-17411984D02*
X12046372Y-17411984D01*
X12046372Y-17411984D02*
X12027324Y-17402460D01*
X12027324Y-17402460D02*
X12017801Y-17392936D01*
X12017801Y-17392936D02*
X12008277Y-17373889D01*
X12008277Y-17373889D02*
X11998753Y-17335793D01*
X11998753Y-17335793D02*
X11998753Y-17288174D01*
X11998753Y-17288174D02*
X12008277Y-17250079D01*
X12008277Y-17250079D02*
X12017801Y-17231031D01*
X12017801Y-17231031D02*
X12027324Y-17221508D01*
X12027324Y-17221508D02*
X12046372Y-17211984D01*
X12198753Y-17392936D02*
X12208277Y-17402460D01*
X12208277Y-17402460D02*
X12198753Y-17411984D01*
X12198753Y-17411984D02*
X12189229Y-17402460D01*
X12189229Y-17402460D02*
X12198753Y-17392936D01*
X12198753Y-17392936D02*
X12198753Y-17411984D01*
X12303515Y-17411984D02*
X12341610Y-17411984D01*
X12341610Y-17411984D02*
X12360658Y-17402460D01*
X12360658Y-17402460D02*
X12370182Y-17392936D01*
X12370182Y-17392936D02*
X12389229Y-17364365D01*
X12389229Y-17364365D02*
X12398753Y-17326270D01*
X12398753Y-17326270D02*
X12398753Y-17250079D01*
X12398753Y-17250079D02*
X12389229Y-17231031D01*
X12389229Y-17231031D02*
X12379705Y-17221508D01*
X12379705Y-17221508D02*
X12360658Y-17211984D01*
X12360658Y-17211984D02*
X12322562Y-17211984D01*
X12322562Y-17211984D02*
X12303515Y-17221508D01*
X12303515Y-17221508D02*
X12293991Y-17231031D01*
X12293991Y-17231031D02*
X12284467Y-17250079D01*
X12284467Y-17250079D02*
X12284467Y-17297698D01*
X12284467Y-17297698D02*
X12293991Y-17316746D01*
X12293991Y-17316746D02*
X12303515Y-17326270D01*
X12303515Y-17326270D02*
X12322562Y-17335793D01*
X12322562Y-17335793D02*
X12360658Y-17335793D01*
X12360658Y-17335793D02*
X12379705Y-17326270D01*
X12379705Y-17326270D02*
X12389229Y-17316746D01*
X12389229Y-17316746D02*
X12398753Y-17297698D01*
X12522562Y-17211984D02*
X12541610Y-17211984D01*
X12541610Y-17211984D02*
X12560658Y-17221508D01*
X12560658Y-17221508D02*
X12570182Y-17231031D01*
X12570182Y-17231031D02*
X12579705Y-17250079D01*
X12579705Y-17250079D02*
X12589229Y-17288174D01*
X12589229Y-17288174D02*
X12589229Y-17335793D01*
X12589229Y-17335793D02*
X12579705Y-17373889D01*
X12579705Y-17373889D02*
X12570182Y-17392936D01*
X12570182Y-17392936D02*
X12560658Y-17402460D01*
X12560658Y-17402460D02*
X12541610Y-17411984D01*
X12541610Y-17411984D02*
X12522562Y-17411984D01*
X12522562Y-17411984D02*
X12503515Y-17402460D01*
X12503515Y-17402460D02*
X12493991Y-17392936D01*
X12493991Y-17392936D02*
X12484467Y-17373889D01*
X12484467Y-17373889D02*
X12474943Y-17335793D01*
X12474943Y-17335793D02*
X12474943Y-17288174D01*
X12474943Y-17288174D02*
X12484467Y-17250079D01*
X12484467Y-17250079D02*
X12493991Y-17231031D01*
X12493991Y-17231031D02*
X12503515Y-17221508D01*
X12503515Y-17221508D02*
X12522562Y-17211984D01*
X12713039Y-17211984D02*
X12732086Y-17211984D01*
X12732086Y-17211984D02*
X12751134Y-17221508D01*
X12751134Y-17221508D02*
X12760658Y-17231031D01*
X12760658Y-17231031D02*
X12770182Y-17250079D01*
X12770182Y-17250079D02*
X12779705Y-17288174D01*
X12779705Y-17288174D02*
X12779705Y-17335793D01*
X12779705Y-17335793D02*
X12770182Y-17373889D01*
X12770182Y-17373889D02*
X12760658Y-17392936D01*
X12760658Y-17392936D02*
X12751134Y-17402460D01*
X12751134Y-17402460D02*
X12732086Y-17411984D01*
X12732086Y-17411984D02*
X12713039Y-17411984D01*
X12713039Y-17411984D02*
X12693991Y-17402460D01*
X12693991Y-17402460D02*
X12684467Y-17392936D01*
X12684467Y-17392936D02*
X12674943Y-17373889D01*
X12674943Y-17373889D02*
X12665420Y-17335793D01*
X12665420Y-17335793D02*
X12665420Y-17288174D01*
X12665420Y-17288174D02*
X12674943Y-17250079D01*
X12674943Y-17250079D02*
X12684467Y-17231031D01*
X12684467Y-17231031D02*
X12693991Y-17221508D01*
X12693991Y-17221508D02*
X12713039Y-17211984D01*
X12865420Y-17411984D02*
X12865420Y-17278650D01*
X12865420Y-17297698D02*
X12874943Y-17288174D01*
X12874943Y-17288174D02*
X12893991Y-17278650D01*
X12893991Y-17278650D02*
X12922563Y-17278650D01*
X12922563Y-17278650D02*
X12941610Y-17288174D01*
X12941610Y-17288174D02*
X12951134Y-17307222D01*
X12951134Y-17307222D02*
X12951134Y-17411984D01*
X12951134Y-17307222D02*
X12960658Y-17288174D01*
X12960658Y-17288174D02*
X12979705Y-17278650D01*
X12979705Y-17278650D02*
X13008277Y-17278650D01*
X13008277Y-17278650D02*
X13027324Y-17288174D01*
X13027324Y-17288174D02*
X13036848Y-17307222D01*
X13036848Y-17307222D02*
X13036848Y-17411984D01*
X13132086Y-17411984D02*
X13132086Y-17278650D01*
X13132086Y-17297698D02*
X13141610Y-17288174D01*
X13141610Y-17288174D02*
X13160658Y-17278650D01*
X13160658Y-17278650D02*
X13189229Y-17278650D01*
X13189229Y-17278650D02*
X13208277Y-17288174D01*
X13208277Y-17288174D02*
X13217801Y-17307222D01*
X13217801Y-17307222D02*
X13217801Y-17411984D01*
X13217801Y-17307222D02*
X13227324Y-17288174D01*
X13227324Y-17288174D02*
X13246372Y-17278650D01*
X13246372Y-17278650D02*
X13274943Y-17278650D01*
X13274943Y-17278650D02*
X13293991Y-17288174D01*
X13293991Y-17288174D02*
X13303515Y-17307222D01*
X13303515Y-17307222D02*
X13303515Y-17411984D01*
X13693991Y-17202460D02*
X13522563Y-17459603D01*
X13951134Y-17211984D02*
X13970182Y-17211984D01*
X13970182Y-17211984D02*
X13989229Y-17221508D01*
X13989229Y-17221508D02*
X13998753Y-17231031D01*
X13998753Y-17231031D02*
X14008277Y-17250079D01*
X14008277Y-17250079D02*
X14017801Y-17288174D01*
X14017801Y-17288174D02*
X14017801Y-17335793D01*
X14017801Y-17335793D02*
X14008277Y-17373889D01*
X14008277Y-17373889D02*
X13998753Y-17392936D01*
X13998753Y-17392936D02*
X13989229Y-17402460D01*
X13989229Y-17402460D02*
X13970182Y-17411984D01*
X13970182Y-17411984D02*
X13951134Y-17411984D01*
X13951134Y-17411984D02*
X13932086Y-17402460D01*
X13932086Y-17402460D02*
X13922563Y-17392936D01*
X13922563Y-17392936D02*
X13913039Y-17373889D01*
X13913039Y-17373889D02*
X13903515Y-17335793D01*
X13903515Y-17335793D02*
X13903515Y-17288174D01*
X13903515Y-17288174D02*
X13913039Y-17250079D01*
X13913039Y-17250079D02*
X13922563Y-17231031D01*
X13922563Y-17231031D02*
X13932086Y-17221508D01*
X13932086Y-17221508D02*
X13951134Y-17211984D01*
X14103515Y-17392936D02*
X14113039Y-17402460D01*
X14113039Y-17402460D02*
X14103515Y-17411984D01*
X14103515Y-17411984D02*
X14093991Y-17402460D01*
X14093991Y-17402460D02*
X14103515Y-17392936D01*
X14103515Y-17392936D02*
X14103515Y-17411984D01*
X14236848Y-17211984D02*
X14255896Y-17211984D01*
X14255896Y-17211984D02*
X14274944Y-17221508D01*
X14274944Y-17221508D02*
X14284467Y-17231031D01*
X14284467Y-17231031D02*
X14293991Y-17250079D01*
X14293991Y-17250079D02*
X14303515Y-17288174D01*
X14303515Y-17288174D02*
X14303515Y-17335793D01*
X14303515Y-17335793D02*
X14293991Y-17373889D01*
X14293991Y-17373889D02*
X14284467Y-17392936D01*
X14284467Y-17392936D02*
X14274944Y-17402460D01*
X14274944Y-17402460D02*
X14255896Y-17411984D01*
X14255896Y-17411984D02*
X14236848Y-17411984D01*
X14236848Y-17411984D02*
X14217801Y-17402460D01*
X14217801Y-17402460D02*
X14208277Y-17392936D01*
X14208277Y-17392936D02*
X14198753Y-17373889D01*
X14198753Y-17373889D02*
X14189229Y-17335793D01*
X14189229Y-17335793D02*
X14189229Y-17288174D01*
X14189229Y-17288174D02*
X14198753Y-17250079D01*
X14198753Y-17250079D02*
X14208277Y-17231031D01*
X14208277Y-17231031D02*
X14217801Y-17221508D01*
X14217801Y-17221508D02*
X14236848Y-17211984D01*
X14370182Y-17211984D02*
X14493991Y-17211984D01*
X14493991Y-17211984D02*
X14427325Y-17288174D01*
X14427325Y-17288174D02*
X14455896Y-17288174D01*
X14455896Y-17288174D02*
X14474944Y-17297698D01*
X14474944Y-17297698D02*
X14484467Y-17307222D01*
X14484467Y-17307222D02*
X14493991Y-17326270D01*
X14493991Y-17326270D02*
X14493991Y-17373889D01*
X14493991Y-17373889D02*
X14484467Y-17392936D01*
X14484467Y-17392936D02*
X14474944Y-17402460D01*
X14474944Y-17402460D02*
X14455896Y-17411984D01*
X14455896Y-17411984D02*
X14398753Y-17411984D01*
X14398753Y-17411984D02*
X14379706Y-17402460D01*
X14379706Y-17402460D02*
X14370182Y-17392936D01*
X14674944Y-17211984D02*
X14579706Y-17211984D01*
X14579706Y-17211984D02*
X14570182Y-17307222D01*
X14570182Y-17307222D02*
X14579706Y-17297698D01*
X14579706Y-17297698D02*
X14598753Y-17288174D01*
X14598753Y-17288174D02*
X14646372Y-17288174D01*
X14646372Y-17288174D02*
X14665420Y-17297698D01*
X14665420Y-17297698D02*
X14674944Y-17307222D01*
X14674944Y-17307222D02*
X14684467Y-17326270D01*
X14684467Y-17326270D02*
X14684467Y-17373889D01*
X14684467Y-17373889D02*
X14674944Y-17392936D01*
X14674944Y-17392936D02*
X14665420Y-17402460D01*
X14665420Y-17402460D02*
X14646372Y-17411984D01*
X14646372Y-17411984D02*
X14598753Y-17411984D01*
X14598753Y-17411984D02*
X14579706Y-17402460D01*
X14579706Y-17402460D02*
X14570182Y-17392936D01*
X14855896Y-17278650D02*
X14855896Y-17411984D01*
X14808277Y-17202460D02*
X14760658Y-17345317D01*
X14760658Y-17345317D02*
X14884467Y-17345317D01*
X14951134Y-17211984D02*
X14951134Y-17250079D01*
X15027325Y-17211984D02*
X15027325Y-17250079D01*
X15322563Y-17488174D02*
X15313039Y-17478650D01*
X15313039Y-17478650D02*
X15293991Y-17450079D01*
X15293991Y-17450079D02*
X15284468Y-17431031D01*
X15284468Y-17431031D02*
X15274944Y-17402460D01*
X15274944Y-17402460D02*
X15265420Y-17354841D01*
X15265420Y-17354841D02*
X15265420Y-17316746D01*
X15265420Y-17316746D02*
X15274944Y-17269127D01*
X15274944Y-17269127D02*
X15284468Y-17240555D01*
X15284468Y-17240555D02*
X15293991Y-17221508D01*
X15293991Y-17221508D02*
X15313039Y-17192936D01*
X15313039Y-17192936D02*
X15322563Y-17183412D01*
X15379706Y-17211984D02*
X15503515Y-17211984D01*
X15503515Y-17211984D02*
X15436848Y-17288174D01*
X15436848Y-17288174D02*
X15465420Y-17288174D01*
X15465420Y-17288174D02*
X15484468Y-17297698D01*
X15484468Y-17297698D02*
X15493991Y-17307222D01*
X15493991Y-17307222D02*
X15503515Y-17326270D01*
X15503515Y-17326270D02*
X15503515Y-17373889D01*
X15503515Y-17373889D02*
X15493991Y-17392936D01*
X15493991Y-17392936D02*
X15484468Y-17402460D01*
X15484468Y-17402460D02*
X15465420Y-17411984D01*
X15465420Y-17411984D02*
X15408277Y-17411984D01*
X15408277Y-17411984D02*
X15389229Y-17402460D01*
X15389229Y-17402460D02*
X15379706Y-17392936D01*
X15579706Y-17231031D02*
X15589229Y-17221508D01*
X15589229Y-17221508D02*
X15608277Y-17211984D01*
X15608277Y-17211984D02*
X15655896Y-17211984D01*
X15655896Y-17211984D02*
X15674944Y-17221508D01*
X15674944Y-17221508D02*
X15684468Y-17231031D01*
X15684468Y-17231031D02*
X15693991Y-17250079D01*
X15693991Y-17250079D02*
X15693991Y-17269127D01*
X15693991Y-17269127D02*
X15684468Y-17297698D01*
X15684468Y-17297698D02*
X15570182Y-17411984D01*
X15570182Y-17411984D02*
X15693991Y-17411984D01*
X15932087Y-17411984D02*
X15932087Y-17211984D01*
X16017801Y-17411984D02*
X16017801Y-17307222D01*
X16017801Y-17307222D02*
X16008277Y-17288174D01*
X16008277Y-17288174D02*
X15989230Y-17278650D01*
X15989230Y-17278650D02*
X15960658Y-17278650D01*
X15960658Y-17278650D02*
X15941610Y-17288174D01*
X15941610Y-17288174D02*
X15932087Y-17297698D01*
X16141610Y-17411984D02*
X16122563Y-17402460D01*
X16122563Y-17402460D02*
X16113039Y-17392936D01*
X16113039Y-17392936D02*
X16103515Y-17373889D01*
X16103515Y-17373889D02*
X16103515Y-17316746D01*
X16103515Y-17316746D02*
X16113039Y-17297698D01*
X16113039Y-17297698D02*
X16122563Y-17288174D01*
X16122563Y-17288174D02*
X16141610Y-17278650D01*
X16141610Y-17278650D02*
X16170182Y-17278650D01*
X16170182Y-17278650D02*
X16189230Y-17288174D01*
X16189230Y-17288174D02*
X16198753Y-17297698D01*
X16198753Y-17297698D02*
X16208277Y-17316746D01*
X16208277Y-17316746D02*
X16208277Y-17373889D01*
X16208277Y-17373889D02*
X16198753Y-17392936D01*
X16198753Y-17392936D02*
X16189230Y-17402460D01*
X16189230Y-17402460D02*
X16170182Y-17411984D01*
X16170182Y-17411984D02*
X16141610Y-17411984D01*
X16322563Y-17411984D02*
X16303515Y-17402460D01*
X16303515Y-17402460D02*
X16293991Y-17383412D01*
X16293991Y-17383412D02*
X16293991Y-17211984D01*
X16474944Y-17402460D02*
X16455896Y-17411984D01*
X16455896Y-17411984D02*
X16417801Y-17411984D01*
X16417801Y-17411984D02*
X16398753Y-17402460D01*
X16398753Y-17402460D02*
X16389230Y-17383412D01*
X16389230Y-17383412D02*
X16389230Y-17307222D01*
X16389230Y-17307222D02*
X16398753Y-17288174D01*
X16398753Y-17288174D02*
X16417801Y-17278650D01*
X16417801Y-17278650D02*
X16455896Y-17278650D01*
X16455896Y-17278650D02*
X16474944Y-17288174D01*
X16474944Y-17288174D02*
X16484468Y-17307222D01*
X16484468Y-17307222D02*
X16484468Y-17326270D01*
X16484468Y-17326270D02*
X16389230Y-17345317D01*
X16560658Y-17402460D02*
X16579706Y-17411984D01*
X16579706Y-17411984D02*
X16617801Y-17411984D01*
X16617801Y-17411984D02*
X16636849Y-17402460D01*
X16636849Y-17402460D02*
X16646372Y-17383412D01*
X16646372Y-17383412D02*
X16646372Y-17373889D01*
X16646372Y-17373889D02*
X16636849Y-17354841D01*
X16636849Y-17354841D02*
X16617801Y-17345317D01*
X16617801Y-17345317D02*
X16589230Y-17345317D01*
X16589230Y-17345317D02*
X16570182Y-17335793D01*
X16570182Y-17335793D02*
X16560658Y-17316746D01*
X16560658Y-17316746D02*
X16560658Y-17307222D01*
X16560658Y-17307222D02*
X16570182Y-17288174D01*
X16570182Y-17288174D02*
X16589230Y-17278650D01*
X16589230Y-17278650D02*
X16617801Y-17278650D01*
X16617801Y-17278650D02*
X16636849Y-17288174D01*
X16713039Y-17488174D02*
X16722563Y-17478650D01*
X16722563Y-17478650D02*
X16741611Y-17450079D01*
X16741611Y-17450079D02*
X16751134Y-17431031D01*
X16751134Y-17431031D02*
X16760658Y-17402460D01*
X16760658Y-17402460D02*
X16770182Y-17354841D01*
X16770182Y-17354841D02*
X16770182Y-17316746D01*
X16770182Y-17316746D02*
X16760658Y-17269127D01*
X16760658Y-17269127D02*
X16751134Y-17240555D01*
X16751134Y-17240555D02*
X16741611Y-17221508D01*
X16741611Y-17221508D02*
X16722563Y-17192936D01*
X16722563Y-17192936D02*
X16713039Y-17183412D01*
D13*
X11732563Y-17620563D02*
X11732563Y-17548437D01*
X11660437Y-17548437D01*
X11660437Y-17620563D01*
X11732563Y-17620563D01*
D11*
X12113039Y-17675984D02*
X11998753Y-17675984D01*
X12055896Y-17675984D02*
X12055896Y-17475984D01*
X12055896Y-17475984D02*
X12036848Y-17504555D01*
X12036848Y-17504555D02*
X12017801Y-17523603D01*
X12017801Y-17523603D02*
X11998753Y-17533127D01*
X12198753Y-17656936D02*
X12208277Y-17666460D01*
X12208277Y-17666460D02*
X12198753Y-17675984D01*
X12198753Y-17675984D02*
X12189229Y-17666460D01*
X12189229Y-17666460D02*
X12198753Y-17656936D01*
X12198753Y-17656936D02*
X12198753Y-17675984D01*
X12332086Y-17475984D02*
X12351134Y-17475984D01*
X12351134Y-17475984D02*
X12370182Y-17485508D01*
X12370182Y-17485508D02*
X12379705Y-17495031D01*
X12379705Y-17495031D02*
X12389229Y-17514079D01*
X12389229Y-17514079D02*
X12398753Y-17552174D01*
X12398753Y-17552174D02*
X12398753Y-17599793D01*
X12398753Y-17599793D02*
X12389229Y-17637889D01*
X12389229Y-17637889D02*
X12379705Y-17656936D01*
X12379705Y-17656936D02*
X12370182Y-17666460D01*
X12370182Y-17666460D02*
X12351134Y-17675984D01*
X12351134Y-17675984D02*
X12332086Y-17675984D01*
X12332086Y-17675984D02*
X12313039Y-17666460D01*
X12313039Y-17666460D02*
X12303515Y-17656936D01*
X12303515Y-17656936D02*
X12293991Y-17637889D01*
X12293991Y-17637889D02*
X12284467Y-17599793D01*
X12284467Y-17599793D02*
X12284467Y-17552174D01*
X12284467Y-17552174D02*
X12293991Y-17514079D01*
X12293991Y-17514079D02*
X12303515Y-17495031D01*
X12303515Y-17495031D02*
X12313039Y-17485508D01*
X12313039Y-17485508D02*
X12332086Y-17475984D01*
X12474943Y-17495031D02*
X12484467Y-17485508D01*
X12484467Y-17485508D02*
X12503515Y-17475984D01*
X12503515Y-17475984D02*
X12551134Y-17475984D01*
X12551134Y-17475984D02*
X12570182Y-17485508D01*
X12570182Y-17485508D02*
X12579705Y-17495031D01*
X12579705Y-17495031D02*
X12589229Y-17514079D01*
X12589229Y-17514079D02*
X12589229Y-17533127D01*
X12589229Y-17533127D02*
X12579705Y-17561698D01*
X12579705Y-17561698D02*
X12465420Y-17675984D01*
X12465420Y-17675984D02*
X12589229Y-17675984D01*
X12713039Y-17475984D02*
X12732086Y-17475984D01*
X12732086Y-17475984D02*
X12751134Y-17485508D01*
X12751134Y-17485508D02*
X12760658Y-17495031D01*
X12760658Y-17495031D02*
X12770182Y-17514079D01*
X12770182Y-17514079D02*
X12779705Y-17552174D01*
X12779705Y-17552174D02*
X12779705Y-17599793D01*
X12779705Y-17599793D02*
X12770182Y-17637889D01*
X12770182Y-17637889D02*
X12760658Y-17656936D01*
X12760658Y-17656936D02*
X12751134Y-17666460D01*
X12751134Y-17666460D02*
X12732086Y-17675984D01*
X12732086Y-17675984D02*
X12713039Y-17675984D01*
X12713039Y-17675984D02*
X12693991Y-17666460D01*
X12693991Y-17666460D02*
X12684467Y-17656936D01*
X12684467Y-17656936D02*
X12674943Y-17637889D01*
X12674943Y-17637889D02*
X12665420Y-17599793D01*
X12665420Y-17599793D02*
X12665420Y-17552174D01*
X12665420Y-17552174D02*
X12674943Y-17514079D01*
X12674943Y-17514079D02*
X12684467Y-17495031D01*
X12684467Y-17495031D02*
X12693991Y-17485508D01*
X12693991Y-17485508D02*
X12713039Y-17475984D01*
X12865420Y-17675984D02*
X12865420Y-17542650D01*
X12865420Y-17561698D02*
X12874943Y-17552174D01*
X12874943Y-17552174D02*
X12893991Y-17542650D01*
X12893991Y-17542650D02*
X12922563Y-17542650D01*
X12922563Y-17542650D02*
X12941610Y-17552174D01*
X12941610Y-17552174D02*
X12951134Y-17571222D01*
X12951134Y-17571222D02*
X12951134Y-17675984D01*
X12951134Y-17571222D02*
X12960658Y-17552174D01*
X12960658Y-17552174D02*
X12979705Y-17542650D01*
X12979705Y-17542650D02*
X13008277Y-17542650D01*
X13008277Y-17542650D02*
X13027324Y-17552174D01*
X13027324Y-17552174D02*
X13036848Y-17571222D01*
X13036848Y-17571222D02*
X13036848Y-17675984D01*
X13132086Y-17675984D02*
X13132086Y-17542650D01*
X13132086Y-17561698D02*
X13141610Y-17552174D01*
X13141610Y-17552174D02*
X13160658Y-17542650D01*
X13160658Y-17542650D02*
X13189229Y-17542650D01*
X13189229Y-17542650D02*
X13208277Y-17552174D01*
X13208277Y-17552174D02*
X13217801Y-17571222D01*
X13217801Y-17571222D02*
X13217801Y-17675984D01*
X13217801Y-17571222D02*
X13227324Y-17552174D01*
X13227324Y-17552174D02*
X13246372Y-17542650D01*
X13246372Y-17542650D02*
X13274943Y-17542650D01*
X13274943Y-17542650D02*
X13293991Y-17552174D01*
X13293991Y-17552174D02*
X13303515Y-17571222D01*
X13303515Y-17571222D02*
X13303515Y-17675984D01*
X13693991Y-17466460D02*
X13522563Y-17723603D01*
X13951134Y-17475984D02*
X13970182Y-17475984D01*
X13970182Y-17475984D02*
X13989229Y-17485508D01*
X13989229Y-17485508D02*
X13998753Y-17495031D01*
X13998753Y-17495031D02*
X14008277Y-17514079D01*
X14008277Y-17514079D02*
X14017801Y-17552174D01*
X14017801Y-17552174D02*
X14017801Y-17599793D01*
X14017801Y-17599793D02*
X14008277Y-17637889D01*
X14008277Y-17637889D02*
X13998753Y-17656936D01*
X13998753Y-17656936D02*
X13989229Y-17666460D01*
X13989229Y-17666460D02*
X13970182Y-17675984D01*
X13970182Y-17675984D02*
X13951134Y-17675984D01*
X13951134Y-17675984D02*
X13932086Y-17666460D01*
X13932086Y-17666460D02*
X13922563Y-17656936D01*
X13922563Y-17656936D02*
X13913039Y-17637889D01*
X13913039Y-17637889D02*
X13903515Y-17599793D01*
X13903515Y-17599793D02*
X13903515Y-17552174D01*
X13903515Y-17552174D02*
X13913039Y-17514079D01*
X13913039Y-17514079D02*
X13922563Y-17495031D01*
X13922563Y-17495031D02*
X13932086Y-17485508D01*
X13932086Y-17485508D02*
X13951134Y-17475984D01*
X14103515Y-17656936D02*
X14113039Y-17666460D01*
X14113039Y-17666460D02*
X14103515Y-17675984D01*
X14103515Y-17675984D02*
X14093991Y-17666460D01*
X14093991Y-17666460D02*
X14103515Y-17656936D01*
X14103515Y-17656936D02*
X14103515Y-17675984D01*
X14236848Y-17475984D02*
X14255896Y-17475984D01*
X14255896Y-17475984D02*
X14274944Y-17485508D01*
X14274944Y-17485508D02*
X14284467Y-17495031D01*
X14284467Y-17495031D02*
X14293991Y-17514079D01*
X14293991Y-17514079D02*
X14303515Y-17552174D01*
X14303515Y-17552174D02*
X14303515Y-17599793D01*
X14303515Y-17599793D02*
X14293991Y-17637889D01*
X14293991Y-17637889D02*
X14284467Y-17656936D01*
X14284467Y-17656936D02*
X14274944Y-17666460D01*
X14274944Y-17666460D02*
X14255896Y-17675984D01*
X14255896Y-17675984D02*
X14236848Y-17675984D01*
X14236848Y-17675984D02*
X14217801Y-17666460D01*
X14217801Y-17666460D02*
X14208277Y-17656936D01*
X14208277Y-17656936D02*
X14198753Y-17637889D01*
X14198753Y-17637889D02*
X14189229Y-17599793D01*
X14189229Y-17599793D02*
X14189229Y-17552174D01*
X14189229Y-17552174D02*
X14198753Y-17514079D01*
X14198753Y-17514079D02*
X14208277Y-17495031D01*
X14208277Y-17495031D02*
X14217801Y-17485508D01*
X14217801Y-17485508D02*
X14236848Y-17475984D01*
X14474944Y-17542650D02*
X14474944Y-17675984D01*
X14427325Y-17466460D02*
X14379706Y-17609317D01*
X14379706Y-17609317D02*
X14503515Y-17609317D01*
X14617801Y-17475984D02*
X14636848Y-17475984D01*
X14636848Y-17475984D02*
X14655896Y-17485508D01*
X14655896Y-17485508D02*
X14665420Y-17495031D01*
X14665420Y-17495031D02*
X14674944Y-17514079D01*
X14674944Y-17514079D02*
X14684467Y-17552174D01*
X14684467Y-17552174D02*
X14684467Y-17599793D01*
X14684467Y-17599793D02*
X14674944Y-17637889D01*
X14674944Y-17637889D02*
X14665420Y-17656936D01*
X14665420Y-17656936D02*
X14655896Y-17666460D01*
X14655896Y-17666460D02*
X14636848Y-17675984D01*
X14636848Y-17675984D02*
X14617801Y-17675984D01*
X14617801Y-17675984D02*
X14598753Y-17666460D01*
X14598753Y-17666460D02*
X14589229Y-17656936D01*
X14589229Y-17656936D02*
X14579706Y-17637889D01*
X14579706Y-17637889D02*
X14570182Y-17599793D01*
X14570182Y-17599793D02*
X14570182Y-17552174D01*
X14570182Y-17552174D02*
X14579706Y-17514079D01*
X14579706Y-17514079D02*
X14589229Y-17495031D01*
X14589229Y-17495031D02*
X14598753Y-17485508D01*
X14598753Y-17485508D02*
X14617801Y-17475984D01*
X14760658Y-17495031D02*
X14770182Y-17485508D01*
X14770182Y-17485508D02*
X14789229Y-17475984D01*
X14789229Y-17475984D02*
X14836848Y-17475984D01*
X14836848Y-17475984D02*
X14855896Y-17485508D01*
X14855896Y-17485508D02*
X14865420Y-17495031D01*
X14865420Y-17495031D02*
X14874944Y-17514079D01*
X14874944Y-17514079D02*
X14874944Y-17533127D01*
X14874944Y-17533127D02*
X14865420Y-17561698D01*
X14865420Y-17561698D02*
X14751134Y-17675984D01*
X14751134Y-17675984D02*
X14874944Y-17675984D01*
X14951134Y-17475984D02*
X14951134Y-17514079D01*
X15027325Y-17475984D02*
X15027325Y-17514079D01*
X15322563Y-17752174D02*
X15313039Y-17742650D01*
X15313039Y-17742650D02*
X15293991Y-17714079D01*
X15293991Y-17714079D02*
X15284468Y-17695031D01*
X15284468Y-17695031D02*
X15274944Y-17666460D01*
X15274944Y-17666460D02*
X15265420Y-17618841D01*
X15265420Y-17618841D02*
X15265420Y-17580746D01*
X15265420Y-17580746D02*
X15274944Y-17533127D01*
X15274944Y-17533127D02*
X15284468Y-17504555D01*
X15284468Y-17504555D02*
X15293991Y-17485508D01*
X15293991Y-17485508D02*
X15313039Y-17456936D01*
X15313039Y-17456936D02*
X15322563Y-17447412D01*
X15484468Y-17542650D02*
X15484468Y-17675984D01*
X15436848Y-17466460D02*
X15389229Y-17609317D01*
X15389229Y-17609317D02*
X15513039Y-17609317D01*
X15741610Y-17675984D02*
X15741610Y-17475984D01*
X15827325Y-17675984D02*
X15827325Y-17571222D01*
X15827325Y-17571222D02*
X15817801Y-17552174D01*
X15817801Y-17552174D02*
X15798753Y-17542650D01*
X15798753Y-17542650D02*
X15770182Y-17542650D01*
X15770182Y-17542650D02*
X15751134Y-17552174D01*
X15751134Y-17552174D02*
X15741610Y-17561698D01*
X15951134Y-17675984D02*
X15932087Y-17666460D01*
X15932087Y-17666460D02*
X15922563Y-17656936D01*
X15922563Y-17656936D02*
X15913039Y-17637889D01*
X15913039Y-17637889D02*
X15913039Y-17580746D01*
X15913039Y-17580746D02*
X15922563Y-17561698D01*
X15922563Y-17561698D02*
X15932087Y-17552174D01*
X15932087Y-17552174D02*
X15951134Y-17542650D01*
X15951134Y-17542650D02*
X15979706Y-17542650D01*
X15979706Y-17542650D02*
X15998753Y-17552174D01*
X15998753Y-17552174D02*
X16008277Y-17561698D01*
X16008277Y-17561698D02*
X16017801Y-17580746D01*
X16017801Y-17580746D02*
X16017801Y-17637889D01*
X16017801Y-17637889D02*
X16008277Y-17656936D01*
X16008277Y-17656936D02*
X15998753Y-17666460D01*
X15998753Y-17666460D02*
X15979706Y-17675984D01*
X15979706Y-17675984D02*
X15951134Y-17675984D01*
X16132087Y-17675984D02*
X16113039Y-17666460D01*
X16113039Y-17666460D02*
X16103515Y-17647412D01*
X16103515Y-17647412D02*
X16103515Y-17475984D01*
X16284468Y-17666460D02*
X16265420Y-17675984D01*
X16265420Y-17675984D02*
X16227325Y-17675984D01*
X16227325Y-17675984D02*
X16208277Y-17666460D01*
X16208277Y-17666460D02*
X16198753Y-17647412D01*
X16198753Y-17647412D02*
X16198753Y-17571222D01*
X16198753Y-17571222D02*
X16208277Y-17552174D01*
X16208277Y-17552174D02*
X16227325Y-17542650D01*
X16227325Y-17542650D02*
X16265420Y-17542650D01*
X16265420Y-17542650D02*
X16284468Y-17552174D01*
X16284468Y-17552174D02*
X16293991Y-17571222D01*
X16293991Y-17571222D02*
X16293991Y-17590270D01*
X16293991Y-17590270D02*
X16198753Y-17609317D01*
X16370182Y-17666460D02*
X16389230Y-17675984D01*
X16389230Y-17675984D02*
X16427325Y-17675984D01*
X16427325Y-17675984D02*
X16446372Y-17666460D01*
X16446372Y-17666460D02*
X16455896Y-17647412D01*
X16455896Y-17647412D02*
X16455896Y-17637889D01*
X16455896Y-17637889D02*
X16446372Y-17618841D01*
X16446372Y-17618841D02*
X16427325Y-17609317D01*
X16427325Y-17609317D02*
X16398753Y-17609317D01*
X16398753Y-17609317D02*
X16379706Y-17599793D01*
X16379706Y-17599793D02*
X16370182Y-17580746D01*
X16370182Y-17580746D02*
X16370182Y-17571222D01*
X16370182Y-17571222D02*
X16379706Y-17552174D01*
X16379706Y-17552174D02*
X16398753Y-17542650D01*
X16398753Y-17542650D02*
X16427325Y-17542650D01*
X16427325Y-17542650D02*
X16446372Y-17552174D01*
X16522563Y-17752174D02*
X16532087Y-17742650D01*
X16532087Y-17742650D02*
X16551134Y-17714079D01*
X16551134Y-17714079D02*
X16560658Y-17695031D01*
X16560658Y-17695031D02*
X16570182Y-17666460D01*
X16570182Y-17666460D02*
X16579706Y-17618841D01*
X16579706Y-17618841D02*
X16579706Y-17580746D01*
X16579706Y-17580746D02*
X16570182Y-17533127D01*
X16570182Y-17533127D02*
X16560658Y-17504555D01*
X16560658Y-17504555D02*
X16551134Y-17485508D01*
X16551134Y-17485508D02*
X16532087Y-17456936D01*
X16532087Y-17456936D02*
X16522563Y-17447412D01*
D14*
X11691620Y-17904380D02*
X11747500Y-17848500D01*
X11691620Y-17792620D01*
X11635740Y-17848500D01*
X11691620Y-17904380D01*
D11*
X12113039Y-17939984D02*
X11998753Y-17939984D01*
X12055896Y-17939984D02*
X12055896Y-17739984D01*
X12055896Y-17739984D02*
X12036848Y-17768555D01*
X12036848Y-17768555D02*
X12017801Y-17787603D01*
X12017801Y-17787603D02*
X11998753Y-17797127D01*
X12198753Y-17920936D02*
X12208277Y-17930460D01*
X12208277Y-17930460D02*
X12198753Y-17939984D01*
X12198753Y-17939984D02*
X12189229Y-17930460D01*
X12189229Y-17930460D02*
X12198753Y-17920936D01*
X12198753Y-17920936D02*
X12198753Y-17939984D01*
X12398753Y-17939984D02*
X12284467Y-17939984D01*
X12341610Y-17939984D02*
X12341610Y-17739984D01*
X12341610Y-17739984D02*
X12322562Y-17768555D01*
X12322562Y-17768555D02*
X12303515Y-17787603D01*
X12303515Y-17787603D02*
X12284467Y-17797127D01*
X12589229Y-17939984D02*
X12474943Y-17939984D01*
X12532086Y-17939984D02*
X12532086Y-17739984D01*
X12532086Y-17739984D02*
X12513039Y-17768555D01*
X12513039Y-17768555D02*
X12493991Y-17787603D01*
X12493991Y-17787603D02*
X12474943Y-17797127D01*
X12703515Y-17825698D02*
X12684467Y-17816174D01*
X12684467Y-17816174D02*
X12674943Y-17806650D01*
X12674943Y-17806650D02*
X12665420Y-17787603D01*
X12665420Y-17787603D02*
X12665420Y-17778079D01*
X12665420Y-17778079D02*
X12674943Y-17759031D01*
X12674943Y-17759031D02*
X12684467Y-17749508D01*
X12684467Y-17749508D02*
X12703515Y-17739984D01*
X12703515Y-17739984D02*
X12741610Y-17739984D01*
X12741610Y-17739984D02*
X12760658Y-17749508D01*
X12760658Y-17749508D02*
X12770182Y-17759031D01*
X12770182Y-17759031D02*
X12779705Y-17778079D01*
X12779705Y-17778079D02*
X12779705Y-17787603D01*
X12779705Y-17787603D02*
X12770182Y-17806650D01*
X12770182Y-17806650D02*
X12760658Y-17816174D01*
X12760658Y-17816174D02*
X12741610Y-17825698D01*
X12741610Y-17825698D02*
X12703515Y-17825698D01*
X12703515Y-17825698D02*
X12684467Y-17835222D01*
X12684467Y-17835222D02*
X12674943Y-17844746D01*
X12674943Y-17844746D02*
X12665420Y-17863793D01*
X12665420Y-17863793D02*
X12665420Y-17901889D01*
X12665420Y-17901889D02*
X12674943Y-17920936D01*
X12674943Y-17920936D02*
X12684467Y-17930460D01*
X12684467Y-17930460D02*
X12703515Y-17939984D01*
X12703515Y-17939984D02*
X12741610Y-17939984D01*
X12741610Y-17939984D02*
X12760658Y-17930460D01*
X12760658Y-17930460D02*
X12770182Y-17920936D01*
X12770182Y-17920936D02*
X12779705Y-17901889D01*
X12779705Y-17901889D02*
X12779705Y-17863793D01*
X12779705Y-17863793D02*
X12770182Y-17844746D01*
X12770182Y-17844746D02*
X12760658Y-17835222D01*
X12760658Y-17835222D02*
X12741610Y-17825698D01*
X12865420Y-17939984D02*
X12865420Y-17806650D01*
X12865420Y-17825698D02*
X12874943Y-17816174D01*
X12874943Y-17816174D02*
X12893991Y-17806650D01*
X12893991Y-17806650D02*
X12922563Y-17806650D01*
X12922563Y-17806650D02*
X12941610Y-17816174D01*
X12941610Y-17816174D02*
X12951134Y-17835222D01*
X12951134Y-17835222D02*
X12951134Y-17939984D01*
X12951134Y-17835222D02*
X12960658Y-17816174D01*
X12960658Y-17816174D02*
X12979705Y-17806650D01*
X12979705Y-17806650D02*
X13008277Y-17806650D01*
X13008277Y-17806650D02*
X13027324Y-17816174D01*
X13027324Y-17816174D02*
X13036848Y-17835222D01*
X13036848Y-17835222D02*
X13036848Y-17939984D01*
X13132086Y-17939984D02*
X13132086Y-17806650D01*
X13132086Y-17825698D02*
X13141610Y-17816174D01*
X13141610Y-17816174D02*
X13160658Y-17806650D01*
X13160658Y-17806650D02*
X13189229Y-17806650D01*
X13189229Y-17806650D02*
X13208277Y-17816174D01*
X13208277Y-17816174D02*
X13217801Y-17835222D01*
X13217801Y-17835222D02*
X13217801Y-17939984D01*
X13217801Y-17835222D02*
X13227324Y-17816174D01*
X13227324Y-17816174D02*
X13246372Y-17806650D01*
X13246372Y-17806650D02*
X13274943Y-17806650D01*
X13274943Y-17806650D02*
X13293991Y-17816174D01*
X13293991Y-17816174D02*
X13303515Y-17835222D01*
X13303515Y-17835222D02*
X13303515Y-17939984D01*
X13693991Y-17730460D02*
X13522563Y-17987603D01*
X13951134Y-17739984D02*
X13970182Y-17739984D01*
X13970182Y-17739984D02*
X13989229Y-17749508D01*
X13989229Y-17749508D02*
X13998753Y-17759031D01*
X13998753Y-17759031D02*
X14008277Y-17778079D01*
X14008277Y-17778079D02*
X14017801Y-17816174D01*
X14017801Y-17816174D02*
X14017801Y-17863793D01*
X14017801Y-17863793D02*
X14008277Y-17901889D01*
X14008277Y-17901889D02*
X13998753Y-17920936D01*
X13998753Y-17920936D02*
X13989229Y-17930460D01*
X13989229Y-17930460D02*
X13970182Y-17939984D01*
X13970182Y-17939984D02*
X13951134Y-17939984D01*
X13951134Y-17939984D02*
X13932086Y-17930460D01*
X13932086Y-17930460D02*
X13922563Y-17920936D01*
X13922563Y-17920936D02*
X13913039Y-17901889D01*
X13913039Y-17901889D02*
X13903515Y-17863793D01*
X13903515Y-17863793D02*
X13903515Y-17816174D01*
X13903515Y-17816174D02*
X13913039Y-17778079D01*
X13913039Y-17778079D02*
X13922563Y-17759031D01*
X13922563Y-17759031D02*
X13932086Y-17749508D01*
X13932086Y-17749508D02*
X13951134Y-17739984D01*
X14103515Y-17920936D02*
X14113039Y-17930460D01*
X14113039Y-17930460D02*
X14103515Y-17939984D01*
X14103515Y-17939984D02*
X14093991Y-17930460D01*
X14093991Y-17930460D02*
X14103515Y-17920936D01*
X14103515Y-17920936D02*
X14103515Y-17939984D01*
X14236848Y-17739984D02*
X14255896Y-17739984D01*
X14255896Y-17739984D02*
X14274944Y-17749508D01*
X14274944Y-17749508D02*
X14284467Y-17759031D01*
X14284467Y-17759031D02*
X14293991Y-17778079D01*
X14293991Y-17778079D02*
X14303515Y-17816174D01*
X14303515Y-17816174D02*
X14303515Y-17863793D01*
X14303515Y-17863793D02*
X14293991Y-17901889D01*
X14293991Y-17901889D02*
X14284467Y-17920936D01*
X14284467Y-17920936D02*
X14274944Y-17930460D01*
X14274944Y-17930460D02*
X14255896Y-17939984D01*
X14255896Y-17939984D02*
X14236848Y-17939984D01*
X14236848Y-17939984D02*
X14217801Y-17930460D01*
X14217801Y-17930460D02*
X14208277Y-17920936D01*
X14208277Y-17920936D02*
X14198753Y-17901889D01*
X14198753Y-17901889D02*
X14189229Y-17863793D01*
X14189229Y-17863793D02*
X14189229Y-17816174D01*
X14189229Y-17816174D02*
X14198753Y-17778079D01*
X14198753Y-17778079D02*
X14208277Y-17759031D01*
X14208277Y-17759031D02*
X14217801Y-17749508D01*
X14217801Y-17749508D02*
X14236848Y-17739984D01*
X14474944Y-17806650D02*
X14474944Y-17939984D01*
X14427325Y-17730460D02*
X14379706Y-17873317D01*
X14379706Y-17873317D02*
X14503515Y-17873317D01*
X14665420Y-17806650D02*
X14665420Y-17939984D01*
X14617801Y-17730460D02*
X14570182Y-17873317D01*
X14570182Y-17873317D02*
X14693991Y-17873317D01*
X14808277Y-17739984D02*
X14827325Y-17739984D01*
X14827325Y-17739984D02*
X14846372Y-17749508D01*
X14846372Y-17749508D02*
X14855896Y-17759031D01*
X14855896Y-17759031D02*
X14865420Y-17778079D01*
X14865420Y-17778079D02*
X14874944Y-17816174D01*
X14874944Y-17816174D02*
X14874944Y-17863793D01*
X14874944Y-17863793D02*
X14865420Y-17901889D01*
X14865420Y-17901889D02*
X14855896Y-17920936D01*
X14855896Y-17920936D02*
X14846372Y-17930460D01*
X14846372Y-17930460D02*
X14827325Y-17939984D01*
X14827325Y-17939984D02*
X14808277Y-17939984D01*
X14808277Y-17939984D02*
X14789229Y-17930460D01*
X14789229Y-17930460D02*
X14779706Y-17920936D01*
X14779706Y-17920936D02*
X14770182Y-17901889D01*
X14770182Y-17901889D02*
X14760658Y-17863793D01*
X14760658Y-17863793D02*
X14760658Y-17816174D01*
X14760658Y-17816174D02*
X14770182Y-17778079D01*
X14770182Y-17778079D02*
X14779706Y-17759031D01*
X14779706Y-17759031D02*
X14789229Y-17749508D01*
X14789229Y-17749508D02*
X14808277Y-17739984D01*
X14951134Y-17739984D02*
X14951134Y-17778079D01*
X15027325Y-17739984D02*
X15027325Y-17778079D01*
X15322563Y-18016174D02*
X15313039Y-18006650D01*
X15313039Y-18006650D02*
X15293991Y-17978079D01*
X15293991Y-17978079D02*
X15284468Y-17959031D01*
X15284468Y-17959031D02*
X15274944Y-17930460D01*
X15274944Y-17930460D02*
X15265420Y-17882841D01*
X15265420Y-17882841D02*
X15265420Y-17844746D01*
X15265420Y-17844746D02*
X15274944Y-17797127D01*
X15274944Y-17797127D02*
X15284468Y-17768555D01*
X15284468Y-17768555D02*
X15293991Y-17749508D01*
X15293991Y-17749508D02*
X15313039Y-17720936D01*
X15313039Y-17720936D02*
X15322563Y-17711412D01*
X15379706Y-17739984D02*
X15503515Y-17739984D01*
X15503515Y-17739984D02*
X15436848Y-17816174D01*
X15436848Y-17816174D02*
X15465420Y-17816174D01*
X15465420Y-17816174D02*
X15484468Y-17825698D01*
X15484468Y-17825698D02*
X15493991Y-17835222D01*
X15493991Y-17835222D02*
X15503515Y-17854270D01*
X15503515Y-17854270D02*
X15503515Y-17901889D01*
X15503515Y-17901889D02*
X15493991Y-17920936D01*
X15493991Y-17920936D02*
X15484468Y-17930460D01*
X15484468Y-17930460D02*
X15465420Y-17939984D01*
X15465420Y-17939984D02*
X15408277Y-17939984D01*
X15408277Y-17939984D02*
X15389229Y-17930460D01*
X15389229Y-17930460D02*
X15379706Y-17920936D01*
X15579706Y-17759031D02*
X15589229Y-17749508D01*
X15589229Y-17749508D02*
X15608277Y-17739984D01*
X15608277Y-17739984D02*
X15655896Y-17739984D01*
X15655896Y-17739984D02*
X15674944Y-17749508D01*
X15674944Y-17749508D02*
X15684468Y-17759031D01*
X15684468Y-17759031D02*
X15693991Y-17778079D01*
X15693991Y-17778079D02*
X15693991Y-17797127D01*
X15693991Y-17797127D02*
X15684468Y-17825698D01*
X15684468Y-17825698D02*
X15570182Y-17939984D01*
X15570182Y-17939984D02*
X15693991Y-17939984D01*
X15932087Y-17939984D02*
X15932087Y-17739984D01*
X16017801Y-17939984D02*
X16017801Y-17835222D01*
X16017801Y-17835222D02*
X16008277Y-17816174D01*
X16008277Y-17816174D02*
X15989230Y-17806650D01*
X15989230Y-17806650D02*
X15960658Y-17806650D01*
X15960658Y-17806650D02*
X15941610Y-17816174D01*
X15941610Y-17816174D02*
X15932087Y-17825698D01*
X16141610Y-17939984D02*
X16122563Y-17930460D01*
X16122563Y-17930460D02*
X16113039Y-17920936D01*
X16113039Y-17920936D02*
X16103515Y-17901889D01*
X16103515Y-17901889D02*
X16103515Y-17844746D01*
X16103515Y-17844746D02*
X16113039Y-17825698D01*
X16113039Y-17825698D02*
X16122563Y-17816174D01*
X16122563Y-17816174D02*
X16141610Y-17806650D01*
X16141610Y-17806650D02*
X16170182Y-17806650D01*
X16170182Y-17806650D02*
X16189230Y-17816174D01*
X16189230Y-17816174D02*
X16198753Y-17825698D01*
X16198753Y-17825698D02*
X16208277Y-17844746D01*
X16208277Y-17844746D02*
X16208277Y-17901889D01*
X16208277Y-17901889D02*
X16198753Y-17920936D01*
X16198753Y-17920936D02*
X16189230Y-17930460D01*
X16189230Y-17930460D02*
X16170182Y-17939984D01*
X16170182Y-17939984D02*
X16141610Y-17939984D01*
X16322563Y-17939984D02*
X16303515Y-17930460D01*
X16303515Y-17930460D02*
X16293991Y-17911412D01*
X16293991Y-17911412D02*
X16293991Y-17739984D01*
X16474944Y-17930460D02*
X16455896Y-17939984D01*
X16455896Y-17939984D02*
X16417801Y-17939984D01*
X16417801Y-17939984D02*
X16398753Y-17930460D01*
X16398753Y-17930460D02*
X16389230Y-17911412D01*
X16389230Y-17911412D02*
X16389230Y-17835222D01*
X16389230Y-17835222D02*
X16398753Y-17816174D01*
X16398753Y-17816174D02*
X16417801Y-17806650D01*
X16417801Y-17806650D02*
X16455896Y-17806650D01*
X16455896Y-17806650D02*
X16474944Y-17816174D01*
X16474944Y-17816174D02*
X16484468Y-17835222D01*
X16484468Y-17835222D02*
X16484468Y-17854270D01*
X16484468Y-17854270D02*
X16389230Y-17873317D01*
X16560658Y-17930460D02*
X16579706Y-17939984D01*
X16579706Y-17939984D02*
X16617801Y-17939984D01*
X16617801Y-17939984D02*
X16636849Y-17930460D01*
X16636849Y-17930460D02*
X16646372Y-17911412D01*
X16646372Y-17911412D02*
X16646372Y-17901889D01*
X16646372Y-17901889D02*
X16636849Y-17882841D01*
X16636849Y-17882841D02*
X16617801Y-17873317D01*
X16617801Y-17873317D02*
X16589230Y-17873317D01*
X16589230Y-17873317D02*
X16570182Y-17863793D01*
X16570182Y-17863793D02*
X16560658Y-17844746D01*
X16560658Y-17844746D02*
X16560658Y-17835222D01*
X16560658Y-17835222D02*
X16570182Y-17816174D01*
X16570182Y-17816174D02*
X16589230Y-17806650D01*
X16589230Y-17806650D02*
X16617801Y-17806650D01*
X16617801Y-17806650D02*
X16636849Y-17816174D01*
X16713039Y-18016174D02*
X16722563Y-18006650D01*
X16722563Y-18006650D02*
X16741611Y-17978079D01*
X16741611Y-17978079D02*
X16751134Y-17959031D01*
X16751134Y-17959031D02*
X16760658Y-17930460D01*
X16760658Y-17930460D02*
X16770182Y-17882841D01*
X16770182Y-17882841D02*
X16770182Y-17844746D01*
X16770182Y-17844746D02*
X16760658Y-17797127D01*
X16760658Y-17797127D02*
X16751134Y-17768555D01*
X16751134Y-17768555D02*
X16741611Y-17749508D01*
X16741611Y-17749508D02*
X16722563Y-17720936D01*
X16722563Y-17720936D02*
X16713039Y-17711412D01*
D15*
X11572500Y-18025000D02*
X11747500Y-18200000D01*
X11747500Y-18025000D02*
X11572500Y-18200000D01*
X11747500Y-18112500D02*
G75*
G02*
X11572500Y-18112500I-87500J0D01*
G01*
X11572500Y-18112500D02*
G75*
G02*
X11747500Y-18112500I87500J0D01*
G01*
D11*
X12113039Y-18203984D02*
X11998753Y-18203984D01*
X12055896Y-18203984D02*
X12055896Y-18003984D01*
X12055896Y-18003984D02*
X12036848Y-18032555D01*
X12036848Y-18032555D02*
X12017801Y-18051603D01*
X12017801Y-18051603D02*
X11998753Y-18061127D01*
X12198753Y-18184936D02*
X12208277Y-18194460D01*
X12208277Y-18194460D02*
X12198753Y-18203984D01*
X12198753Y-18203984D02*
X12189229Y-18194460D01*
X12189229Y-18194460D02*
X12198753Y-18184936D01*
X12198753Y-18184936D02*
X12198753Y-18203984D01*
X12274943Y-18003984D02*
X12408277Y-18003984D01*
X12408277Y-18003984D02*
X12322562Y-18203984D01*
X12579705Y-18003984D02*
X12484467Y-18003984D01*
X12484467Y-18003984D02*
X12474943Y-18099222D01*
X12474943Y-18099222D02*
X12484467Y-18089698D01*
X12484467Y-18089698D02*
X12503515Y-18080174D01*
X12503515Y-18080174D02*
X12551134Y-18080174D01*
X12551134Y-18080174D02*
X12570182Y-18089698D01*
X12570182Y-18089698D02*
X12579705Y-18099222D01*
X12579705Y-18099222D02*
X12589229Y-18118270D01*
X12589229Y-18118270D02*
X12589229Y-18165889D01*
X12589229Y-18165889D02*
X12579705Y-18184936D01*
X12579705Y-18184936D02*
X12570182Y-18194460D01*
X12570182Y-18194460D02*
X12551134Y-18203984D01*
X12551134Y-18203984D02*
X12503515Y-18203984D01*
X12503515Y-18203984D02*
X12484467Y-18194460D01*
X12484467Y-18194460D02*
X12474943Y-18184936D01*
X12713039Y-18003984D02*
X12732086Y-18003984D01*
X12732086Y-18003984D02*
X12751134Y-18013508D01*
X12751134Y-18013508D02*
X12760658Y-18023031D01*
X12760658Y-18023031D02*
X12770182Y-18042079D01*
X12770182Y-18042079D02*
X12779705Y-18080174D01*
X12779705Y-18080174D02*
X12779705Y-18127793D01*
X12779705Y-18127793D02*
X12770182Y-18165889D01*
X12770182Y-18165889D02*
X12760658Y-18184936D01*
X12760658Y-18184936D02*
X12751134Y-18194460D01*
X12751134Y-18194460D02*
X12732086Y-18203984D01*
X12732086Y-18203984D02*
X12713039Y-18203984D01*
X12713039Y-18203984D02*
X12693991Y-18194460D01*
X12693991Y-18194460D02*
X12684467Y-18184936D01*
X12684467Y-18184936D02*
X12674943Y-18165889D01*
X12674943Y-18165889D02*
X12665420Y-18127793D01*
X12665420Y-18127793D02*
X12665420Y-18080174D01*
X12665420Y-18080174D02*
X12674943Y-18042079D01*
X12674943Y-18042079D02*
X12684467Y-18023031D01*
X12684467Y-18023031D02*
X12693991Y-18013508D01*
X12693991Y-18013508D02*
X12713039Y-18003984D01*
X12865420Y-18203984D02*
X12865420Y-18070650D01*
X12865420Y-18089698D02*
X12874943Y-18080174D01*
X12874943Y-18080174D02*
X12893991Y-18070650D01*
X12893991Y-18070650D02*
X12922563Y-18070650D01*
X12922563Y-18070650D02*
X12941610Y-18080174D01*
X12941610Y-18080174D02*
X12951134Y-18099222D01*
X12951134Y-18099222D02*
X12951134Y-18203984D01*
X12951134Y-18099222D02*
X12960658Y-18080174D01*
X12960658Y-18080174D02*
X12979705Y-18070650D01*
X12979705Y-18070650D02*
X13008277Y-18070650D01*
X13008277Y-18070650D02*
X13027324Y-18080174D01*
X13027324Y-18080174D02*
X13036848Y-18099222D01*
X13036848Y-18099222D02*
X13036848Y-18203984D01*
X13132086Y-18203984D02*
X13132086Y-18070650D01*
X13132086Y-18089698D02*
X13141610Y-18080174D01*
X13141610Y-18080174D02*
X13160658Y-18070650D01*
X13160658Y-18070650D02*
X13189229Y-18070650D01*
X13189229Y-18070650D02*
X13208277Y-18080174D01*
X13208277Y-18080174D02*
X13217801Y-18099222D01*
X13217801Y-18099222D02*
X13217801Y-18203984D01*
X13217801Y-18099222D02*
X13227324Y-18080174D01*
X13227324Y-18080174D02*
X13246372Y-18070650D01*
X13246372Y-18070650D02*
X13274943Y-18070650D01*
X13274943Y-18070650D02*
X13293991Y-18080174D01*
X13293991Y-18080174D02*
X13303515Y-18099222D01*
X13303515Y-18099222D02*
X13303515Y-18203984D01*
X13693991Y-17994460D02*
X13522563Y-18251603D01*
X13951134Y-18003984D02*
X13970182Y-18003984D01*
X13970182Y-18003984D02*
X13989229Y-18013508D01*
X13989229Y-18013508D02*
X13998753Y-18023031D01*
X13998753Y-18023031D02*
X14008277Y-18042079D01*
X14008277Y-18042079D02*
X14017801Y-18080174D01*
X14017801Y-18080174D02*
X14017801Y-18127793D01*
X14017801Y-18127793D02*
X14008277Y-18165889D01*
X14008277Y-18165889D02*
X13998753Y-18184936D01*
X13998753Y-18184936D02*
X13989229Y-18194460D01*
X13989229Y-18194460D02*
X13970182Y-18203984D01*
X13970182Y-18203984D02*
X13951134Y-18203984D01*
X13951134Y-18203984D02*
X13932086Y-18194460D01*
X13932086Y-18194460D02*
X13922563Y-18184936D01*
X13922563Y-18184936D02*
X13913039Y-18165889D01*
X13913039Y-18165889D02*
X13903515Y-18127793D01*
X13903515Y-18127793D02*
X13903515Y-18080174D01*
X13903515Y-18080174D02*
X13913039Y-18042079D01*
X13913039Y-18042079D02*
X13922563Y-18023031D01*
X13922563Y-18023031D02*
X13932086Y-18013508D01*
X13932086Y-18013508D02*
X13951134Y-18003984D01*
X14103515Y-18184936D02*
X14113039Y-18194460D01*
X14113039Y-18194460D02*
X14103515Y-18203984D01*
X14103515Y-18203984D02*
X14093991Y-18194460D01*
X14093991Y-18194460D02*
X14103515Y-18184936D01*
X14103515Y-18184936D02*
X14103515Y-18203984D01*
X14236848Y-18003984D02*
X14255896Y-18003984D01*
X14255896Y-18003984D02*
X14274944Y-18013508D01*
X14274944Y-18013508D02*
X14284467Y-18023031D01*
X14284467Y-18023031D02*
X14293991Y-18042079D01*
X14293991Y-18042079D02*
X14303515Y-18080174D01*
X14303515Y-18080174D02*
X14303515Y-18127793D01*
X14303515Y-18127793D02*
X14293991Y-18165889D01*
X14293991Y-18165889D02*
X14284467Y-18184936D01*
X14284467Y-18184936D02*
X14274944Y-18194460D01*
X14274944Y-18194460D02*
X14255896Y-18203984D01*
X14255896Y-18203984D02*
X14236848Y-18203984D01*
X14236848Y-18203984D02*
X14217801Y-18194460D01*
X14217801Y-18194460D02*
X14208277Y-18184936D01*
X14208277Y-18184936D02*
X14198753Y-18165889D01*
X14198753Y-18165889D02*
X14189229Y-18127793D01*
X14189229Y-18127793D02*
X14189229Y-18080174D01*
X14189229Y-18080174D02*
X14198753Y-18042079D01*
X14198753Y-18042079D02*
X14208277Y-18023031D01*
X14208277Y-18023031D02*
X14217801Y-18013508D01*
X14217801Y-18013508D02*
X14236848Y-18003984D01*
X14474944Y-18003984D02*
X14436848Y-18003984D01*
X14436848Y-18003984D02*
X14417801Y-18013508D01*
X14417801Y-18013508D02*
X14408277Y-18023031D01*
X14408277Y-18023031D02*
X14389229Y-18051603D01*
X14389229Y-18051603D02*
X14379706Y-18089698D01*
X14379706Y-18089698D02*
X14379706Y-18165889D01*
X14379706Y-18165889D02*
X14389229Y-18184936D01*
X14389229Y-18184936D02*
X14398753Y-18194460D01*
X14398753Y-18194460D02*
X14417801Y-18203984D01*
X14417801Y-18203984D02*
X14455896Y-18203984D01*
X14455896Y-18203984D02*
X14474944Y-18194460D01*
X14474944Y-18194460D02*
X14484467Y-18184936D01*
X14484467Y-18184936D02*
X14493991Y-18165889D01*
X14493991Y-18165889D02*
X14493991Y-18118270D01*
X14493991Y-18118270D02*
X14484467Y-18099222D01*
X14484467Y-18099222D02*
X14474944Y-18089698D01*
X14474944Y-18089698D02*
X14455896Y-18080174D01*
X14455896Y-18080174D02*
X14417801Y-18080174D01*
X14417801Y-18080174D02*
X14398753Y-18089698D01*
X14398753Y-18089698D02*
X14389229Y-18099222D01*
X14389229Y-18099222D02*
X14379706Y-18118270D01*
X14608277Y-18089698D02*
X14589229Y-18080174D01*
X14589229Y-18080174D02*
X14579706Y-18070650D01*
X14579706Y-18070650D02*
X14570182Y-18051603D01*
X14570182Y-18051603D02*
X14570182Y-18042079D01*
X14570182Y-18042079D02*
X14579706Y-18023031D01*
X14579706Y-18023031D02*
X14589229Y-18013508D01*
X14589229Y-18013508D02*
X14608277Y-18003984D01*
X14608277Y-18003984D02*
X14646372Y-18003984D01*
X14646372Y-18003984D02*
X14665420Y-18013508D01*
X14665420Y-18013508D02*
X14674944Y-18023031D01*
X14674944Y-18023031D02*
X14684467Y-18042079D01*
X14684467Y-18042079D02*
X14684467Y-18051603D01*
X14684467Y-18051603D02*
X14674944Y-18070650D01*
X14674944Y-18070650D02*
X14665420Y-18080174D01*
X14665420Y-18080174D02*
X14646372Y-18089698D01*
X14646372Y-18089698D02*
X14608277Y-18089698D01*
X14608277Y-18089698D02*
X14589229Y-18099222D01*
X14589229Y-18099222D02*
X14579706Y-18108746D01*
X14579706Y-18108746D02*
X14570182Y-18127793D01*
X14570182Y-18127793D02*
X14570182Y-18165889D01*
X14570182Y-18165889D02*
X14579706Y-18184936D01*
X14579706Y-18184936D02*
X14589229Y-18194460D01*
X14589229Y-18194460D02*
X14608277Y-18203984D01*
X14608277Y-18203984D02*
X14646372Y-18203984D01*
X14646372Y-18203984D02*
X14665420Y-18194460D01*
X14665420Y-18194460D02*
X14674944Y-18184936D01*
X14674944Y-18184936D02*
X14684467Y-18165889D01*
X14684467Y-18165889D02*
X14684467Y-18127793D01*
X14684467Y-18127793D02*
X14674944Y-18108746D01*
X14674944Y-18108746D02*
X14665420Y-18099222D01*
X14665420Y-18099222D02*
X14646372Y-18089698D01*
X14779706Y-18203984D02*
X14817801Y-18203984D01*
X14817801Y-18203984D02*
X14836848Y-18194460D01*
X14836848Y-18194460D02*
X14846372Y-18184936D01*
X14846372Y-18184936D02*
X14865420Y-18156365D01*
X14865420Y-18156365D02*
X14874944Y-18118270D01*
X14874944Y-18118270D02*
X14874944Y-18042079D01*
X14874944Y-18042079D02*
X14865420Y-18023031D01*
X14865420Y-18023031D02*
X14855896Y-18013508D01*
X14855896Y-18013508D02*
X14836848Y-18003984D01*
X14836848Y-18003984D02*
X14798753Y-18003984D01*
X14798753Y-18003984D02*
X14779706Y-18013508D01*
X14779706Y-18013508D02*
X14770182Y-18023031D01*
X14770182Y-18023031D02*
X14760658Y-18042079D01*
X14760658Y-18042079D02*
X14760658Y-18089698D01*
X14760658Y-18089698D02*
X14770182Y-18108746D01*
X14770182Y-18108746D02*
X14779706Y-18118270D01*
X14779706Y-18118270D02*
X14798753Y-18127793D01*
X14798753Y-18127793D02*
X14836848Y-18127793D01*
X14836848Y-18127793D02*
X14855896Y-18118270D01*
X14855896Y-18118270D02*
X14865420Y-18108746D01*
X14865420Y-18108746D02*
X14874944Y-18089698D01*
X14951134Y-18003984D02*
X14951134Y-18042079D01*
X15027325Y-18003984D02*
X15027325Y-18042079D01*
X15322563Y-18280174D02*
X15313039Y-18270650D01*
X15313039Y-18270650D02*
X15293991Y-18242079D01*
X15293991Y-18242079D02*
X15284468Y-18223031D01*
X15284468Y-18223031D02*
X15274944Y-18194460D01*
X15274944Y-18194460D02*
X15265420Y-18146841D01*
X15265420Y-18146841D02*
X15265420Y-18108746D01*
X15265420Y-18108746D02*
X15274944Y-18061127D01*
X15274944Y-18061127D02*
X15284468Y-18032555D01*
X15284468Y-18032555D02*
X15293991Y-18013508D01*
X15293991Y-18013508D02*
X15313039Y-17984936D01*
X15313039Y-17984936D02*
X15322563Y-17975412D01*
X15389229Y-18023031D02*
X15398753Y-18013508D01*
X15398753Y-18013508D02*
X15417801Y-18003984D01*
X15417801Y-18003984D02*
X15465420Y-18003984D01*
X15465420Y-18003984D02*
X15484468Y-18013508D01*
X15484468Y-18013508D02*
X15493991Y-18023031D01*
X15493991Y-18023031D02*
X15503515Y-18042079D01*
X15503515Y-18042079D02*
X15503515Y-18061127D01*
X15503515Y-18061127D02*
X15493991Y-18089698D01*
X15493991Y-18089698D02*
X15379706Y-18203984D01*
X15379706Y-18203984D02*
X15503515Y-18203984D01*
X15741610Y-18203984D02*
X15741610Y-18003984D01*
X15827325Y-18203984D02*
X15827325Y-18099222D01*
X15827325Y-18099222D02*
X15817801Y-18080174D01*
X15817801Y-18080174D02*
X15798753Y-18070650D01*
X15798753Y-18070650D02*
X15770182Y-18070650D01*
X15770182Y-18070650D02*
X15751134Y-18080174D01*
X15751134Y-18080174D02*
X15741610Y-18089698D01*
X15951134Y-18203984D02*
X15932087Y-18194460D01*
X15932087Y-18194460D02*
X15922563Y-18184936D01*
X15922563Y-18184936D02*
X15913039Y-18165889D01*
X15913039Y-18165889D02*
X15913039Y-18108746D01*
X15913039Y-18108746D02*
X15922563Y-18089698D01*
X15922563Y-18089698D02*
X15932087Y-18080174D01*
X15932087Y-18080174D02*
X15951134Y-18070650D01*
X15951134Y-18070650D02*
X15979706Y-18070650D01*
X15979706Y-18070650D02*
X15998753Y-18080174D01*
X15998753Y-18080174D02*
X16008277Y-18089698D01*
X16008277Y-18089698D02*
X16017801Y-18108746D01*
X16017801Y-18108746D02*
X16017801Y-18165889D01*
X16017801Y-18165889D02*
X16008277Y-18184936D01*
X16008277Y-18184936D02*
X15998753Y-18194460D01*
X15998753Y-18194460D02*
X15979706Y-18203984D01*
X15979706Y-18203984D02*
X15951134Y-18203984D01*
X16132087Y-18203984D02*
X16113039Y-18194460D01*
X16113039Y-18194460D02*
X16103515Y-18175412D01*
X16103515Y-18175412D02*
X16103515Y-18003984D01*
X16284468Y-18194460D02*
X16265420Y-18203984D01*
X16265420Y-18203984D02*
X16227325Y-18203984D01*
X16227325Y-18203984D02*
X16208277Y-18194460D01*
X16208277Y-18194460D02*
X16198753Y-18175412D01*
X16198753Y-18175412D02*
X16198753Y-18099222D01*
X16198753Y-18099222D02*
X16208277Y-18080174D01*
X16208277Y-18080174D02*
X16227325Y-18070650D01*
X16227325Y-18070650D02*
X16265420Y-18070650D01*
X16265420Y-18070650D02*
X16284468Y-18080174D01*
X16284468Y-18080174D02*
X16293991Y-18099222D01*
X16293991Y-18099222D02*
X16293991Y-18118270D01*
X16293991Y-18118270D02*
X16198753Y-18137317D01*
X16370182Y-18194460D02*
X16389230Y-18203984D01*
X16389230Y-18203984D02*
X16427325Y-18203984D01*
X16427325Y-18203984D02*
X16446372Y-18194460D01*
X16446372Y-18194460D02*
X16455896Y-18175412D01*
X16455896Y-18175412D02*
X16455896Y-18165889D01*
X16455896Y-18165889D02*
X16446372Y-18146841D01*
X16446372Y-18146841D02*
X16427325Y-18137317D01*
X16427325Y-18137317D02*
X16398753Y-18137317D01*
X16398753Y-18137317D02*
X16379706Y-18127793D01*
X16379706Y-18127793D02*
X16370182Y-18108746D01*
X16370182Y-18108746D02*
X16370182Y-18099222D01*
X16370182Y-18099222D02*
X16379706Y-18080174D01*
X16379706Y-18080174D02*
X16398753Y-18070650D01*
X16398753Y-18070650D02*
X16427325Y-18070650D01*
X16427325Y-18070650D02*
X16446372Y-18080174D01*
X16522563Y-18280174D02*
X16532087Y-18270650D01*
X16532087Y-18270650D02*
X16551134Y-18242079D01*
X16551134Y-18242079D02*
X16560658Y-18223031D01*
X16560658Y-18223031D02*
X16570182Y-18194460D01*
X16570182Y-18194460D02*
X16579706Y-18146841D01*
X16579706Y-18146841D02*
X16579706Y-18108746D01*
X16579706Y-18108746D02*
X16570182Y-18061127D01*
X16570182Y-18061127D02*
X16560658Y-18032555D01*
X16560658Y-18032555D02*
X16551134Y-18013508D01*
X16551134Y-18013508D02*
X16532087Y-17984936D01*
X16532087Y-17984936D02*
X16522563Y-17975412D01*
M02*
