%TF.GenerationSoftware,KiCad,Pcbnew,8.0.4*%
%TF.CreationDate,2024-12-01T21:10:42+01:00*%
%TF.ProjectId,OVN,4f564e2e-6b69-4636-9164-5f7063625858,rev?*%
%TF.SameCoordinates,Original*%
%TF.FileFunction,Drillmap*%
%TF.FilePolarity,Positive*%
%FSLAX45Y45*%
G04 Gerber Fmt 4.5, Leading zero omitted, Abs format (unit mm)*
G04 Created by KiCad (PCBNEW 8.0.4) date 2024-12-01 21:10:42*
%MOMM*%
%LPD*%
G01*
G04 APERTURE LIST*
%ADD10C,0.050000*%
%ADD11C,0.200000*%
%ADD12C,0.100000*%
%ADD13C,0.102000*%
%ADD14C,0.130000*%
%ADD15C,0.175000*%
G04 APERTURE END LIST*
D10*
X6250000Y-1650000D02*
X16950000Y-1650000D01*
X16950000Y-18200000D01*
X6250000Y-18200000D01*
X6250000Y-1650000D01*
D11*
D12*
X6924830Y-4578710D02*
X6964830Y-4618710D01*
X6964830Y-4578710D02*
X6924830Y-4618710D01*
X8800760Y-4839900D02*
X8840760Y-4879900D01*
X8840760Y-4839900D02*
X8800760Y-4879900D01*
X8825310Y-4553050D02*
X8865310Y-4593050D01*
X8865310Y-4553050D02*
X8825310Y-4593050D01*
X9197800Y-7391850D02*
X9237800Y-7431850D01*
X9237800Y-7391850D02*
X9197800Y-7431850D01*
X9197800Y-12074780D02*
X9237800Y-12114780D01*
X9237800Y-12074780D02*
X9197800Y-12114780D01*
X9583770Y-12863840D02*
X9623770Y-12903840D01*
X9623770Y-12863840D02*
X9583770Y-12903840D01*
X9772970Y-5091250D02*
X9812970Y-5131250D01*
X9812970Y-5091250D02*
X9772970Y-5131250D01*
X9914580Y-14068980D02*
X9954580Y-14108980D01*
X9954580Y-14068980D02*
X9914580Y-14108980D01*
X10022410Y-7704430D02*
X10062410Y-7744430D01*
X10062410Y-7704430D02*
X10022410Y-7744430D01*
X10144360Y-2176090D02*
X10184360Y-2216090D01*
X10184360Y-2176090D02*
X10144360Y-2216090D01*
X11183000Y-5762300D02*
X11223000Y-5802300D01*
X11223000Y-5762300D02*
X11183000Y-5802300D01*
X11220760Y-9707600D02*
X11260760Y-9747600D01*
X11260760Y-9707600D02*
X11220760Y-9747600D01*
X11580040Y-10466700D02*
X11620040Y-10506700D01*
X11620040Y-10466700D02*
X11580040Y-10506700D01*
X11645800Y-5367770D02*
X11685800Y-5407770D01*
X11685800Y-5367770D02*
X11645800Y-5407770D01*
X12025630Y-13004080D02*
X12065630Y-13044080D01*
X12065630Y-13004080D02*
X12025630Y-13044080D01*
X12362720Y-6570310D02*
X12402720Y-6610310D01*
X12402720Y-6570310D02*
X12362720Y-6610310D01*
X12427280Y-8077580D02*
X12467280Y-8117580D01*
X12467280Y-8077580D02*
X12427280Y-8117580D01*
X12448710Y-9846730D02*
X12488710Y-9886730D01*
X12488710Y-9846730D02*
X12448710Y-9886730D01*
X12870840Y-10891190D02*
X12910840Y-10931190D01*
X12910840Y-10891190D02*
X12870840Y-10931190D01*
X13188680Y-13635070D02*
X13228680Y-13675070D01*
X13228680Y-13635070D02*
X13188680Y-13675070D01*
X13437680Y-12214550D02*
X13477680Y-12254550D01*
X13477680Y-12214550D02*
X13437680Y-12254550D01*
X13565240Y-11285720D02*
X13605240Y-11325720D01*
X13605240Y-11285720D02*
X13565240Y-11325720D01*
X13581880Y-6156830D02*
X13621880Y-6196830D01*
X13621880Y-6156830D02*
X13581880Y-6196830D01*
X15123690Y-6156830D02*
X15163690Y-6196830D01*
X15163690Y-6156830D02*
X15123690Y-6196830D01*
X15884850Y-7688470D02*
X15924850Y-7728470D01*
X15924850Y-7688470D02*
X15884850Y-7728470D01*
X16125000Y-10900000D02*
G75*
G02*
X16075000Y-10900000I-25000J0D01*
G01*
X16075000Y-10900000D02*
G75*
G02*
X16125000Y-10900000I25000J0D01*
G01*
X10062000Y-13183000D02*
X10062000Y-13253000D01*
X10027000Y-13218000D02*
X10097000Y-13218000D01*
X10062000Y-13583000D02*
X10062000Y-13653000D01*
X10027000Y-13618000D02*
X10097000Y-13618000D01*
X10066000Y-12783000D02*
X10066000Y-12853000D01*
X10031000Y-12818000D02*
X10101000Y-12818000D01*
X10570000Y-13183000D02*
X10570000Y-13253000D01*
X10535000Y-13218000D02*
X10605000Y-13218000D01*
X10570000Y-13583000D02*
X10570000Y-13653000D01*
X10535000Y-13618000D02*
X10605000Y-13618000D01*
X10574000Y-12783000D02*
X10574000Y-12853000D01*
X10539000Y-12818000D02*
X10609000Y-12818000D01*
X10692000Y-4561000D02*
X10692000Y-4631000D01*
X10657000Y-4596000D02*
X10727000Y-4596000D01*
X10692000Y-5069000D02*
X10692000Y-5139000D01*
X10657000Y-5104000D02*
X10727000Y-5104000D01*
X10750000Y-7661000D02*
X10750000Y-7731000D01*
X10715000Y-7696000D02*
X10785000Y-7696000D01*
X10750000Y-8169000D02*
X10750000Y-8239000D01*
X10715000Y-8204000D02*
X10785000Y-8204000D01*
X10850000Y-6361000D02*
X10850000Y-6431000D01*
X10815000Y-6396000D02*
X10885000Y-6396000D01*
X10850000Y-6869000D02*
X10850000Y-6939000D01*
X10815000Y-6904000D02*
X10885000Y-6904000D01*
X10946000Y-8565000D02*
X10946000Y-8635000D01*
X10911000Y-8600000D02*
X10981000Y-8600000D01*
X11066000Y-12758000D02*
X11066000Y-12828000D01*
X11031000Y-12793000D02*
X11101000Y-12793000D01*
X11066000Y-13183000D02*
X11066000Y-13253000D01*
X11031000Y-13218000D02*
X11101000Y-13218000D01*
X11200000Y-4561000D02*
X11200000Y-4631000D01*
X11165000Y-4596000D02*
X11235000Y-4596000D01*
X11200000Y-5069000D02*
X11200000Y-5139000D01*
X11165000Y-5104000D02*
X11235000Y-5104000D01*
X11200000Y-7661000D02*
X11200000Y-7731000D01*
X11165000Y-7696000D02*
X11235000Y-7696000D01*
X11200000Y-8169000D02*
X11200000Y-8239000D01*
X11165000Y-8204000D02*
X11235000Y-8204000D01*
X11454000Y-8565000D02*
X11454000Y-8635000D01*
X11419000Y-8600000D02*
X11489000Y-8600000D01*
X11546000Y-11715000D02*
X11546000Y-11785000D01*
X11511000Y-11750000D02*
X11581000Y-11750000D01*
X11550000Y-6361000D02*
X11550000Y-6431000D01*
X11515000Y-6396000D02*
X11585000Y-6396000D01*
X11550000Y-6869000D02*
X11550000Y-6939000D01*
X11515000Y-6904000D02*
X11585000Y-6904000D01*
X11550000Y-12165000D02*
X11550000Y-12235000D01*
X11515000Y-12200000D02*
X11585000Y-12200000D01*
X11574000Y-12758000D02*
X11574000Y-12828000D01*
X11539000Y-12793000D02*
X11609000Y-12793000D01*
X11574000Y-13183000D02*
X11574000Y-13253000D01*
X11539000Y-13218000D02*
X11609000Y-13218000D01*
X11650000Y-7661000D02*
X11650000Y-7731000D01*
X11615000Y-7696000D02*
X11685000Y-7696000D01*
X11650000Y-8169000D02*
X11650000Y-8239000D01*
X11615000Y-8204000D02*
X11685000Y-8204000D01*
X11708000Y-4561000D02*
X11708000Y-4631000D01*
X11673000Y-4596000D02*
X11743000Y-4596000D01*
X11708000Y-5069000D02*
X11708000Y-5139000D01*
X11673000Y-5104000D02*
X11743000Y-5104000D01*
X12054000Y-11715000D02*
X12054000Y-11785000D01*
X12019000Y-11750000D02*
X12089000Y-11750000D01*
X12058000Y-12165000D02*
X12058000Y-12235000D01*
X12023000Y-12200000D02*
X12093000Y-12200000D01*
X12316500Y-13465000D02*
X12316500Y-13535000D01*
X12281500Y-13500000D02*
X12351500Y-13500000D01*
X12824500Y-13465000D02*
X12824500Y-13535000D01*
X12789500Y-13500000D02*
X12859500Y-13500000D01*
X13346000Y-4201000D02*
X13346000Y-4271000D01*
X13311000Y-4236000D02*
X13381000Y-4236000D01*
X13350000Y-5357000D02*
X13350000Y-5427000D01*
X13315000Y-5392000D02*
X13385000Y-5392000D01*
X13350000Y-5865000D02*
X13350000Y-5935000D01*
X13315000Y-5900000D02*
X13385000Y-5900000D01*
X13350000Y-6111000D02*
X13350000Y-6181000D01*
X13315000Y-6146000D02*
X13385000Y-6146000D01*
X13350000Y-6619000D02*
X13350000Y-6689000D01*
X13315000Y-6654000D02*
X13385000Y-6654000D01*
X13854000Y-4201000D02*
X13854000Y-4271000D01*
X13819000Y-4236000D02*
X13889000Y-4236000D01*
X14058000Y-16888750D02*
X14058000Y-16958750D01*
X14023000Y-16923750D02*
X14093000Y-16923750D01*
X14058000Y-17247500D02*
X14058000Y-17317500D01*
X14023000Y-17282500D02*
X14093000Y-17282500D01*
X14566000Y-16888750D02*
X14566000Y-16958750D01*
X14531000Y-16923750D02*
X14601000Y-16923750D01*
X14566000Y-17247500D02*
X14566000Y-17317500D01*
X14531000Y-17282500D02*
X14601000Y-17282500D01*
X15050000Y-11957000D02*
X15050000Y-12027000D01*
X15015000Y-11992000D02*
X15085000Y-11992000D01*
X15050000Y-12465000D02*
X15050000Y-12535000D01*
X15015000Y-12500000D02*
X15085000Y-12500000D01*
X15382500Y-3199000D02*
X15382500Y-3269000D01*
X15347500Y-3234000D02*
X15417500Y-3234000D01*
X15382500Y-4199000D02*
X15382500Y-4269000D01*
X15347500Y-4234000D02*
X15417500Y-4234000D01*
X15382500Y-5149000D02*
X15382500Y-5219000D01*
X15347500Y-5184000D02*
X15417500Y-5184000D01*
X15382500Y-6099000D02*
X15382500Y-6169000D01*
X15347500Y-6134000D02*
X15417500Y-6134000D01*
X15382500Y-7049000D02*
X15382500Y-7119000D01*
X15347500Y-7084000D02*
X15417500Y-7084000D01*
X15455000Y-11957000D02*
X15455000Y-12027000D01*
X15420000Y-11992000D02*
X15490000Y-11992000D01*
X15455000Y-12465000D02*
X15455000Y-12535000D01*
X15420000Y-12500000D02*
X15490000Y-12500000D01*
X15860000Y-11957000D02*
X15860000Y-12027000D01*
X15825000Y-11992000D02*
X15895000Y-11992000D01*
X15860000Y-12465000D02*
X15860000Y-12535000D01*
X15825000Y-12500000D02*
X15895000Y-12500000D01*
X15890500Y-3199000D02*
X15890500Y-3269000D01*
X15855500Y-3234000D02*
X15925500Y-3234000D01*
X15890500Y-4199000D02*
X15890500Y-4269000D01*
X15855500Y-4234000D02*
X15925500Y-4234000D01*
X15890500Y-5149000D02*
X15890500Y-5219000D01*
X15855500Y-5184000D02*
X15925500Y-5184000D01*
X15890500Y-6099000D02*
X15890500Y-6169000D01*
X15855500Y-6134000D02*
X15925500Y-6134000D01*
X15890500Y-7049000D02*
X15890500Y-7119000D01*
X15855500Y-7084000D02*
X15925500Y-7084000D01*
X7128284Y-9033285D02*
X7128284Y-8976716D01*
X7071715Y-8976716D01*
X7071715Y-9033285D01*
X7128284Y-9033285D01*
X7128284Y-9287285D02*
X7128284Y-9230716D01*
X7071715Y-9230716D01*
X7071715Y-9287285D01*
X7128284Y-9287285D01*
X7128284Y-9541285D02*
X7128284Y-9484716D01*
X7071715Y-9484716D01*
X7071715Y-9541285D01*
X7128284Y-9541285D01*
X7128284Y-9795285D02*
X7128284Y-9738716D01*
X7071715Y-9738716D01*
X7071715Y-9795285D01*
X7128284Y-9795285D01*
X7128284Y-10049285D02*
X7128284Y-9992716D01*
X7071715Y-9992716D01*
X7071715Y-10049285D01*
X7128284Y-10049285D01*
X7128284Y-10303285D02*
X7128284Y-10246716D01*
X7071715Y-10246716D01*
X7071715Y-10303285D01*
X7128284Y-10303285D01*
X7128284Y-10557285D02*
X7128284Y-10500716D01*
X7071715Y-10500716D01*
X7071715Y-10557285D01*
X7128284Y-10557285D01*
X7128284Y-10811285D02*
X7128284Y-10754716D01*
X7071715Y-10754716D01*
X7071715Y-10811285D01*
X7128284Y-10811285D01*
X7128284Y-11065285D02*
X7128284Y-11008716D01*
X7071715Y-11008716D01*
X7071715Y-11065285D01*
X7128284Y-11065285D01*
X7178284Y-14170284D02*
X7178284Y-14113715D01*
X7121715Y-14113715D01*
X7121715Y-14170284D01*
X7178284Y-14170284D01*
X7178284Y-14424284D02*
X7178284Y-14367715D01*
X7121715Y-14367715D01*
X7121715Y-14424284D01*
X7178284Y-14424284D01*
X7178284Y-14678284D02*
X7178284Y-14621715D01*
X7121715Y-14621715D01*
X7121715Y-14678284D01*
X7178284Y-14678284D01*
X7178284Y-14932284D02*
X7178284Y-14875715D01*
X7121715Y-14875715D01*
X7121715Y-14932284D01*
X7178284Y-14932284D01*
X7178284Y-15186284D02*
X7178284Y-15129715D01*
X7121715Y-15129715D01*
X7121715Y-15186284D01*
X7178284Y-15186284D01*
X7178284Y-15440284D02*
X7178284Y-15383715D01*
X7121715Y-15383715D01*
X7121715Y-15440284D01*
X7178284Y-15440284D01*
X7178284Y-15694284D02*
X7178284Y-15637715D01*
X7121715Y-15637715D01*
X7121715Y-15694284D01*
X7178284Y-15694284D01*
X7178284Y-15948284D02*
X7178284Y-15891715D01*
X7121715Y-15891715D01*
X7121715Y-15948284D01*
X7178284Y-15948284D01*
X7178284Y-16202284D02*
X7178284Y-16145715D01*
X7121715Y-16145715D01*
X7121715Y-16202284D01*
X7178284Y-16202284D01*
X7203284Y-2574285D02*
X7203284Y-2517716D01*
X7146715Y-2517716D01*
X7146715Y-2574285D01*
X7203284Y-2574285D01*
X7203284Y-2828284D02*
X7203284Y-2771716D01*
X7146715Y-2771716D01*
X7146715Y-2828284D01*
X7203284Y-2828284D01*
X7203284Y-3082284D02*
X7203284Y-3025715D01*
X7146715Y-3025715D01*
X7146715Y-3082284D01*
X7203284Y-3082284D01*
X7203284Y-3336284D02*
X7203284Y-3279715D01*
X7146715Y-3279715D01*
X7146715Y-3336284D01*
X7203284Y-3336284D01*
X7203284Y-3590284D02*
X7203284Y-3533715D01*
X7146715Y-3533715D01*
X7146715Y-3590284D01*
X7203284Y-3590284D01*
X7203284Y-3844284D02*
X7203284Y-3787715D01*
X7146715Y-3787715D01*
X7146715Y-3844284D01*
X7203284Y-3844284D01*
X7203284Y-4098284D02*
X7203284Y-4041715D01*
X7146715Y-4041715D01*
X7146715Y-4098284D01*
X7203284Y-4098284D01*
X7203284Y-4352285D02*
X7203284Y-4295716D01*
X7146715Y-4295716D01*
X7146715Y-4352285D01*
X7203284Y-4352285D01*
X7203284Y-5232285D02*
X7203284Y-5175716D01*
X7146715Y-5175716D01*
X7146715Y-5232285D01*
X7203284Y-5232285D01*
X7203284Y-5486285D02*
X7203284Y-5429716D01*
X7146715Y-5429716D01*
X7146715Y-5486285D01*
X7203284Y-5486285D01*
X7203284Y-5740284D02*
X7203284Y-5683715D01*
X7146715Y-5683715D01*
X7146715Y-5740284D01*
X7203284Y-5740284D01*
X7203284Y-5994284D02*
X7203284Y-5937715D01*
X7146715Y-5937715D01*
X7146715Y-5994284D01*
X7203284Y-5994284D01*
X7203284Y-6248284D02*
X7203284Y-6191715D01*
X7146715Y-6191715D01*
X7146715Y-6248284D01*
X7203284Y-6248284D01*
X7203284Y-6502284D02*
X7203284Y-6445715D01*
X7146715Y-6445715D01*
X7146715Y-6502284D01*
X7203284Y-6502284D01*
X7203284Y-6756284D02*
X7203284Y-6699715D01*
X7146715Y-6699715D01*
X7146715Y-6756284D01*
X7203284Y-6756284D01*
X7203284Y-7010284D02*
X7203284Y-6953715D01*
X7146715Y-6953715D01*
X7146715Y-7010284D01*
X7203284Y-7010284D01*
X7965284Y-2574285D02*
X7965284Y-2517716D01*
X7908715Y-2517716D01*
X7908715Y-2574285D01*
X7965284Y-2574285D01*
X7965284Y-2828284D02*
X7965284Y-2771716D01*
X7908715Y-2771716D01*
X7908715Y-2828284D01*
X7965284Y-2828284D01*
X7965284Y-3082284D02*
X7965284Y-3025715D01*
X7908715Y-3025715D01*
X7908715Y-3082284D01*
X7965284Y-3082284D01*
X7965284Y-3336284D02*
X7965284Y-3279715D01*
X7908715Y-3279715D01*
X7908715Y-3336284D01*
X7965284Y-3336284D01*
X7965284Y-3590284D02*
X7965284Y-3533715D01*
X7908715Y-3533715D01*
X7908715Y-3590284D01*
X7965284Y-3590284D01*
X7965284Y-3844284D02*
X7965284Y-3787715D01*
X7908715Y-3787715D01*
X7908715Y-3844284D01*
X7965284Y-3844284D01*
X7965284Y-4098284D02*
X7965284Y-4041715D01*
X7908715Y-4041715D01*
X7908715Y-4098284D01*
X7965284Y-4098284D01*
X7965284Y-4352285D02*
X7965284Y-4295716D01*
X7908715Y-4295716D01*
X7908715Y-4352285D01*
X7965284Y-4352285D01*
X7965284Y-5232285D02*
X7965284Y-5175716D01*
X7908715Y-5175716D01*
X7908715Y-5232285D01*
X7965284Y-5232285D01*
X7965284Y-5486285D02*
X7965284Y-5429716D01*
X7908715Y-5429716D01*
X7908715Y-5486285D01*
X7965284Y-5486285D01*
X7965284Y-5740284D02*
X7965284Y-5683715D01*
X7908715Y-5683715D01*
X7908715Y-5740284D01*
X7965284Y-5740284D01*
X7965284Y-5994284D02*
X7965284Y-5937715D01*
X7908715Y-5937715D01*
X7908715Y-5994284D01*
X7965284Y-5994284D01*
X7965284Y-6248284D02*
X7965284Y-6191715D01*
X7908715Y-6191715D01*
X7908715Y-6248284D01*
X7965284Y-6248284D01*
X7965284Y-6502284D02*
X7965284Y-6445715D01*
X7908715Y-6445715D01*
X7908715Y-6502284D01*
X7965284Y-6502284D01*
X7965284Y-6756284D02*
X7965284Y-6699715D01*
X7908715Y-6699715D01*
X7908715Y-6756284D01*
X7965284Y-6756284D01*
X7965284Y-7010284D02*
X7965284Y-6953715D01*
X7908715Y-6953715D01*
X7908715Y-7010284D01*
X7965284Y-7010284D01*
X9528285Y-2574285D02*
X9528285Y-2517716D01*
X9471716Y-2517716D01*
X9471716Y-2574285D01*
X9528285Y-2574285D01*
X9528285Y-2828284D02*
X9528285Y-2771716D01*
X9471716Y-2771716D01*
X9471716Y-2828284D01*
X9528285Y-2828284D01*
X9528285Y-3082284D02*
X9528285Y-3025715D01*
X9471716Y-3025715D01*
X9471716Y-3082284D01*
X9528285Y-3082284D01*
X9528285Y-3336284D02*
X9528285Y-3279715D01*
X9471716Y-3279715D01*
X9471716Y-3336284D01*
X9528285Y-3336284D01*
X9528285Y-3590284D02*
X9528285Y-3533715D01*
X9471716Y-3533715D01*
X9471716Y-3590284D01*
X9528285Y-3590284D01*
X9528285Y-3844284D02*
X9528285Y-3787715D01*
X9471716Y-3787715D01*
X9471716Y-3844284D01*
X9528285Y-3844284D01*
X9528285Y-4098284D02*
X9528285Y-4041715D01*
X9471716Y-4041715D01*
X9471716Y-4098284D01*
X9528285Y-4098284D01*
X9528285Y-4352285D02*
X9528285Y-4295716D01*
X9471716Y-4295716D01*
X9471716Y-4352285D01*
X9528285Y-4352285D01*
X9528285Y-5232285D02*
X9528285Y-5175716D01*
X9471716Y-5175716D01*
X9471716Y-5232285D01*
X9528285Y-5232285D01*
X9528285Y-5486285D02*
X9528285Y-5429716D01*
X9471716Y-5429716D01*
X9471716Y-5486285D01*
X9528285Y-5486285D01*
X9528285Y-5740284D02*
X9528285Y-5683715D01*
X9471716Y-5683715D01*
X9471716Y-5740284D01*
X9528285Y-5740284D01*
X9528285Y-5994284D02*
X9528285Y-5937715D01*
X9471716Y-5937715D01*
X9471716Y-5994284D01*
X9528285Y-5994284D01*
X9528285Y-6248284D02*
X9528285Y-6191715D01*
X9471716Y-6191715D01*
X9471716Y-6248284D01*
X9528285Y-6248284D01*
X9528285Y-6502284D02*
X9528285Y-6445715D01*
X9471716Y-6445715D01*
X9471716Y-6502284D01*
X9528285Y-6502284D01*
X9528285Y-6756284D02*
X9528285Y-6699715D01*
X9471716Y-6699715D01*
X9471716Y-6756284D01*
X9528285Y-6756284D01*
X9528285Y-7010284D02*
X9528285Y-6953715D01*
X9471716Y-6953715D01*
X9471716Y-7010284D01*
X9528285Y-7010284D01*
X10248285Y-11496284D02*
X10248285Y-11439715D01*
X10191716Y-11439715D01*
X10191716Y-11496284D01*
X10248285Y-11496284D01*
X10248285Y-12258284D02*
X10248285Y-12201715D01*
X10191716Y-12201715D01*
X10191716Y-12258284D01*
X10248285Y-12258284D01*
X10266285Y-9208285D02*
X10266285Y-9151716D01*
X10209716Y-9151716D01*
X10209716Y-9208285D01*
X10266285Y-9208285D01*
X10266285Y-9462285D02*
X10266285Y-9405716D01*
X10209716Y-9405716D01*
X10209716Y-9462285D01*
X10266285Y-9462285D01*
X10266285Y-9716285D02*
X10266285Y-9659716D01*
X10209716Y-9659716D01*
X10209716Y-9716285D01*
X10266285Y-9716285D01*
X10266285Y-9970285D02*
X10266285Y-9913716D01*
X10209716Y-9913716D01*
X10209716Y-9970285D01*
X10266285Y-9970285D01*
X10266285Y-10224285D02*
X10266285Y-10167716D01*
X10209716Y-10167716D01*
X10209716Y-10224285D01*
X10266285Y-10224285D01*
X10266285Y-10478285D02*
X10266285Y-10421716D01*
X10209716Y-10421716D01*
X10209716Y-10478285D01*
X10266285Y-10478285D01*
X10266285Y-10732285D02*
X10266285Y-10675716D01*
X10209716Y-10675716D01*
X10209716Y-10732285D01*
X10266285Y-10732285D01*
X10266285Y-10986285D02*
X10266285Y-10929716D01*
X10209716Y-10929716D01*
X10209716Y-10986285D01*
X10266285Y-10986285D01*
X10266285Y-14387784D02*
X10266285Y-14331215D01*
X10209716Y-14331215D01*
X10209716Y-14387784D01*
X10266285Y-14387784D01*
X10266285Y-14641784D02*
X10266285Y-14585215D01*
X10209716Y-14585215D01*
X10209716Y-14641784D01*
X10266285Y-14641784D01*
X10266285Y-14895784D02*
X10266285Y-14839215D01*
X10209716Y-14839215D01*
X10209716Y-14895784D01*
X10266285Y-14895784D01*
X10266285Y-15149784D02*
X10266285Y-15093215D01*
X10209716Y-15093215D01*
X10209716Y-15149784D01*
X10266285Y-15149784D01*
X10266285Y-15403784D02*
X10266285Y-15347215D01*
X10209716Y-15347215D01*
X10209716Y-15403784D01*
X10266285Y-15403784D01*
X10266285Y-15657784D02*
X10266285Y-15601215D01*
X10209716Y-15601215D01*
X10209716Y-15657784D01*
X10266285Y-15657784D01*
X10266285Y-15911784D02*
X10266285Y-15855215D01*
X10209716Y-15855215D01*
X10209716Y-15911784D01*
X10266285Y-15911784D01*
X10266285Y-16165784D02*
X10266285Y-16109215D01*
X10209716Y-16109215D01*
X10209716Y-16165784D01*
X10266285Y-16165784D01*
X10290285Y-2574285D02*
X10290285Y-2517716D01*
X10233716Y-2517716D01*
X10233716Y-2574285D01*
X10290285Y-2574285D01*
X10290285Y-2828284D02*
X10290285Y-2771716D01*
X10233716Y-2771716D01*
X10233716Y-2828284D01*
X10290285Y-2828284D01*
X10290285Y-3082284D02*
X10290285Y-3025715D01*
X10233716Y-3025715D01*
X10233716Y-3082284D01*
X10290285Y-3082284D01*
X10290285Y-3336284D02*
X10290285Y-3279715D01*
X10233716Y-3279715D01*
X10233716Y-3336284D01*
X10290285Y-3336284D01*
X10290285Y-3590284D02*
X10290285Y-3533715D01*
X10233716Y-3533715D01*
X10233716Y-3590284D01*
X10290285Y-3590284D01*
X10290285Y-3844284D02*
X10290285Y-3787715D01*
X10233716Y-3787715D01*
X10233716Y-3844284D01*
X10290285Y-3844284D01*
X10290285Y-4098284D02*
X10290285Y-4041715D01*
X10233716Y-4041715D01*
X10233716Y-4098284D01*
X10290285Y-4098284D01*
X10290285Y-4352285D02*
X10290285Y-4295716D01*
X10233716Y-4295716D01*
X10233716Y-4352285D01*
X10290285Y-4352285D01*
X10290285Y-5232285D02*
X10290285Y-5175716D01*
X10233716Y-5175716D01*
X10233716Y-5232285D01*
X10290285Y-5232285D01*
X10290285Y-5486285D02*
X10290285Y-5429716D01*
X10233716Y-5429716D01*
X10233716Y-5486285D01*
X10290285Y-5486285D01*
X10290285Y-5740284D02*
X10290285Y-5683715D01*
X10233716Y-5683715D01*
X10233716Y-5740284D01*
X10290285Y-5740284D01*
X10290285Y-5994284D02*
X10290285Y-5937715D01*
X10233716Y-5937715D01*
X10233716Y-5994284D01*
X10290285Y-5994284D01*
X10290285Y-6248284D02*
X10290285Y-6191715D01*
X10233716Y-6191715D01*
X10233716Y-6248284D01*
X10290285Y-6248284D01*
X10290285Y-6502284D02*
X10290285Y-6445715D01*
X10233716Y-6445715D01*
X10233716Y-6502284D01*
X10290285Y-6502284D01*
X10290285Y-6756284D02*
X10290285Y-6699715D01*
X10233716Y-6699715D01*
X10233716Y-6756284D01*
X10290285Y-6756284D01*
X10290285Y-7010284D02*
X10290285Y-6953715D01*
X10233716Y-6953715D01*
X10233716Y-7010284D01*
X10290285Y-7010284D01*
X10502285Y-11496284D02*
X10502285Y-11439715D01*
X10445716Y-11439715D01*
X10445716Y-11496284D01*
X10502285Y-11496284D01*
X10502285Y-12258284D02*
X10502285Y-12201715D01*
X10445716Y-12201715D01*
X10445716Y-12258284D01*
X10502285Y-12258284D01*
X10756285Y-11496284D02*
X10756285Y-11439715D01*
X10699716Y-11439715D01*
X10699716Y-11496284D01*
X10756285Y-11496284D01*
X10756285Y-12258284D02*
X10756285Y-12201715D01*
X10699716Y-12201715D01*
X10699716Y-12258284D01*
X10756285Y-12258284D01*
X11010285Y-11496284D02*
X11010285Y-11439715D01*
X10953716Y-11439715D01*
X10953716Y-11496284D01*
X11010285Y-11496284D01*
X11010285Y-12258284D02*
X11010285Y-12201715D01*
X10953716Y-12201715D01*
X10953716Y-12258284D01*
X11010285Y-12258284D01*
X11028285Y-9208285D02*
X11028285Y-9151716D01*
X10971716Y-9151716D01*
X10971716Y-9208285D01*
X11028285Y-9208285D01*
X11028285Y-9462285D02*
X11028285Y-9405716D01*
X10971716Y-9405716D01*
X10971716Y-9462285D01*
X11028285Y-9462285D01*
X11028285Y-9716285D02*
X11028285Y-9659716D01*
X10971716Y-9659716D01*
X10971716Y-9716285D01*
X11028285Y-9716285D01*
X11028285Y-9970285D02*
X11028285Y-9913716D01*
X10971716Y-9913716D01*
X10971716Y-9970285D01*
X11028285Y-9970285D01*
X11028285Y-10224285D02*
X11028285Y-10167716D01*
X10971716Y-10167716D01*
X10971716Y-10224285D01*
X11028285Y-10224285D01*
X11028285Y-10478285D02*
X11028285Y-10421716D01*
X10971716Y-10421716D01*
X10971716Y-10478285D01*
X11028285Y-10478285D01*
X11028285Y-10732285D02*
X11028285Y-10675716D01*
X10971716Y-10675716D01*
X10971716Y-10732285D01*
X11028285Y-10732285D01*
X11028285Y-10986285D02*
X11028285Y-10929716D01*
X10971716Y-10929716D01*
X10971716Y-10986285D01*
X11028285Y-10986285D01*
X11028285Y-14387784D02*
X11028285Y-14331215D01*
X10971716Y-14331215D01*
X10971716Y-14387784D01*
X11028285Y-14387784D01*
X11028285Y-14641784D02*
X11028285Y-14585215D01*
X10971716Y-14585215D01*
X10971716Y-14641784D01*
X11028285Y-14641784D01*
X11028285Y-14895784D02*
X11028285Y-14839215D01*
X10971716Y-14839215D01*
X10971716Y-14895784D01*
X11028285Y-14895784D01*
X11028285Y-15149784D02*
X11028285Y-15093215D01*
X10971716Y-15093215D01*
X10971716Y-15149784D01*
X11028285Y-15149784D01*
X11028285Y-15403784D02*
X11028285Y-15347215D01*
X10971716Y-15347215D01*
X10971716Y-15403784D01*
X11028285Y-15403784D01*
X11028285Y-15657784D02*
X11028285Y-15601215D01*
X10971716Y-15601215D01*
X10971716Y-15657784D01*
X11028285Y-15657784D01*
X11028285Y-15911784D02*
X11028285Y-15855215D01*
X10971716Y-15855215D01*
X10971716Y-15911784D01*
X11028285Y-15911784D01*
X11028285Y-16165784D02*
X11028285Y-16109215D01*
X10971716Y-16109215D01*
X10971716Y-16165784D01*
X11028285Y-16165784D01*
X12116284Y-5374285D02*
X12116284Y-5317716D01*
X12059715Y-5317716D01*
X12059715Y-5374285D01*
X12116284Y-5374285D01*
X12116284Y-5628284D02*
X12116284Y-5571716D01*
X12059715Y-5571716D01*
X12059715Y-5628284D01*
X12116284Y-5628284D01*
X12116284Y-5882284D02*
X12116284Y-5825715D01*
X12059715Y-5825715D01*
X12059715Y-5882284D01*
X12116284Y-5882284D01*
X12116284Y-6136284D02*
X12116284Y-6079715D01*
X12059715Y-6079715D01*
X12059715Y-6136284D01*
X12116284Y-6136284D01*
X12116284Y-6390284D02*
X12116284Y-6333715D01*
X12059715Y-6333715D01*
X12059715Y-6390284D01*
X12116284Y-6390284D01*
X12116284Y-6644284D02*
X12116284Y-6587715D01*
X12059715Y-6587715D01*
X12059715Y-6644284D01*
X12116284Y-6644284D01*
X12116284Y-6898284D02*
X12116284Y-6841715D01*
X12059715Y-6841715D01*
X12059715Y-6898284D01*
X12116284Y-6898284D01*
X12166284Y-2740285D02*
X12166284Y-2683716D01*
X12109715Y-2683716D01*
X12109715Y-2740285D01*
X12166284Y-2740285D01*
X12166284Y-2994284D02*
X12166284Y-2937715D01*
X12109715Y-2937715D01*
X12109715Y-2994284D01*
X12166284Y-2994284D01*
X12166284Y-3248284D02*
X12166284Y-3191715D01*
X12109715Y-3191715D01*
X12109715Y-3248284D01*
X12166284Y-3248284D01*
X12166284Y-3502284D02*
X12166284Y-3445715D01*
X12109715Y-3445715D01*
X12109715Y-3502284D01*
X12166284Y-3502284D01*
X12166284Y-3756284D02*
X12166284Y-3699715D01*
X12109715Y-3699715D01*
X12109715Y-3756284D01*
X12166284Y-3756284D01*
X12166284Y-4010284D02*
X12166284Y-3953715D01*
X12109715Y-3953715D01*
X12109715Y-4010284D01*
X12166284Y-4010284D01*
X12166284Y-4264285D02*
X12166284Y-4207716D01*
X12109715Y-4207716D01*
X12109715Y-4264285D01*
X12166284Y-4264285D01*
X12216284Y-13920284D02*
X12216284Y-13863715D01*
X12159715Y-13863715D01*
X12159715Y-13920284D01*
X12216284Y-13920284D01*
X12216284Y-14174284D02*
X12216284Y-14117715D01*
X12159715Y-14117715D01*
X12159715Y-14174284D01*
X12216284Y-14174284D01*
X12216284Y-14428284D02*
X12216284Y-14371715D01*
X12159715Y-14371715D01*
X12159715Y-14428284D01*
X12216284Y-14428284D01*
X12216284Y-14682284D02*
X12216284Y-14625715D01*
X12159715Y-14625715D01*
X12159715Y-14682284D01*
X12216284Y-14682284D01*
X12216284Y-14936284D02*
X12216284Y-14879715D01*
X12159715Y-14879715D01*
X12159715Y-14936284D01*
X12216284Y-14936284D01*
X12216284Y-15190284D02*
X12216284Y-15133715D01*
X12159715Y-15133715D01*
X12159715Y-15190284D01*
X12216284Y-15190284D01*
X12216284Y-15444284D02*
X12216284Y-15387715D01*
X12159715Y-15387715D01*
X12159715Y-15444284D01*
X12216284Y-15444284D01*
X12216284Y-15698284D02*
X12216284Y-15641715D01*
X12159715Y-15641715D01*
X12159715Y-15698284D01*
X12216284Y-15698284D01*
X12216284Y-15952284D02*
X12216284Y-15895715D01*
X12159715Y-15895715D01*
X12159715Y-15952284D01*
X12216284Y-15952284D01*
X12216284Y-16206284D02*
X12216284Y-16149715D01*
X12159715Y-16149715D01*
X12159715Y-16206284D01*
X12216284Y-16206284D01*
X12348784Y-13178284D02*
X12348784Y-13121715D01*
X12292215Y-13121715D01*
X12292215Y-13178284D01*
X12348784Y-13178284D01*
X12770284Y-9216285D02*
X12770284Y-9159716D01*
X12713715Y-9159716D01*
X12713715Y-9216285D01*
X12770284Y-9216285D01*
X12770284Y-9978285D02*
X12770284Y-9921716D01*
X12713715Y-9921716D01*
X12713715Y-9978285D01*
X12770284Y-9978285D01*
X12848784Y-13178284D02*
X12848784Y-13121715D01*
X12792215Y-13121715D01*
X12792215Y-13178284D01*
X12848784Y-13178284D01*
X12878284Y-5374285D02*
X12878284Y-5317716D01*
X12821715Y-5317716D01*
X12821715Y-5374285D01*
X12878284Y-5374285D01*
X12878284Y-5628284D02*
X12878284Y-5571716D01*
X12821715Y-5571716D01*
X12821715Y-5628284D01*
X12878284Y-5628284D01*
X12878284Y-5882284D02*
X12878284Y-5825715D01*
X12821715Y-5825715D01*
X12821715Y-5882284D01*
X12878284Y-5882284D01*
X12878284Y-6136284D02*
X12878284Y-6079715D01*
X12821715Y-6079715D01*
X12821715Y-6136284D01*
X12878284Y-6136284D01*
X12878284Y-6390284D02*
X12878284Y-6333715D01*
X12821715Y-6333715D01*
X12821715Y-6390284D01*
X12878284Y-6390284D01*
X12878284Y-6644284D02*
X12878284Y-6587715D01*
X12821715Y-6587715D01*
X12821715Y-6644284D01*
X12878284Y-6644284D01*
X12878284Y-6898284D02*
X12878284Y-6841715D01*
X12821715Y-6841715D01*
X12821715Y-6898284D01*
X12878284Y-6898284D01*
X12928284Y-2740285D02*
X12928284Y-2683716D01*
X12871715Y-2683716D01*
X12871715Y-2740285D01*
X12928284Y-2740285D01*
X12928284Y-2994284D02*
X12928284Y-2937715D01*
X12871715Y-2937715D01*
X12871715Y-2994284D01*
X12928284Y-2994284D01*
X12928284Y-3248284D02*
X12928284Y-3191715D01*
X12871715Y-3191715D01*
X12871715Y-3248284D01*
X12928284Y-3248284D01*
X12928284Y-3502284D02*
X12928284Y-3445715D01*
X12871715Y-3445715D01*
X12871715Y-3502284D01*
X12928284Y-3502284D01*
X12928284Y-3756284D02*
X12928284Y-3699715D01*
X12871715Y-3699715D01*
X12871715Y-3756284D01*
X12928284Y-3756284D01*
X12928284Y-4010284D02*
X12928284Y-3953715D01*
X12871715Y-3953715D01*
X12871715Y-4010284D01*
X12928284Y-4010284D01*
X12928284Y-4264285D02*
X12928284Y-4207716D01*
X12871715Y-4207716D01*
X12871715Y-4264285D01*
X12928284Y-4264285D01*
X12978284Y-13920284D02*
X12978284Y-13863715D01*
X12921715Y-13863715D01*
X12921715Y-13920284D01*
X12978284Y-13920284D01*
X12978284Y-14174284D02*
X12978284Y-14117715D01*
X12921715Y-14117715D01*
X12921715Y-14174284D01*
X12978284Y-14174284D01*
X12978284Y-14428284D02*
X12978284Y-14371715D01*
X12921715Y-14371715D01*
X12921715Y-14428284D01*
X12978284Y-14428284D01*
X12978284Y-14682284D02*
X12978284Y-14625715D01*
X12921715Y-14625715D01*
X12921715Y-14682284D01*
X12978284Y-14682284D01*
X12978284Y-14936284D02*
X12978284Y-14879715D01*
X12921715Y-14879715D01*
X12921715Y-14936284D01*
X12978284Y-14936284D01*
X12978284Y-15190284D02*
X12978284Y-15133715D01*
X12921715Y-15133715D01*
X12921715Y-15190284D01*
X12978284Y-15190284D01*
X12978284Y-15444284D02*
X12978284Y-15387715D01*
X12921715Y-15387715D01*
X12921715Y-15444284D01*
X12978284Y-15444284D01*
X12978284Y-15698284D02*
X12978284Y-15641715D01*
X12921715Y-15641715D01*
X12921715Y-15698284D01*
X12978284Y-15698284D01*
X12978284Y-15952284D02*
X12978284Y-15895715D01*
X12921715Y-15895715D01*
X12921715Y-15952284D01*
X12978284Y-15952284D01*
X12978284Y-16206284D02*
X12978284Y-16149715D01*
X12921715Y-16149715D01*
X12921715Y-16206284D01*
X12978284Y-16206284D01*
X13024284Y-9216285D02*
X13024284Y-9159716D01*
X12967715Y-9159716D01*
X12967715Y-9216285D01*
X13024284Y-9216285D01*
X13024284Y-9978285D02*
X13024284Y-9921716D01*
X12967715Y-9921716D01*
X12967715Y-9978285D01*
X13024284Y-9978285D01*
X13278284Y-9216285D02*
X13278284Y-9159716D01*
X13221715Y-9159716D01*
X13221715Y-9216285D01*
X13278284Y-9216285D01*
X13278284Y-9978285D02*
X13278284Y-9921716D01*
X13221715Y-9921716D01*
X13221715Y-9978285D01*
X13278284Y-9978285D01*
X13378284Y-11947284D02*
X13378284Y-11890715D01*
X13321715Y-11890715D01*
X13321715Y-11947284D01*
X13378284Y-11947284D01*
X13378284Y-12709284D02*
X13378284Y-12652715D01*
X13321715Y-12652715D01*
X13321715Y-12709284D01*
X13378284Y-12709284D01*
X13532284Y-9216285D02*
X13532284Y-9159716D01*
X13475715Y-9159716D01*
X13475715Y-9216285D01*
X13532284Y-9216285D01*
X13532284Y-9978285D02*
X13532284Y-9921716D01*
X13475715Y-9921716D01*
X13475715Y-9978285D01*
X13532284Y-9978285D01*
X13798284Y-11946284D02*
X13798284Y-11889715D01*
X13741715Y-11889715D01*
X13741715Y-11946284D01*
X13798284Y-11946284D01*
X13798284Y-12708284D02*
X13798284Y-12651715D01*
X13741715Y-12651715D01*
X13741715Y-12708284D01*
X13798284Y-12708284D01*
X13948284Y-14758284D02*
X13948284Y-14701715D01*
X13891715Y-14701715D01*
X13891715Y-14758284D01*
X13948284Y-14758284D01*
X13948284Y-15012284D02*
X13948284Y-14955715D01*
X13891715Y-14955715D01*
X13891715Y-15012284D01*
X13948284Y-15012284D01*
X13948284Y-15266284D02*
X13948284Y-15209715D01*
X13891715Y-15209715D01*
X13891715Y-15266284D01*
X13948284Y-15266284D01*
X13948284Y-15520284D02*
X13948284Y-15463715D01*
X13891715Y-15463715D01*
X13891715Y-15520284D01*
X13948284Y-15520284D01*
X13948284Y-15774284D02*
X13948284Y-15717715D01*
X13891715Y-15717715D01*
X13891715Y-15774284D01*
X13948284Y-15774284D01*
X13948284Y-16028284D02*
X13948284Y-15971715D01*
X13891715Y-15971715D01*
X13891715Y-16028284D01*
X13948284Y-16028284D01*
X13948284Y-16282284D02*
X13948284Y-16225715D01*
X13891715Y-16225715D01*
X13891715Y-16282284D01*
X13948284Y-16282284D01*
X13948284Y-16536284D02*
X13948284Y-16479715D01*
X13891715Y-16479715D01*
X13891715Y-16536284D01*
X13948284Y-16536284D01*
X14052284Y-11946284D02*
X14052284Y-11889715D01*
X13995715Y-11889715D01*
X13995715Y-11946284D01*
X14052284Y-11946284D01*
X14052284Y-12708284D02*
X14052284Y-12651715D01*
X13995715Y-12651715D01*
X13995715Y-12708284D01*
X14052284Y-12708284D01*
X14090284Y-17714535D02*
X14090284Y-17657966D01*
X14033715Y-17657966D01*
X14033715Y-17714535D01*
X14090284Y-17714535D01*
X14306284Y-11946284D02*
X14306284Y-11889715D01*
X14249715Y-11889715D01*
X14249715Y-11946284D01*
X14306284Y-11946284D01*
X14306284Y-12708284D02*
X14306284Y-12651715D01*
X14249715Y-12651715D01*
X14249715Y-12708284D01*
X14306284Y-12708284D01*
X14560284Y-11946284D02*
X14560284Y-11889715D01*
X14503715Y-11889715D01*
X14503715Y-11946284D01*
X14560284Y-11946284D01*
X14560284Y-12708284D02*
X14560284Y-12651715D01*
X14503715Y-12651715D01*
X14503715Y-12708284D01*
X14560284Y-12708284D01*
X14590284Y-17714535D02*
X14590284Y-17657966D01*
X14533715Y-17657966D01*
X14533715Y-17714535D01*
X14590284Y-17714535D01*
X14710284Y-14758284D02*
X14710284Y-14701715D01*
X14653715Y-14701715D01*
X14653715Y-14758284D01*
X14710284Y-14758284D01*
X14710284Y-15012284D02*
X14710284Y-14955715D01*
X14653715Y-14955715D01*
X14653715Y-15012284D01*
X14710284Y-15012284D01*
X14710284Y-15266284D02*
X14710284Y-15209715D01*
X14653715Y-15209715D01*
X14653715Y-15266284D01*
X14710284Y-15266284D01*
X14710284Y-15520284D02*
X14710284Y-15463715D01*
X14653715Y-15463715D01*
X14653715Y-15520284D01*
X14710284Y-15520284D01*
X14710284Y-15774284D02*
X14710284Y-15717715D01*
X14653715Y-15717715D01*
X14653715Y-15774284D01*
X14710284Y-15774284D01*
X14710284Y-16028284D02*
X14710284Y-15971715D01*
X14653715Y-15971715D01*
X14653715Y-16028284D01*
X14710284Y-16028284D01*
X14710284Y-16282284D02*
X14710284Y-16225715D01*
X14653715Y-16225715D01*
X14653715Y-16282284D01*
X14710284Y-16282284D01*
X14710284Y-16536284D02*
X14710284Y-16479715D01*
X14653715Y-16479715D01*
X14653715Y-16536284D01*
X14710284Y-16536284D01*
X16293284Y-12020284D02*
X16293284Y-11963715D01*
X16236715Y-11963715D01*
X16236715Y-12020284D01*
X16293284Y-12020284D01*
X16293284Y-13544284D02*
X16293284Y-13487715D01*
X16236715Y-13487715D01*
X16236715Y-13544284D01*
X16293284Y-13544284D01*
X8832500Y-8016000D02*
X8877500Y-7971000D01*
X8832500Y-7926000D01*
X8787500Y-7971000D01*
X8832500Y-8016000D01*
X8832500Y-8270000D02*
X8877500Y-8225000D01*
X8832500Y-8180000D01*
X8787500Y-8225000D01*
X8832500Y-8270000D01*
X8832500Y-8573140D02*
X8877500Y-8528140D01*
X8832500Y-8483140D01*
X8787500Y-8528140D01*
X8832500Y-8573140D01*
X8832500Y-8827140D02*
X8877500Y-8782140D01*
X8832500Y-8737140D01*
X8787500Y-8782140D01*
X8832500Y-8827140D01*
X8832500Y-9130290D02*
X8877500Y-9085290D01*
X8832500Y-9040290D01*
X8787500Y-9085290D01*
X8832500Y-9130290D01*
X8832500Y-9384290D02*
X8877500Y-9339290D01*
X8832500Y-9294290D01*
X8787500Y-9339290D01*
X8832500Y-9384290D01*
X8832500Y-9687430D02*
X8877500Y-9642430D01*
X8832500Y-9597430D01*
X8787500Y-9642430D01*
X8832500Y-9687430D01*
X8832500Y-9941430D02*
X8877500Y-9896430D01*
X8832500Y-9851430D01*
X8787500Y-9896430D01*
X8832500Y-9941430D01*
X8832500Y-10244570D02*
X8877500Y-10199570D01*
X8832500Y-10154570D01*
X8787500Y-10199570D01*
X8832500Y-10244570D01*
X8832500Y-10498570D02*
X8877500Y-10453570D01*
X8832500Y-10408570D01*
X8787500Y-10453570D01*
X8832500Y-10498570D01*
X8832500Y-10801710D02*
X8877500Y-10756710D01*
X8832500Y-10711710D01*
X8787500Y-10756710D01*
X8832500Y-10801710D01*
X8832500Y-11055710D02*
X8877500Y-11010710D01*
X8832500Y-10965710D01*
X8787500Y-11010710D01*
X8832500Y-11055710D01*
X8832500Y-11358860D02*
X8877500Y-11313860D01*
X8832500Y-11268860D01*
X8787500Y-11313860D01*
X8832500Y-11358860D01*
X8832500Y-11612860D02*
X8877500Y-11567860D01*
X8832500Y-11522860D01*
X8787500Y-11567860D01*
X8832500Y-11612860D01*
X8832500Y-11916000D02*
X8877500Y-11871000D01*
X8832500Y-11826000D01*
X8787500Y-11871000D01*
X8832500Y-11916000D01*
X8832500Y-12170000D02*
X8877500Y-12125000D01*
X8832500Y-12080000D01*
X8787500Y-12125000D01*
X8832500Y-12170000D01*
X8832500Y-13316000D02*
X8877500Y-13271000D01*
X8832500Y-13226000D01*
X8787500Y-13271000D01*
X8832500Y-13316000D01*
X8832500Y-13570000D02*
X8877500Y-13525000D01*
X8832500Y-13480000D01*
X8787500Y-13525000D01*
X8832500Y-13570000D01*
X8832500Y-13844570D02*
X8877500Y-13799570D01*
X8832500Y-13754570D01*
X8787500Y-13799570D01*
X8832500Y-13844570D01*
X8832500Y-14098570D02*
X8877500Y-14053570D01*
X8832500Y-14008570D01*
X8787500Y-14053570D01*
X8832500Y-14098570D01*
X8832500Y-14373140D02*
X8877500Y-14328140D01*
X8832500Y-14283140D01*
X8787500Y-14328140D01*
X8832500Y-14373140D01*
X8832500Y-14627140D02*
X8877500Y-14582140D01*
X8832500Y-14537140D01*
X8787500Y-14582140D01*
X8832500Y-14627140D01*
X8832500Y-14901710D02*
X8877500Y-14856710D01*
X8832500Y-14811710D01*
X8787500Y-14856710D01*
X8832500Y-14901710D01*
X8832500Y-15155710D02*
X8877500Y-15110710D01*
X8832500Y-15065710D01*
X8787500Y-15110710D01*
X8832500Y-15155710D01*
X8832500Y-15430290D02*
X8877500Y-15385290D01*
X8832500Y-15340290D01*
X8787500Y-15385290D01*
X8832500Y-15430290D01*
X8832500Y-15684290D02*
X8877500Y-15639290D01*
X8832500Y-15594290D01*
X8787500Y-15639290D01*
X8832500Y-15684290D01*
X8832500Y-15958860D02*
X8877500Y-15913860D01*
X8832500Y-15868860D01*
X8787500Y-15913860D01*
X8832500Y-15958860D01*
X8832500Y-16212860D02*
X8877500Y-16167860D01*
X8832500Y-16122860D01*
X8787500Y-16167860D01*
X8832500Y-16212860D01*
X8832500Y-16487430D02*
X8877500Y-16442430D01*
X8832500Y-16397430D01*
X8787500Y-16442430D01*
X8832500Y-16487430D01*
X8832500Y-16741430D02*
X8877500Y-16696430D01*
X8832500Y-16651430D01*
X8787500Y-16696430D01*
X8832500Y-16741430D01*
X8832500Y-17016000D02*
X8877500Y-16971000D01*
X8832500Y-16926000D01*
X8787500Y-16971000D01*
X8832500Y-17016000D01*
X8832500Y-17270000D02*
X8877500Y-17225000D01*
X8832500Y-17180000D01*
X8787500Y-17225000D01*
X8832500Y-17270000D01*
X15382500Y-2716000D02*
X15427500Y-2671000D01*
X15382500Y-2626000D01*
X15337500Y-2671000D01*
X15382500Y-2716000D01*
X15382500Y-2970000D02*
X15427500Y-2925000D01*
X15382500Y-2880000D01*
X15337500Y-2925000D01*
X15382500Y-2970000D01*
X15382500Y-3666000D02*
X15427500Y-3621000D01*
X15382500Y-3576000D01*
X15337500Y-3621000D01*
X15382500Y-3666000D01*
X15382500Y-3920000D02*
X15427500Y-3875000D01*
X15382500Y-3830000D01*
X15337500Y-3875000D01*
X15382500Y-3920000D01*
X15382500Y-4616000D02*
X15427500Y-4571000D01*
X15382500Y-4526000D01*
X15337500Y-4571000D01*
X15382500Y-4616000D01*
X15382500Y-4870000D02*
X15427500Y-4825000D01*
X15382500Y-4780000D01*
X15337500Y-4825000D01*
X15382500Y-4870000D01*
X15382500Y-5566000D02*
X15427500Y-5521000D01*
X15382500Y-5476000D01*
X15337500Y-5521000D01*
X15382500Y-5566000D01*
X15382500Y-5820000D02*
X15427500Y-5775000D01*
X15382500Y-5730000D01*
X15337500Y-5775000D01*
X15382500Y-5820000D01*
X15382500Y-6516000D02*
X15427500Y-6471000D01*
X15382500Y-6426000D01*
X15337500Y-6471000D01*
X15382500Y-6516000D01*
X15382500Y-6770000D02*
X15427500Y-6725000D01*
X15382500Y-6680000D01*
X15337500Y-6725000D01*
X15382500Y-6770000D01*
D13*
X14694000Y-10811500D02*
X14796000Y-10913500D01*
X14796000Y-10811500D02*
X14694000Y-10913500D01*
X14796000Y-10862500D02*
G75*
G02*
X14694000Y-10862500I-51000J0D01*
G01*
X14694000Y-10862500D02*
G75*
G02*
X14796000Y-10862500I51000J0D01*
G01*
X14948000Y-10811500D02*
X15050000Y-10913500D01*
X15050000Y-10811500D02*
X14948000Y-10913500D01*
X15050000Y-10862500D02*
G75*
G02*
X14948000Y-10862500I-51000J0D01*
G01*
X14948000Y-10862500D02*
G75*
G02*
X15050000Y-10862500I51000J0D01*
G01*
X15202000Y-10811500D02*
X15304000Y-10913500D01*
X15304000Y-10811500D02*
X15202000Y-10913500D01*
X15304000Y-10862500D02*
G75*
G02*
X15202000Y-10862500I-51000J0D01*
G01*
X15202000Y-10862500D02*
G75*
G02*
X15304000Y-10862500I51000J0D01*
G01*
D14*
X13964500Y-14211250D02*
X14094500Y-14341250D01*
X14094500Y-14211250D02*
X13964500Y-14341250D01*
X14029500Y-14211250D02*
X14029500Y-14341250D01*
X13964500Y-14276250D02*
X14094500Y-14276250D01*
X14214500Y-13211250D02*
X14344500Y-13341250D01*
X14344500Y-13211250D02*
X14214500Y-13341250D01*
X14279500Y-13211250D02*
X14279500Y-13341250D01*
X14214500Y-13276250D02*
X14344500Y-13276250D01*
X14464500Y-14211250D02*
X14594500Y-14341250D01*
X14594500Y-14211250D02*
X14464500Y-14341250D01*
X14529500Y-14211250D02*
X14529500Y-14341250D01*
X14464500Y-14276250D02*
X14594500Y-14276250D01*
D15*
X15887500Y-7921750D02*
X16062500Y-8096750D01*
X16062500Y-7921750D02*
X15887500Y-8096750D01*
X16036872Y-8071122D02*
X16036872Y-7947378D01*
X15913128Y-7947378D01*
X15913128Y-8071122D01*
X16036872Y-8071122D01*
X15887500Y-8309750D02*
X16062500Y-8484750D01*
X16062500Y-8309750D02*
X15887500Y-8484750D01*
X16036872Y-8459122D02*
X16036872Y-8335378D01*
X15913128Y-8335378D01*
X15913128Y-8459122D01*
X16036872Y-8459122D01*
X15887500Y-8871750D02*
X16062500Y-9046750D01*
X16062500Y-8871750D02*
X15887500Y-9046750D01*
X16036872Y-9021122D02*
X16036872Y-8897378D01*
X15913128Y-8897378D01*
X15913128Y-9021122D01*
X16036872Y-9021122D01*
X15887500Y-9259750D02*
X16062500Y-9434750D01*
X16062500Y-9259750D02*
X15887500Y-9434750D01*
X16036872Y-9409122D02*
X16036872Y-9285378D01*
X15913128Y-9285378D01*
X15913128Y-9409122D01*
X16036872Y-9409122D01*
D11*
X6508277Y-18513984D02*
X6508277Y-18313984D01*
X6508277Y-18313984D02*
X6555896Y-18313984D01*
X6555896Y-18313984D02*
X6584467Y-18323508D01*
X6584467Y-18323508D02*
X6603515Y-18342555D01*
X6603515Y-18342555D02*
X6613039Y-18361603D01*
X6613039Y-18361603D02*
X6622562Y-18399698D01*
X6622562Y-18399698D02*
X6622562Y-18428270D01*
X6622562Y-18428270D02*
X6613039Y-18466365D01*
X6613039Y-18466365D02*
X6603515Y-18485412D01*
X6603515Y-18485412D02*
X6584467Y-18504460D01*
X6584467Y-18504460D02*
X6555896Y-18513984D01*
X6555896Y-18513984D02*
X6508277Y-18513984D01*
X6708277Y-18513984D02*
X6708277Y-18380650D01*
X6708277Y-18418746D02*
X6717801Y-18399698D01*
X6717801Y-18399698D02*
X6727324Y-18390174D01*
X6727324Y-18390174D02*
X6746372Y-18380650D01*
X6746372Y-18380650D02*
X6765420Y-18380650D01*
X6832086Y-18513984D02*
X6832086Y-18380650D01*
X6832086Y-18313984D02*
X6822562Y-18323508D01*
X6822562Y-18323508D02*
X6832086Y-18333031D01*
X6832086Y-18333031D02*
X6841610Y-18323508D01*
X6841610Y-18323508D02*
X6832086Y-18313984D01*
X6832086Y-18313984D02*
X6832086Y-18333031D01*
X6955896Y-18513984D02*
X6936848Y-18504460D01*
X6936848Y-18504460D02*
X6927324Y-18485412D01*
X6927324Y-18485412D02*
X6927324Y-18313984D01*
X7060658Y-18513984D02*
X7041610Y-18504460D01*
X7041610Y-18504460D02*
X7032086Y-18485412D01*
X7032086Y-18485412D02*
X7032086Y-18313984D01*
X7289229Y-18513984D02*
X7289229Y-18313984D01*
X7289229Y-18313984D02*
X7355896Y-18456841D01*
X7355896Y-18456841D02*
X7422562Y-18313984D01*
X7422562Y-18313984D02*
X7422562Y-18513984D01*
X7603515Y-18513984D02*
X7603515Y-18409222D01*
X7603515Y-18409222D02*
X7593991Y-18390174D01*
X7593991Y-18390174D02*
X7574943Y-18380650D01*
X7574943Y-18380650D02*
X7536848Y-18380650D01*
X7536848Y-18380650D02*
X7517801Y-18390174D01*
X7603515Y-18504460D02*
X7584467Y-18513984D01*
X7584467Y-18513984D02*
X7536848Y-18513984D01*
X7536848Y-18513984D02*
X7517801Y-18504460D01*
X7517801Y-18504460D02*
X7508277Y-18485412D01*
X7508277Y-18485412D02*
X7508277Y-18466365D01*
X7508277Y-18466365D02*
X7517801Y-18447317D01*
X7517801Y-18447317D02*
X7536848Y-18437793D01*
X7536848Y-18437793D02*
X7584467Y-18437793D01*
X7584467Y-18437793D02*
X7603515Y-18428270D01*
X7698753Y-18380650D02*
X7698753Y-18580650D01*
X7698753Y-18390174D02*
X7717801Y-18380650D01*
X7717801Y-18380650D02*
X7755896Y-18380650D01*
X7755896Y-18380650D02*
X7774943Y-18390174D01*
X7774943Y-18390174D02*
X7784467Y-18399698D01*
X7784467Y-18399698D02*
X7793991Y-18418746D01*
X7793991Y-18418746D02*
X7793991Y-18475889D01*
X7793991Y-18475889D02*
X7784467Y-18494936D01*
X7784467Y-18494936D02*
X7774943Y-18504460D01*
X7774943Y-18504460D02*
X7755896Y-18513984D01*
X7755896Y-18513984D02*
X7717801Y-18513984D01*
X7717801Y-18513984D02*
X7698753Y-18504460D01*
X7879705Y-18494936D02*
X7889229Y-18504460D01*
X7889229Y-18504460D02*
X7879705Y-18513984D01*
X7879705Y-18513984D02*
X7870182Y-18504460D01*
X7870182Y-18504460D02*
X7879705Y-18494936D01*
X7879705Y-18494936D02*
X7879705Y-18513984D01*
X7879705Y-18390174D02*
X7889229Y-18399698D01*
X7889229Y-18399698D02*
X7879705Y-18409222D01*
X7879705Y-18409222D02*
X7870182Y-18399698D01*
X7870182Y-18399698D02*
X7879705Y-18390174D01*
X7879705Y-18390174D02*
X7879705Y-18409222D01*
D12*
X6207500Y-18822500D02*
X6247500Y-18862500D01*
X6247500Y-18822500D02*
X6207500Y-18862500D01*
D11*
X6546372Y-18733984D02*
X6565420Y-18733984D01*
X6565420Y-18733984D02*
X6584467Y-18743508D01*
X6584467Y-18743508D02*
X6593991Y-18753031D01*
X6593991Y-18753031D02*
X6603515Y-18772079D01*
X6603515Y-18772079D02*
X6613039Y-18810174D01*
X6613039Y-18810174D02*
X6613039Y-18857793D01*
X6613039Y-18857793D02*
X6603515Y-18895889D01*
X6603515Y-18895889D02*
X6593991Y-18914936D01*
X6593991Y-18914936D02*
X6584467Y-18924460D01*
X6584467Y-18924460D02*
X6565420Y-18933984D01*
X6565420Y-18933984D02*
X6546372Y-18933984D01*
X6546372Y-18933984D02*
X6527324Y-18924460D01*
X6527324Y-18924460D02*
X6517801Y-18914936D01*
X6517801Y-18914936D02*
X6508277Y-18895889D01*
X6508277Y-18895889D02*
X6498753Y-18857793D01*
X6498753Y-18857793D02*
X6498753Y-18810174D01*
X6498753Y-18810174D02*
X6508277Y-18772079D01*
X6508277Y-18772079D02*
X6517801Y-18753031D01*
X6517801Y-18753031D02*
X6527324Y-18743508D01*
X6527324Y-18743508D02*
X6546372Y-18733984D01*
X6698753Y-18914936D02*
X6708277Y-18924460D01*
X6708277Y-18924460D02*
X6698753Y-18933984D01*
X6698753Y-18933984D02*
X6689229Y-18924460D01*
X6689229Y-18924460D02*
X6698753Y-18914936D01*
X6698753Y-18914936D02*
X6698753Y-18933984D01*
X6879705Y-18800650D02*
X6879705Y-18933984D01*
X6832086Y-18724460D02*
X6784467Y-18867317D01*
X6784467Y-18867317D02*
X6908277Y-18867317D01*
X7022562Y-18733984D02*
X7041610Y-18733984D01*
X7041610Y-18733984D02*
X7060658Y-18743508D01*
X7060658Y-18743508D02*
X7070182Y-18753031D01*
X7070182Y-18753031D02*
X7079705Y-18772079D01*
X7079705Y-18772079D02*
X7089229Y-18810174D01*
X7089229Y-18810174D02*
X7089229Y-18857793D01*
X7089229Y-18857793D02*
X7079705Y-18895889D01*
X7079705Y-18895889D02*
X7070182Y-18914936D01*
X7070182Y-18914936D02*
X7060658Y-18924460D01*
X7060658Y-18924460D02*
X7041610Y-18933984D01*
X7041610Y-18933984D02*
X7022562Y-18933984D01*
X7022562Y-18933984D02*
X7003515Y-18924460D01*
X7003515Y-18924460D02*
X6993991Y-18914936D01*
X6993991Y-18914936D02*
X6984467Y-18895889D01*
X6984467Y-18895889D02*
X6974943Y-18857793D01*
X6974943Y-18857793D02*
X6974943Y-18810174D01*
X6974943Y-18810174D02*
X6984467Y-18772079D01*
X6984467Y-18772079D02*
X6993991Y-18753031D01*
X6993991Y-18753031D02*
X7003515Y-18743508D01*
X7003515Y-18743508D02*
X7022562Y-18733984D01*
X7213039Y-18733984D02*
X7232086Y-18733984D01*
X7232086Y-18733984D02*
X7251134Y-18743508D01*
X7251134Y-18743508D02*
X7260658Y-18753031D01*
X7260658Y-18753031D02*
X7270182Y-18772079D01*
X7270182Y-18772079D02*
X7279705Y-18810174D01*
X7279705Y-18810174D02*
X7279705Y-18857793D01*
X7279705Y-18857793D02*
X7270182Y-18895889D01*
X7270182Y-18895889D02*
X7260658Y-18914936D01*
X7260658Y-18914936D02*
X7251134Y-18924460D01*
X7251134Y-18924460D02*
X7232086Y-18933984D01*
X7232086Y-18933984D02*
X7213039Y-18933984D01*
X7213039Y-18933984D02*
X7193991Y-18924460D01*
X7193991Y-18924460D02*
X7184467Y-18914936D01*
X7184467Y-18914936D02*
X7174943Y-18895889D01*
X7174943Y-18895889D02*
X7165420Y-18857793D01*
X7165420Y-18857793D02*
X7165420Y-18810174D01*
X7165420Y-18810174D02*
X7174943Y-18772079D01*
X7174943Y-18772079D02*
X7184467Y-18753031D01*
X7184467Y-18753031D02*
X7193991Y-18743508D01*
X7193991Y-18743508D02*
X7213039Y-18733984D01*
X7365420Y-18933984D02*
X7365420Y-18800650D01*
X7365420Y-18819698D02*
X7374943Y-18810174D01*
X7374943Y-18810174D02*
X7393991Y-18800650D01*
X7393991Y-18800650D02*
X7422563Y-18800650D01*
X7422563Y-18800650D02*
X7441610Y-18810174D01*
X7441610Y-18810174D02*
X7451134Y-18829222D01*
X7451134Y-18829222D02*
X7451134Y-18933984D01*
X7451134Y-18829222D02*
X7460658Y-18810174D01*
X7460658Y-18810174D02*
X7479705Y-18800650D01*
X7479705Y-18800650D02*
X7508277Y-18800650D01*
X7508277Y-18800650D02*
X7527324Y-18810174D01*
X7527324Y-18810174D02*
X7536848Y-18829222D01*
X7536848Y-18829222D02*
X7536848Y-18933984D01*
X7632086Y-18933984D02*
X7632086Y-18800650D01*
X7632086Y-18819698D02*
X7641610Y-18810174D01*
X7641610Y-18810174D02*
X7660658Y-18800650D01*
X7660658Y-18800650D02*
X7689229Y-18800650D01*
X7689229Y-18800650D02*
X7708277Y-18810174D01*
X7708277Y-18810174D02*
X7717801Y-18829222D01*
X7717801Y-18829222D02*
X7717801Y-18933984D01*
X7717801Y-18829222D02*
X7727324Y-18810174D01*
X7727324Y-18810174D02*
X7746372Y-18800650D01*
X7746372Y-18800650D02*
X7774943Y-18800650D01*
X7774943Y-18800650D02*
X7793991Y-18810174D01*
X7793991Y-18810174D02*
X7803515Y-18829222D01*
X7803515Y-18829222D02*
X7803515Y-18933984D01*
X8193991Y-18724460D02*
X8022563Y-18981603D01*
X8451134Y-18733984D02*
X8470182Y-18733984D01*
X8470182Y-18733984D02*
X8489229Y-18743508D01*
X8489229Y-18743508D02*
X8498753Y-18753031D01*
X8498753Y-18753031D02*
X8508277Y-18772079D01*
X8508277Y-18772079D02*
X8517801Y-18810174D01*
X8517801Y-18810174D02*
X8517801Y-18857793D01*
X8517801Y-18857793D02*
X8508277Y-18895889D01*
X8508277Y-18895889D02*
X8498753Y-18914936D01*
X8498753Y-18914936D02*
X8489229Y-18924460D01*
X8489229Y-18924460D02*
X8470182Y-18933984D01*
X8470182Y-18933984D02*
X8451134Y-18933984D01*
X8451134Y-18933984D02*
X8432087Y-18924460D01*
X8432087Y-18924460D02*
X8422563Y-18914936D01*
X8422563Y-18914936D02*
X8413039Y-18895889D01*
X8413039Y-18895889D02*
X8403515Y-18857793D01*
X8403515Y-18857793D02*
X8403515Y-18810174D01*
X8403515Y-18810174D02*
X8413039Y-18772079D01*
X8413039Y-18772079D02*
X8422563Y-18753031D01*
X8422563Y-18753031D02*
X8432087Y-18743508D01*
X8432087Y-18743508D02*
X8451134Y-18733984D01*
X8603515Y-18914936D02*
X8613039Y-18924460D01*
X8613039Y-18924460D02*
X8603515Y-18933984D01*
X8603515Y-18933984D02*
X8593991Y-18924460D01*
X8593991Y-18924460D02*
X8603515Y-18914936D01*
X8603515Y-18914936D02*
X8603515Y-18933984D01*
X8736848Y-18733984D02*
X8755896Y-18733984D01*
X8755896Y-18733984D02*
X8774944Y-18743508D01*
X8774944Y-18743508D02*
X8784468Y-18753031D01*
X8784468Y-18753031D02*
X8793991Y-18772079D01*
X8793991Y-18772079D02*
X8803515Y-18810174D01*
X8803515Y-18810174D02*
X8803515Y-18857793D01*
X8803515Y-18857793D02*
X8793991Y-18895889D01*
X8793991Y-18895889D02*
X8784468Y-18914936D01*
X8784468Y-18914936D02*
X8774944Y-18924460D01*
X8774944Y-18924460D02*
X8755896Y-18933984D01*
X8755896Y-18933984D02*
X8736848Y-18933984D01*
X8736848Y-18933984D02*
X8717801Y-18924460D01*
X8717801Y-18924460D02*
X8708277Y-18914936D01*
X8708277Y-18914936D02*
X8698753Y-18895889D01*
X8698753Y-18895889D02*
X8689229Y-18857793D01*
X8689229Y-18857793D02*
X8689229Y-18810174D01*
X8689229Y-18810174D02*
X8698753Y-18772079D01*
X8698753Y-18772079D02*
X8708277Y-18753031D01*
X8708277Y-18753031D02*
X8717801Y-18743508D01*
X8717801Y-18743508D02*
X8736848Y-18733984D01*
X8993991Y-18933984D02*
X8879706Y-18933984D01*
X8936848Y-18933984D02*
X8936848Y-18733984D01*
X8936848Y-18733984D02*
X8917801Y-18762555D01*
X8917801Y-18762555D02*
X8898753Y-18781603D01*
X8898753Y-18781603D02*
X8879706Y-18791127D01*
X9174944Y-18733984D02*
X9079706Y-18733984D01*
X9079706Y-18733984D02*
X9070182Y-18829222D01*
X9070182Y-18829222D02*
X9079706Y-18819698D01*
X9079706Y-18819698D02*
X9098753Y-18810174D01*
X9098753Y-18810174D02*
X9146372Y-18810174D01*
X9146372Y-18810174D02*
X9165420Y-18819698D01*
X9165420Y-18819698D02*
X9174944Y-18829222D01*
X9174944Y-18829222D02*
X9184468Y-18848270D01*
X9184468Y-18848270D02*
X9184468Y-18895889D01*
X9184468Y-18895889D02*
X9174944Y-18914936D01*
X9174944Y-18914936D02*
X9165420Y-18924460D01*
X9165420Y-18924460D02*
X9146372Y-18933984D01*
X9146372Y-18933984D02*
X9098753Y-18933984D01*
X9098753Y-18933984D02*
X9079706Y-18924460D01*
X9079706Y-18924460D02*
X9070182Y-18914936D01*
X9251134Y-18733984D02*
X9384468Y-18733984D01*
X9384468Y-18733984D02*
X9298753Y-18933984D01*
X9451134Y-18733984D02*
X9451134Y-18772079D01*
X9527325Y-18733984D02*
X9527325Y-18772079D01*
X9822563Y-19010174D02*
X9813039Y-19000650D01*
X9813039Y-19000650D02*
X9793991Y-18972079D01*
X9793991Y-18972079D02*
X9784468Y-18953031D01*
X9784468Y-18953031D02*
X9774944Y-18924460D01*
X9774944Y-18924460D02*
X9765420Y-18876841D01*
X9765420Y-18876841D02*
X9765420Y-18838746D01*
X9765420Y-18838746D02*
X9774944Y-18791127D01*
X9774944Y-18791127D02*
X9784468Y-18762555D01*
X9784468Y-18762555D02*
X9793991Y-18743508D01*
X9793991Y-18743508D02*
X9813039Y-18714936D01*
X9813039Y-18714936D02*
X9822563Y-18705412D01*
X9889230Y-18753031D02*
X9898753Y-18743508D01*
X9898753Y-18743508D02*
X9917801Y-18733984D01*
X9917801Y-18733984D02*
X9965420Y-18733984D01*
X9965420Y-18733984D02*
X9984468Y-18743508D01*
X9984468Y-18743508D02*
X9993991Y-18753031D01*
X9993991Y-18753031D02*
X10003515Y-18772079D01*
X10003515Y-18772079D02*
X10003515Y-18791127D01*
X10003515Y-18791127D02*
X9993991Y-18819698D01*
X9993991Y-18819698D02*
X9879706Y-18933984D01*
X9879706Y-18933984D02*
X10003515Y-18933984D01*
X10184468Y-18733984D02*
X10089230Y-18733984D01*
X10089230Y-18733984D02*
X10079706Y-18829222D01*
X10079706Y-18829222D02*
X10089230Y-18819698D01*
X10089230Y-18819698D02*
X10108277Y-18810174D01*
X10108277Y-18810174D02*
X10155896Y-18810174D01*
X10155896Y-18810174D02*
X10174944Y-18819698D01*
X10174944Y-18819698D02*
X10184468Y-18829222D01*
X10184468Y-18829222D02*
X10193991Y-18848270D01*
X10193991Y-18848270D02*
X10193991Y-18895889D01*
X10193991Y-18895889D02*
X10184468Y-18914936D01*
X10184468Y-18914936D02*
X10174944Y-18924460D01*
X10174944Y-18924460D02*
X10155896Y-18933984D01*
X10155896Y-18933984D02*
X10108277Y-18933984D01*
X10108277Y-18933984D02*
X10089230Y-18924460D01*
X10089230Y-18924460D02*
X10079706Y-18914936D01*
X10432087Y-18933984D02*
X10432087Y-18733984D01*
X10517801Y-18933984D02*
X10517801Y-18829222D01*
X10517801Y-18829222D02*
X10508277Y-18810174D01*
X10508277Y-18810174D02*
X10489230Y-18800650D01*
X10489230Y-18800650D02*
X10460658Y-18800650D01*
X10460658Y-18800650D02*
X10441611Y-18810174D01*
X10441611Y-18810174D02*
X10432087Y-18819698D01*
X10641611Y-18933984D02*
X10622563Y-18924460D01*
X10622563Y-18924460D02*
X10613039Y-18914936D01*
X10613039Y-18914936D02*
X10603515Y-18895889D01*
X10603515Y-18895889D02*
X10603515Y-18838746D01*
X10603515Y-18838746D02*
X10613039Y-18819698D01*
X10613039Y-18819698D02*
X10622563Y-18810174D01*
X10622563Y-18810174D02*
X10641611Y-18800650D01*
X10641611Y-18800650D02*
X10670182Y-18800650D01*
X10670182Y-18800650D02*
X10689230Y-18810174D01*
X10689230Y-18810174D02*
X10698753Y-18819698D01*
X10698753Y-18819698D02*
X10708277Y-18838746D01*
X10708277Y-18838746D02*
X10708277Y-18895889D01*
X10708277Y-18895889D02*
X10698753Y-18914936D01*
X10698753Y-18914936D02*
X10689230Y-18924460D01*
X10689230Y-18924460D02*
X10670182Y-18933984D01*
X10670182Y-18933984D02*
X10641611Y-18933984D01*
X10822563Y-18933984D02*
X10803515Y-18924460D01*
X10803515Y-18924460D02*
X10793992Y-18905412D01*
X10793992Y-18905412D02*
X10793992Y-18733984D01*
X10974944Y-18924460D02*
X10955896Y-18933984D01*
X10955896Y-18933984D02*
X10917801Y-18933984D01*
X10917801Y-18933984D02*
X10898753Y-18924460D01*
X10898753Y-18924460D02*
X10889230Y-18905412D01*
X10889230Y-18905412D02*
X10889230Y-18829222D01*
X10889230Y-18829222D02*
X10898753Y-18810174D01*
X10898753Y-18810174D02*
X10917801Y-18800650D01*
X10917801Y-18800650D02*
X10955896Y-18800650D01*
X10955896Y-18800650D02*
X10974944Y-18810174D01*
X10974944Y-18810174D02*
X10984468Y-18829222D01*
X10984468Y-18829222D02*
X10984468Y-18848270D01*
X10984468Y-18848270D02*
X10889230Y-18867317D01*
X11060658Y-18924460D02*
X11079706Y-18933984D01*
X11079706Y-18933984D02*
X11117801Y-18933984D01*
X11117801Y-18933984D02*
X11136849Y-18924460D01*
X11136849Y-18924460D02*
X11146373Y-18905412D01*
X11146373Y-18905412D02*
X11146373Y-18895889D01*
X11146373Y-18895889D02*
X11136849Y-18876841D01*
X11136849Y-18876841D02*
X11117801Y-18867317D01*
X11117801Y-18867317D02*
X11089230Y-18867317D01*
X11089230Y-18867317D02*
X11070182Y-18857793D01*
X11070182Y-18857793D02*
X11060658Y-18838746D01*
X11060658Y-18838746D02*
X11060658Y-18829222D01*
X11060658Y-18829222D02*
X11070182Y-18810174D01*
X11070182Y-18810174D02*
X11089230Y-18800650D01*
X11089230Y-18800650D02*
X11117801Y-18800650D01*
X11117801Y-18800650D02*
X11136849Y-18810174D01*
X11213039Y-19010174D02*
X11222563Y-19000650D01*
X11222563Y-19000650D02*
X11241611Y-18972079D01*
X11241611Y-18972079D02*
X11251134Y-18953031D01*
X11251134Y-18953031D02*
X11260658Y-18924460D01*
X11260658Y-18924460D02*
X11270182Y-18876841D01*
X11270182Y-18876841D02*
X11270182Y-18838746D01*
X11270182Y-18838746D02*
X11260658Y-18791127D01*
X11260658Y-18791127D02*
X11251134Y-18762555D01*
X11251134Y-18762555D02*
X11241611Y-18743508D01*
X11241611Y-18743508D02*
X11222563Y-18714936D01*
X11222563Y-18714936D02*
X11213039Y-18705412D01*
D12*
X6247500Y-19106500D02*
G75*
G02*
X6197500Y-19106500I-25000J0D01*
G01*
X6197500Y-19106500D02*
G75*
G02*
X6247500Y-19106500I25000J0D01*
G01*
D11*
X6546372Y-18997984D02*
X6565420Y-18997984D01*
X6565420Y-18997984D02*
X6584467Y-19007508D01*
X6584467Y-19007508D02*
X6593991Y-19017031D01*
X6593991Y-19017031D02*
X6603515Y-19036079D01*
X6603515Y-19036079D02*
X6613039Y-19074174D01*
X6613039Y-19074174D02*
X6613039Y-19121793D01*
X6613039Y-19121793D02*
X6603515Y-19159889D01*
X6603515Y-19159889D02*
X6593991Y-19178936D01*
X6593991Y-19178936D02*
X6584467Y-19188460D01*
X6584467Y-19188460D02*
X6565420Y-19197984D01*
X6565420Y-19197984D02*
X6546372Y-19197984D01*
X6546372Y-19197984D02*
X6527324Y-19188460D01*
X6527324Y-19188460D02*
X6517801Y-19178936D01*
X6517801Y-19178936D02*
X6508277Y-19159889D01*
X6508277Y-19159889D02*
X6498753Y-19121793D01*
X6498753Y-19121793D02*
X6498753Y-19074174D01*
X6498753Y-19074174D02*
X6508277Y-19036079D01*
X6508277Y-19036079D02*
X6517801Y-19017031D01*
X6517801Y-19017031D02*
X6527324Y-19007508D01*
X6527324Y-19007508D02*
X6546372Y-18997984D01*
X6698753Y-19178936D02*
X6708277Y-19188460D01*
X6708277Y-19188460D02*
X6698753Y-19197984D01*
X6698753Y-19197984D02*
X6689229Y-19188460D01*
X6689229Y-19188460D02*
X6698753Y-19178936D01*
X6698753Y-19178936D02*
X6698753Y-19197984D01*
X6889229Y-18997984D02*
X6793991Y-18997984D01*
X6793991Y-18997984D02*
X6784467Y-19093222D01*
X6784467Y-19093222D02*
X6793991Y-19083698D01*
X6793991Y-19083698D02*
X6813039Y-19074174D01*
X6813039Y-19074174D02*
X6860658Y-19074174D01*
X6860658Y-19074174D02*
X6879705Y-19083698D01*
X6879705Y-19083698D02*
X6889229Y-19093222D01*
X6889229Y-19093222D02*
X6898753Y-19112270D01*
X6898753Y-19112270D02*
X6898753Y-19159889D01*
X6898753Y-19159889D02*
X6889229Y-19178936D01*
X6889229Y-19178936D02*
X6879705Y-19188460D01*
X6879705Y-19188460D02*
X6860658Y-19197984D01*
X6860658Y-19197984D02*
X6813039Y-19197984D01*
X6813039Y-19197984D02*
X6793991Y-19188460D01*
X6793991Y-19188460D02*
X6784467Y-19178936D01*
X7022562Y-18997984D02*
X7041610Y-18997984D01*
X7041610Y-18997984D02*
X7060658Y-19007508D01*
X7060658Y-19007508D02*
X7070182Y-19017031D01*
X7070182Y-19017031D02*
X7079705Y-19036079D01*
X7079705Y-19036079D02*
X7089229Y-19074174D01*
X7089229Y-19074174D02*
X7089229Y-19121793D01*
X7089229Y-19121793D02*
X7079705Y-19159889D01*
X7079705Y-19159889D02*
X7070182Y-19178936D01*
X7070182Y-19178936D02*
X7060658Y-19188460D01*
X7060658Y-19188460D02*
X7041610Y-19197984D01*
X7041610Y-19197984D02*
X7022562Y-19197984D01*
X7022562Y-19197984D02*
X7003515Y-19188460D01*
X7003515Y-19188460D02*
X6993991Y-19178936D01*
X6993991Y-19178936D02*
X6984467Y-19159889D01*
X6984467Y-19159889D02*
X6974943Y-19121793D01*
X6974943Y-19121793D02*
X6974943Y-19074174D01*
X6974943Y-19074174D02*
X6984467Y-19036079D01*
X6984467Y-19036079D02*
X6993991Y-19017031D01*
X6993991Y-19017031D02*
X7003515Y-19007508D01*
X7003515Y-19007508D02*
X7022562Y-18997984D01*
X7213039Y-18997984D02*
X7232086Y-18997984D01*
X7232086Y-18997984D02*
X7251134Y-19007508D01*
X7251134Y-19007508D02*
X7260658Y-19017031D01*
X7260658Y-19017031D02*
X7270182Y-19036079D01*
X7270182Y-19036079D02*
X7279705Y-19074174D01*
X7279705Y-19074174D02*
X7279705Y-19121793D01*
X7279705Y-19121793D02*
X7270182Y-19159889D01*
X7270182Y-19159889D02*
X7260658Y-19178936D01*
X7260658Y-19178936D02*
X7251134Y-19188460D01*
X7251134Y-19188460D02*
X7232086Y-19197984D01*
X7232086Y-19197984D02*
X7213039Y-19197984D01*
X7213039Y-19197984D02*
X7193991Y-19188460D01*
X7193991Y-19188460D02*
X7184467Y-19178936D01*
X7184467Y-19178936D02*
X7174943Y-19159889D01*
X7174943Y-19159889D02*
X7165420Y-19121793D01*
X7165420Y-19121793D02*
X7165420Y-19074174D01*
X7165420Y-19074174D02*
X7174943Y-19036079D01*
X7174943Y-19036079D02*
X7184467Y-19017031D01*
X7184467Y-19017031D02*
X7193991Y-19007508D01*
X7193991Y-19007508D02*
X7213039Y-18997984D01*
X7365420Y-19197984D02*
X7365420Y-19064650D01*
X7365420Y-19083698D02*
X7374943Y-19074174D01*
X7374943Y-19074174D02*
X7393991Y-19064650D01*
X7393991Y-19064650D02*
X7422563Y-19064650D01*
X7422563Y-19064650D02*
X7441610Y-19074174D01*
X7441610Y-19074174D02*
X7451134Y-19093222D01*
X7451134Y-19093222D02*
X7451134Y-19197984D01*
X7451134Y-19093222D02*
X7460658Y-19074174D01*
X7460658Y-19074174D02*
X7479705Y-19064650D01*
X7479705Y-19064650D02*
X7508277Y-19064650D01*
X7508277Y-19064650D02*
X7527324Y-19074174D01*
X7527324Y-19074174D02*
X7536848Y-19093222D01*
X7536848Y-19093222D02*
X7536848Y-19197984D01*
X7632086Y-19197984D02*
X7632086Y-19064650D01*
X7632086Y-19083698D02*
X7641610Y-19074174D01*
X7641610Y-19074174D02*
X7660658Y-19064650D01*
X7660658Y-19064650D02*
X7689229Y-19064650D01*
X7689229Y-19064650D02*
X7708277Y-19074174D01*
X7708277Y-19074174D02*
X7717801Y-19093222D01*
X7717801Y-19093222D02*
X7717801Y-19197984D01*
X7717801Y-19093222D02*
X7727324Y-19074174D01*
X7727324Y-19074174D02*
X7746372Y-19064650D01*
X7746372Y-19064650D02*
X7774943Y-19064650D01*
X7774943Y-19064650D02*
X7793991Y-19074174D01*
X7793991Y-19074174D02*
X7803515Y-19093222D01*
X7803515Y-19093222D02*
X7803515Y-19197984D01*
X8193991Y-18988460D02*
X8022563Y-19245603D01*
X8451134Y-18997984D02*
X8470182Y-18997984D01*
X8470182Y-18997984D02*
X8489229Y-19007508D01*
X8489229Y-19007508D02*
X8498753Y-19017031D01*
X8498753Y-19017031D02*
X8508277Y-19036079D01*
X8508277Y-19036079D02*
X8517801Y-19074174D01*
X8517801Y-19074174D02*
X8517801Y-19121793D01*
X8517801Y-19121793D02*
X8508277Y-19159889D01*
X8508277Y-19159889D02*
X8498753Y-19178936D01*
X8498753Y-19178936D02*
X8489229Y-19188460D01*
X8489229Y-19188460D02*
X8470182Y-19197984D01*
X8470182Y-19197984D02*
X8451134Y-19197984D01*
X8451134Y-19197984D02*
X8432087Y-19188460D01*
X8432087Y-19188460D02*
X8422563Y-19178936D01*
X8422563Y-19178936D02*
X8413039Y-19159889D01*
X8413039Y-19159889D02*
X8403515Y-19121793D01*
X8403515Y-19121793D02*
X8403515Y-19074174D01*
X8403515Y-19074174D02*
X8413039Y-19036079D01*
X8413039Y-19036079D02*
X8422563Y-19017031D01*
X8422563Y-19017031D02*
X8432087Y-19007508D01*
X8432087Y-19007508D02*
X8451134Y-18997984D01*
X8603515Y-19178936D02*
X8613039Y-19188460D01*
X8613039Y-19188460D02*
X8603515Y-19197984D01*
X8603515Y-19197984D02*
X8593991Y-19188460D01*
X8593991Y-19188460D02*
X8603515Y-19178936D01*
X8603515Y-19178936D02*
X8603515Y-19197984D01*
X8736848Y-18997984D02*
X8755896Y-18997984D01*
X8755896Y-18997984D02*
X8774944Y-19007508D01*
X8774944Y-19007508D02*
X8784468Y-19017031D01*
X8784468Y-19017031D02*
X8793991Y-19036079D01*
X8793991Y-19036079D02*
X8803515Y-19074174D01*
X8803515Y-19074174D02*
X8803515Y-19121793D01*
X8803515Y-19121793D02*
X8793991Y-19159889D01*
X8793991Y-19159889D02*
X8784468Y-19178936D01*
X8784468Y-19178936D02*
X8774944Y-19188460D01*
X8774944Y-19188460D02*
X8755896Y-19197984D01*
X8755896Y-19197984D02*
X8736848Y-19197984D01*
X8736848Y-19197984D02*
X8717801Y-19188460D01*
X8717801Y-19188460D02*
X8708277Y-19178936D01*
X8708277Y-19178936D02*
X8698753Y-19159889D01*
X8698753Y-19159889D02*
X8689229Y-19121793D01*
X8689229Y-19121793D02*
X8689229Y-19074174D01*
X8689229Y-19074174D02*
X8698753Y-19036079D01*
X8698753Y-19036079D02*
X8708277Y-19017031D01*
X8708277Y-19017031D02*
X8717801Y-19007508D01*
X8717801Y-19007508D02*
X8736848Y-18997984D01*
X8993991Y-19197984D02*
X8879706Y-19197984D01*
X8936848Y-19197984D02*
X8936848Y-18997984D01*
X8936848Y-18997984D02*
X8917801Y-19026555D01*
X8917801Y-19026555D02*
X8898753Y-19045603D01*
X8898753Y-19045603D02*
X8879706Y-19055127D01*
X9089229Y-19197984D02*
X9127325Y-19197984D01*
X9127325Y-19197984D02*
X9146372Y-19188460D01*
X9146372Y-19188460D02*
X9155896Y-19178936D01*
X9155896Y-19178936D02*
X9174944Y-19150365D01*
X9174944Y-19150365D02*
X9184468Y-19112270D01*
X9184468Y-19112270D02*
X9184468Y-19036079D01*
X9184468Y-19036079D02*
X9174944Y-19017031D01*
X9174944Y-19017031D02*
X9165420Y-19007508D01*
X9165420Y-19007508D02*
X9146372Y-18997984D01*
X9146372Y-18997984D02*
X9108277Y-18997984D01*
X9108277Y-18997984D02*
X9089229Y-19007508D01*
X9089229Y-19007508D02*
X9079706Y-19017031D01*
X9079706Y-19017031D02*
X9070182Y-19036079D01*
X9070182Y-19036079D02*
X9070182Y-19083698D01*
X9070182Y-19083698D02*
X9079706Y-19102746D01*
X9079706Y-19102746D02*
X9089229Y-19112270D01*
X9089229Y-19112270D02*
X9108277Y-19121793D01*
X9108277Y-19121793D02*
X9146372Y-19121793D01*
X9146372Y-19121793D02*
X9165420Y-19112270D01*
X9165420Y-19112270D02*
X9174944Y-19102746D01*
X9174944Y-19102746D02*
X9184468Y-19083698D01*
X9251134Y-18997984D02*
X9384468Y-18997984D01*
X9384468Y-18997984D02*
X9298753Y-19197984D01*
X9451134Y-18997984D02*
X9451134Y-19036079D01*
X9527325Y-18997984D02*
X9527325Y-19036079D01*
X9822563Y-19274174D02*
X9813039Y-19264650D01*
X9813039Y-19264650D02*
X9793991Y-19236079D01*
X9793991Y-19236079D02*
X9784468Y-19217031D01*
X9784468Y-19217031D02*
X9774944Y-19188460D01*
X9774944Y-19188460D02*
X9765420Y-19140841D01*
X9765420Y-19140841D02*
X9765420Y-19102746D01*
X9765420Y-19102746D02*
X9774944Y-19055127D01*
X9774944Y-19055127D02*
X9784468Y-19026555D01*
X9784468Y-19026555D02*
X9793991Y-19007508D01*
X9793991Y-19007508D02*
X9813039Y-18978936D01*
X9813039Y-18978936D02*
X9822563Y-18969412D01*
X10003515Y-19197984D02*
X9889230Y-19197984D01*
X9946372Y-19197984D02*
X9946372Y-18997984D01*
X9946372Y-18997984D02*
X9927325Y-19026555D01*
X9927325Y-19026555D02*
X9908277Y-19045603D01*
X9908277Y-19045603D02*
X9889230Y-19055127D01*
X10241611Y-19197984D02*
X10241611Y-18997984D01*
X10327325Y-19197984D02*
X10327325Y-19093222D01*
X10327325Y-19093222D02*
X10317801Y-19074174D01*
X10317801Y-19074174D02*
X10298753Y-19064650D01*
X10298753Y-19064650D02*
X10270182Y-19064650D01*
X10270182Y-19064650D02*
X10251134Y-19074174D01*
X10251134Y-19074174D02*
X10241611Y-19083698D01*
X10451134Y-19197984D02*
X10432087Y-19188460D01*
X10432087Y-19188460D02*
X10422563Y-19178936D01*
X10422563Y-19178936D02*
X10413039Y-19159889D01*
X10413039Y-19159889D02*
X10413039Y-19102746D01*
X10413039Y-19102746D02*
X10422563Y-19083698D01*
X10422563Y-19083698D02*
X10432087Y-19074174D01*
X10432087Y-19074174D02*
X10451134Y-19064650D01*
X10451134Y-19064650D02*
X10479706Y-19064650D01*
X10479706Y-19064650D02*
X10498753Y-19074174D01*
X10498753Y-19074174D02*
X10508277Y-19083698D01*
X10508277Y-19083698D02*
X10517801Y-19102746D01*
X10517801Y-19102746D02*
X10517801Y-19159889D01*
X10517801Y-19159889D02*
X10508277Y-19178936D01*
X10508277Y-19178936D02*
X10498753Y-19188460D01*
X10498753Y-19188460D02*
X10479706Y-19197984D01*
X10479706Y-19197984D02*
X10451134Y-19197984D01*
X10632087Y-19197984D02*
X10613039Y-19188460D01*
X10613039Y-19188460D02*
X10603515Y-19169412D01*
X10603515Y-19169412D02*
X10603515Y-18997984D01*
X10784468Y-19188460D02*
X10765420Y-19197984D01*
X10765420Y-19197984D02*
X10727325Y-19197984D01*
X10727325Y-19197984D02*
X10708277Y-19188460D01*
X10708277Y-19188460D02*
X10698753Y-19169412D01*
X10698753Y-19169412D02*
X10698753Y-19093222D01*
X10698753Y-19093222D02*
X10708277Y-19074174D01*
X10708277Y-19074174D02*
X10727325Y-19064650D01*
X10727325Y-19064650D02*
X10765420Y-19064650D01*
X10765420Y-19064650D02*
X10784468Y-19074174D01*
X10784468Y-19074174D02*
X10793992Y-19093222D01*
X10793992Y-19093222D02*
X10793992Y-19112270D01*
X10793992Y-19112270D02*
X10698753Y-19131317D01*
X10860658Y-19274174D02*
X10870182Y-19264650D01*
X10870182Y-19264650D02*
X10889230Y-19236079D01*
X10889230Y-19236079D02*
X10898753Y-19217031D01*
X10898753Y-19217031D02*
X10908277Y-19188460D01*
X10908277Y-19188460D02*
X10917801Y-19140841D01*
X10917801Y-19140841D02*
X10917801Y-19102746D01*
X10917801Y-19102746D02*
X10908277Y-19055127D01*
X10908277Y-19055127D02*
X10898753Y-19026555D01*
X10898753Y-19026555D02*
X10889230Y-19007508D01*
X10889230Y-19007508D02*
X10870182Y-18978936D01*
X10870182Y-18978936D02*
X10860658Y-18969412D01*
D12*
X6212500Y-19335500D02*
X6212500Y-19405500D01*
X6177500Y-19370500D02*
X6247500Y-19370500D01*
D11*
X6546372Y-19261984D02*
X6565420Y-19261984D01*
X6565420Y-19261984D02*
X6584467Y-19271508D01*
X6584467Y-19271508D02*
X6593991Y-19281031D01*
X6593991Y-19281031D02*
X6603515Y-19300079D01*
X6603515Y-19300079D02*
X6613039Y-19338174D01*
X6613039Y-19338174D02*
X6613039Y-19385793D01*
X6613039Y-19385793D02*
X6603515Y-19423889D01*
X6603515Y-19423889D02*
X6593991Y-19442936D01*
X6593991Y-19442936D02*
X6584467Y-19452460D01*
X6584467Y-19452460D02*
X6565420Y-19461984D01*
X6565420Y-19461984D02*
X6546372Y-19461984D01*
X6546372Y-19461984D02*
X6527324Y-19452460D01*
X6527324Y-19452460D02*
X6517801Y-19442936D01*
X6517801Y-19442936D02*
X6508277Y-19423889D01*
X6508277Y-19423889D02*
X6498753Y-19385793D01*
X6498753Y-19385793D02*
X6498753Y-19338174D01*
X6498753Y-19338174D02*
X6508277Y-19300079D01*
X6508277Y-19300079D02*
X6517801Y-19281031D01*
X6517801Y-19281031D02*
X6527324Y-19271508D01*
X6527324Y-19271508D02*
X6546372Y-19261984D01*
X6698753Y-19442936D02*
X6708277Y-19452460D01*
X6708277Y-19452460D02*
X6698753Y-19461984D01*
X6698753Y-19461984D02*
X6689229Y-19452460D01*
X6689229Y-19452460D02*
X6698753Y-19442936D01*
X6698753Y-19442936D02*
X6698753Y-19461984D01*
X6774943Y-19261984D02*
X6908277Y-19261984D01*
X6908277Y-19261984D02*
X6822562Y-19461984D01*
X7022562Y-19261984D02*
X7041610Y-19261984D01*
X7041610Y-19261984D02*
X7060658Y-19271508D01*
X7060658Y-19271508D02*
X7070182Y-19281031D01*
X7070182Y-19281031D02*
X7079705Y-19300079D01*
X7079705Y-19300079D02*
X7089229Y-19338174D01*
X7089229Y-19338174D02*
X7089229Y-19385793D01*
X7089229Y-19385793D02*
X7079705Y-19423889D01*
X7079705Y-19423889D02*
X7070182Y-19442936D01*
X7070182Y-19442936D02*
X7060658Y-19452460D01*
X7060658Y-19452460D02*
X7041610Y-19461984D01*
X7041610Y-19461984D02*
X7022562Y-19461984D01*
X7022562Y-19461984D02*
X7003515Y-19452460D01*
X7003515Y-19452460D02*
X6993991Y-19442936D01*
X6993991Y-19442936D02*
X6984467Y-19423889D01*
X6984467Y-19423889D02*
X6974943Y-19385793D01*
X6974943Y-19385793D02*
X6974943Y-19338174D01*
X6974943Y-19338174D02*
X6984467Y-19300079D01*
X6984467Y-19300079D02*
X6993991Y-19281031D01*
X6993991Y-19281031D02*
X7003515Y-19271508D01*
X7003515Y-19271508D02*
X7022562Y-19261984D01*
X7213039Y-19261984D02*
X7232086Y-19261984D01*
X7232086Y-19261984D02*
X7251134Y-19271508D01*
X7251134Y-19271508D02*
X7260658Y-19281031D01*
X7260658Y-19281031D02*
X7270182Y-19300079D01*
X7270182Y-19300079D02*
X7279705Y-19338174D01*
X7279705Y-19338174D02*
X7279705Y-19385793D01*
X7279705Y-19385793D02*
X7270182Y-19423889D01*
X7270182Y-19423889D02*
X7260658Y-19442936D01*
X7260658Y-19442936D02*
X7251134Y-19452460D01*
X7251134Y-19452460D02*
X7232086Y-19461984D01*
X7232086Y-19461984D02*
X7213039Y-19461984D01*
X7213039Y-19461984D02*
X7193991Y-19452460D01*
X7193991Y-19452460D02*
X7184467Y-19442936D01*
X7184467Y-19442936D02*
X7174943Y-19423889D01*
X7174943Y-19423889D02*
X7165420Y-19385793D01*
X7165420Y-19385793D02*
X7165420Y-19338174D01*
X7165420Y-19338174D02*
X7174943Y-19300079D01*
X7174943Y-19300079D02*
X7184467Y-19281031D01*
X7184467Y-19281031D02*
X7193991Y-19271508D01*
X7193991Y-19271508D02*
X7213039Y-19261984D01*
X7365420Y-19461984D02*
X7365420Y-19328650D01*
X7365420Y-19347698D02*
X7374943Y-19338174D01*
X7374943Y-19338174D02*
X7393991Y-19328650D01*
X7393991Y-19328650D02*
X7422563Y-19328650D01*
X7422563Y-19328650D02*
X7441610Y-19338174D01*
X7441610Y-19338174D02*
X7451134Y-19357222D01*
X7451134Y-19357222D02*
X7451134Y-19461984D01*
X7451134Y-19357222D02*
X7460658Y-19338174D01*
X7460658Y-19338174D02*
X7479705Y-19328650D01*
X7479705Y-19328650D02*
X7508277Y-19328650D01*
X7508277Y-19328650D02*
X7527324Y-19338174D01*
X7527324Y-19338174D02*
X7536848Y-19357222D01*
X7536848Y-19357222D02*
X7536848Y-19461984D01*
X7632086Y-19461984D02*
X7632086Y-19328650D01*
X7632086Y-19347698D02*
X7641610Y-19338174D01*
X7641610Y-19338174D02*
X7660658Y-19328650D01*
X7660658Y-19328650D02*
X7689229Y-19328650D01*
X7689229Y-19328650D02*
X7708277Y-19338174D01*
X7708277Y-19338174D02*
X7717801Y-19357222D01*
X7717801Y-19357222D02*
X7717801Y-19461984D01*
X7717801Y-19357222D02*
X7727324Y-19338174D01*
X7727324Y-19338174D02*
X7746372Y-19328650D01*
X7746372Y-19328650D02*
X7774943Y-19328650D01*
X7774943Y-19328650D02*
X7793991Y-19338174D01*
X7793991Y-19338174D02*
X7803515Y-19357222D01*
X7803515Y-19357222D02*
X7803515Y-19461984D01*
X8193991Y-19252460D02*
X8022563Y-19509603D01*
X8451134Y-19261984D02*
X8470182Y-19261984D01*
X8470182Y-19261984D02*
X8489229Y-19271508D01*
X8489229Y-19271508D02*
X8498753Y-19281031D01*
X8498753Y-19281031D02*
X8508277Y-19300079D01*
X8508277Y-19300079D02*
X8517801Y-19338174D01*
X8517801Y-19338174D02*
X8517801Y-19385793D01*
X8517801Y-19385793D02*
X8508277Y-19423889D01*
X8508277Y-19423889D02*
X8498753Y-19442936D01*
X8498753Y-19442936D02*
X8489229Y-19452460D01*
X8489229Y-19452460D02*
X8470182Y-19461984D01*
X8470182Y-19461984D02*
X8451134Y-19461984D01*
X8451134Y-19461984D02*
X8432087Y-19452460D01*
X8432087Y-19452460D02*
X8422563Y-19442936D01*
X8422563Y-19442936D02*
X8413039Y-19423889D01*
X8413039Y-19423889D02*
X8403515Y-19385793D01*
X8403515Y-19385793D02*
X8403515Y-19338174D01*
X8403515Y-19338174D02*
X8413039Y-19300079D01*
X8413039Y-19300079D02*
X8422563Y-19281031D01*
X8422563Y-19281031D02*
X8432087Y-19271508D01*
X8432087Y-19271508D02*
X8451134Y-19261984D01*
X8603515Y-19442936D02*
X8613039Y-19452460D01*
X8613039Y-19452460D02*
X8603515Y-19461984D01*
X8603515Y-19461984D02*
X8593991Y-19452460D01*
X8593991Y-19452460D02*
X8603515Y-19442936D01*
X8603515Y-19442936D02*
X8603515Y-19461984D01*
X8736848Y-19261984D02*
X8755896Y-19261984D01*
X8755896Y-19261984D02*
X8774944Y-19271508D01*
X8774944Y-19271508D02*
X8784468Y-19281031D01*
X8784468Y-19281031D02*
X8793991Y-19300079D01*
X8793991Y-19300079D02*
X8803515Y-19338174D01*
X8803515Y-19338174D02*
X8803515Y-19385793D01*
X8803515Y-19385793D02*
X8793991Y-19423889D01*
X8793991Y-19423889D02*
X8784468Y-19442936D01*
X8784468Y-19442936D02*
X8774944Y-19452460D01*
X8774944Y-19452460D02*
X8755896Y-19461984D01*
X8755896Y-19461984D02*
X8736848Y-19461984D01*
X8736848Y-19461984D02*
X8717801Y-19452460D01*
X8717801Y-19452460D02*
X8708277Y-19442936D01*
X8708277Y-19442936D02*
X8698753Y-19423889D01*
X8698753Y-19423889D02*
X8689229Y-19385793D01*
X8689229Y-19385793D02*
X8689229Y-19338174D01*
X8689229Y-19338174D02*
X8698753Y-19300079D01*
X8698753Y-19300079D02*
X8708277Y-19281031D01*
X8708277Y-19281031D02*
X8717801Y-19271508D01*
X8717801Y-19271508D02*
X8736848Y-19261984D01*
X8879706Y-19281031D02*
X8889229Y-19271508D01*
X8889229Y-19271508D02*
X8908277Y-19261984D01*
X8908277Y-19261984D02*
X8955896Y-19261984D01*
X8955896Y-19261984D02*
X8974944Y-19271508D01*
X8974944Y-19271508D02*
X8984468Y-19281031D01*
X8984468Y-19281031D02*
X8993991Y-19300079D01*
X8993991Y-19300079D02*
X8993991Y-19319127D01*
X8993991Y-19319127D02*
X8984468Y-19347698D01*
X8984468Y-19347698D02*
X8870182Y-19461984D01*
X8870182Y-19461984D02*
X8993991Y-19461984D01*
X9060658Y-19261984D02*
X9193991Y-19261984D01*
X9193991Y-19261984D02*
X9108277Y-19461984D01*
X9355896Y-19261984D02*
X9317801Y-19261984D01*
X9317801Y-19261984D02*
X9298753Y-19271508D01*
X9298753Y-19271508D02*
X9289229Y-19281031D01*
X9289229Y-19281031D02*
X9270182Y-19309603D01*
X9270182Y-19309603D02*
X9260658Y-19347698D01*
X9260658Y-19347698D02*
X9260658Y-19423889D01*
X9260658Y-19423889D02*
X9270182Y-19442936D01*
X9270182Y-19442936D02*
X9279706Y-19452460D01*
X9279706Y-19452460D02*
X9298753Y-19461984D01*
X9298753Y-19461984D02*
X9336849Y-19461984D01*
X9336849Y-19461984D02*
X9355896Y-19452460D01*
X9355896Y-19452460D02*
X9365420Y-19442936D01*
X9365420Y-19442936D02*
X9374944Y-19423889D01*
X9374944Y-19423889D02*
X9374944Y-19376270D01*
X9374944Y-19376270D02*
X9365420Y-19357222D01*
X9365420Y-19357222D02*
X9355896Y-19347698D01*
X9355896Y-19347698D02*
X9336849Y-19338174D01*
X9336849Y-19338174D02*
X9298753Y-19338174D01*
X9298753Y-19338174D02*
X9279706Y-19347698D01*
X9279706Y-19347698D02*
X9270182Y-19357222D01*
X9270182Y-19357222D02*
X9260658Y-19376270D01*
X9451134Y-19261984D02*
X9451134Y-19300079D01*
X9527325Y-19261984D02*
X9527325Y-19300079D01*
X9822563Y-19538174D02*
X9813039Y-19528650D01*
X9813039Y-19528650D02*
X9793991Y-19500079D01*
X9793991Y-19500079D02*
X9784468Y-19481031D01*
X9784468Y-19481031D02*
X9774944Y-19452460D01*
X9774944Y-19452460D02*
X9765420Y-19404841D01*
X9765420Y-19404841D02*
X9765420Y-19366746D01*
X9765420Y-19366746D02*
X9774944Y-19319127D01*
X9774944Y-19319127D02*
X9784468Y-19290555D01*
X9784468Y-19290555D02*
X9793991Y-19271508D01*
X9793991Y-19271508D02*
X9813039Y-19242936D01*
X9813039Y-19242936D02*
X9822563Y-19233412D01*
X9984468Y-19261984D02*
X9946372Y-19261984D01*
X9946372Y-19261984D02*
X9927325Y-19271508D01*
X9927325Y-19271508D02*
X9917801Y-19281031D01*
X9917801Y-19281031D02*
X9898753Y-19309603D01*
X9898753Y-19309603D02*
X9889230Y-19347698D01*
X9889230Y-19347698D02*
X9889230Y-19423889D01*
X9889230Y-19423889D02*
X9898753Y-19442936D01*
X9898753Y-19442936D02*
X9908277Y-19452460D01*
X9908277Y-19452460D02*
X9927325Y-19461984D01*
X9927325Y-19461984D02*
X9965420Y-19461984D01*
X9965420Y-19461984D02*
X9984468Y-19452460D01*
X9984468Y-19452460D02*
X9993991Y-19442936D01*
X9993991Y-19442936D02*
X10003515Y-19423889D01*
X10003515Y-19423889D02*
X10003515Y-19376270D01*
X10003515Y-19376270D02*
X9993991Y-19357222D01*
X9993991Y-19357222D02*
X9984468Y-19347698D01*
X9984468Y-19347698D02*
X9965420Y-19338174D01*
X9965420Y-19338174D02*
X9927325Y-19338174D01*
X9927325Y-19338174D02*
X9908277Y-19347698D01*
X9908277Y-19347698D02*
X9898753Y-19357222D01*
X9898753Y-19357222D02*
X9889230Y-19376270D01*
X10127325Y-19261984D02*
X10146372Y-19261984D01*
X10146372Y-19261984D02*
X10165420Y-19271508D01*
X10165420Y-19271508D02*
X10174944Y-19281031D01*
X10174944Y-19281031D02*
X10184468Y-19300079D01*
X10184468Y-19300079D02*
X10193991Y-19338174D01*
X10193991Y-19338174D02*
X10193991Y-19385793D01*
X10193991Y-19385793D02*
X10184468Y-19423889D01*
X10184468Y-19423889D02*
X10174944Y-19442936D01*
X10174944Y-19442936D02*
X10165420Y-19452460D01*
X10165420Y-19452460D02*
X10146372Y-19461984D01*
X10146372Y-19461984D02*
X10127325Y-19461984D01*
X10127325Y-19461984D02*
X10108277Y-19452460D01*
X10108277Y-19452460D02*
X10098753Y-19442936D01*
X10098753Y-19442936D02*
X10089230Y-19423889D01*
X10089230Y-19423889D02*
X10079706Y-19385793D01*
X10079706Y-19385793D02*
X10079706Y-19338174D01*
X10079706Y-19338174D02*
X10089230Y-19300079D01*
X10089230Y-19300079D02*
X10098753Y-19281031D01*
X10098753Y-19281031D02*
X10108277Y-19271508D01*
X10108277Y-19271508D02*
X10127325Y-19261984D01*
X10432087Y-19461984D02*
X10432087Y-19261984D01*
X10517801Y-19461984D02*
X10517801Y-19357222D01*
X10517801Y-19357222D02*
X10508277Y-19338174D01*
X10508277Y-19338174D02*
X10489230Y-19328650D01*
X10489230Y-19328650D02*
X10460658Y-19328650D01*
X10460658Y-19328650D02*
X10441611Y-19338174D01*
X10441611Y-19338174D02*
X10432087Y-19347698D01*
X10641611Y-19461984D02*
X10622563Y-19452460D01*
X10622563Y-19452460D02*
X10613039Y-19442936D01*
X10613039Y-19442936D02*
X10603515Y-19423889D01*
X10603515Y-19423889D02*
X10603515Y-19366746D01*
X10603515Y-19366746D02*
X10613039Y-19347698D01*
X10613039Y-19347698D02*
X10622563Y-19338174D01*
X10622563Y-19338174D02*
X10641611Y-19328650D01*
X10641611Y-19328650D02*
X10670182Y-19328650D01*
X10670182Y-19328650D02*
X10689230Y-19338174D01*
X10689230Y-19338174D02*
X10698753Y-19347698D01*
X10698753Y-19347698D02*
X10708277Y-19366746D01*
X10708277Y-19366746D02*
X10708277Y-19423889D01*
X10708277Y-19423889D02*
X10698753Y-19442936D01*
X10698753Y-19442936D02*
X10689230Y-19452460D01*
X10689230Y-19452460D02*
X10670182Y-19461984D01*
X10670182Y-19461984D02*
X10641611Y-19461984D01*
X10822563Y-19461984D02*
X10803515Y-19452460D01*
X10803515Y-19452460D02*
X10793992Y-19433412D01*
X10793992Y-19433412D02*
X10793992Y-19261984D01*
X10974944Y-19452460D02*
X10955896Y-19461984D01*
X10955896Y-19461984D02*
X10917801Y-19461984D01*
X10917801Y-19461984D02*
X10898753Y-19452460D01*
X10898753Y-19452460D02*
X10889230Y-19433412D01*
X10889230Y-19433412D02*
X10889230Y-19357222D01*
X10889230Y-19357222D02*
X10898753Y-19338174D01*
X10898753Y-19338174D02*
X10917801Y-19328650D01*
X10917801Y-19328650D02*
X10955896Y-19328650D01*
X10955896Y-19328650D02*
X10974944Y-19338174D01*
X10974944Y-19338174D02*
X10984468Y-19357222D01*
X10984468Y-19357222D02*
X10984468Y-19376270D01*
X10984468Y-19376270D02*
X10889230Y-19395317D01*
X11060658Y-19452460D02*
X11079706Y-19461984D01*
X11079706Y-19461984D02*
X11117801Y-19461984D01*
X11117801Y-19461984D02*
X11136849Y-19452460D01*
X11136849Y-19452460D02*
X11146373Y-19433412D01*
X11146373Y-19433412D02*
X11146373Y-19423889D01*
X11146373Y-19423889D02*
X11136849Y-19404841D01*
X11136849Y-19404841D02*
X11117801Y-19395317D01*
X11117801Y-19395317D02*
X11089230Y-19395317D01*
X11089230Y-19395317D02*
X11070182Y-19385793D01*
X11070182Y-19385793D02*
X11060658Y-19366746D01*
X11060658Y-19366746D02*
X11060658Y-19357222D01*
X11060658Y-19357222D02*
X11070182Y-19338174D01*
X11070182Y-19338174D02*
X11089230Y-19328650D01*
X11089230Y-19328650D02*
X11117801Y-19328650D01*
X11117801Y-19328650D02*
X11136849Y-19338174D01*
X11213039Y-19538174D02*
X11222563Y-19528650D01*
X11222563Y-19528650D02*
X11241611Y-19500079D01*
X11241611Y-19500079D02*
X11251134Y-19481031D01*
X11251134Y-19481031D02*
X11260658Y-19452460D01*
X11260658Y-19452460D02*
X11270182Y-19404841D01*
X11270182Y-19404841D02*
X11270182Y-19366746D01*
X11270182Y-19366746D02*
X11260658Y-19319127D01*
X11260658Y-19319127D02*
X11251134Y-19290555D01*
X11251134Y-19290555D02*
X11241611Y-19271508D01*
X11241611Y-19271508D02*
X11222563Y-19242936D01*
X11222563Y-19242936D02*
X11213039Y-19233412D01*
D12*
X6235784Y-19662785D02*
X6235784Y-19606216D01*
X6179215Y-19606216D01*
X6179215Y-19662785D01*
X6235784Y-19662785D01*
D11*
X6546372Y-19525984D02*
X6565420Y-19525984D01*
X6565420Y-19525984D02*
X6584467Y-19535508D01*
X6584467Y-19535508D02*
X6593991Y-19545031D01*
X6593991Y-19545031D02*
X6603515Y-19564079D01*
X6603515Y-19564079D02*
X6613039Y-19602174D01*
X6613039Y-19602174D02*
X6613039Y-19649793D01*
X6613039Y-19649793D02*
X6603515Y-19687889D01*
X6603515Y-19687889D02*
X6593991Y-19706936D01*
X6593991Y-19706936D02*
X6584467Y-19716460D01*
X6584467Y-19716460D02*
X6565420Y-19725984D01*
X6565420Y-19725984D02*
X6546372Y-19725984D01*
X6546372Y-19725984D02*
X6527324Y-19716460D01*
X6527324Y-19716460D02*
X6517801Y-19706936D01*
X6517801Y-19706936D02*
X6508277Y-19687889D01*
X6508277Y-19687889D02*
X6498753Y-19649793D01*
X6498753Y-19649793D02*
X6498753Y-19602174D01*
X6498753Y-19602174D02*
X6508277Y-19564079D01*
X6508277Y-19564079D02*
X6517801Y-19545031D01*
X6517801Y-19545031D02*
X6527324Y-19535508D01*
X6527324Y-19535508D02*
X6546372Y-19525984D01*
X6698753Y-19706936D02*
X6708277Y-19716460D01*
X6708277Y-19716460D02*
X6698753Y-19725984D01*
X6698753Y-19725984D02*
X6689229Y-19716460D01*
X6689229Y-19716460D02*
X6698753Y-19706936D01*
X6698753Y-19706936D02*
X6698753Y-19725984D01*
X6822562Y-19611698D02*
X6803515Y-19602174D01*
X6803515Y-19602174D02*
X6793991Y-19592650D01*
X6793991Y-19592650D02*
X6784467Y-19573603D01*
X6784467Y-19573603D02*
X6784467Y-19564079D01*
X6784467Y-19564079D02*
X6793991Y-19545031D01*
X6793991Y-19545031D02*
X6803515Y-19535508D01*
X6803515Y-19535508D02*
X6822562Y-19525984D01*
X6822562Y-19525984D02*
X6860658Y-19525984D01*
X6860658Y-19525984D02*
X6879705Y-19535508D01*
X6879705Y-19535508D02*
X6889229Y-19545031D01*
X6889229Y-19545031D02*
X6898753Y-19564079D01*
X6898753Y-19564079D02*
X6898753Y-19573603D01*
X6898753Y-19573603D02*
X6889229Y-19592650D01*
X6889229Y-19592650D02*
X6879705Y-19602174D01*
X6879705Y-19602174D02*
X6860658Y-19611698D01*
X6860658Y-19611698D02*
X6822562Y-19611698D01*
X6822562Y-19611698D02*
X6803515Y-19621222D01*
X6803515Y-19621222D02*
X6793991Y-19630746D01*
X6793991Y-19630746D02*
X6784467Y-19649793D01*
X6784467Y-19649793D02*
X6784467Y-19687889D01*
X6784467Y-19687889D02*
X6793991Y-19706936D01*
X6793991Y-19706936D02*
X6803515Y-19716460D01*
X6803515Y-19716460D02*
X6822562Y-19725984D01*
X6822562Y-19725984D02*
X6860658Y-19725984D01*
X6860658Y-19725984D02*
X6879705Y-19716460D01*
X6879705Y-19716460D02*
X6889229Y-19706936D01*
X6889229Y-19706936D02*
X6898753Y-19687889D01*
X6898753Y-19687889D02*
X6898753Y-19649793D01*
X6898753Y-19649793D02*
X6889229Y-19630746D01*
X6889229Y-19630746D02*
X6879705Y-19621222D01*
X6879705Y-19621222D02*
X6860658Y-19611698D01*
X7022562Y-19525984D02*
X7041610Y-19525984D01*
X7041610Y-19525984D02*
X7060658Y-19535508D01*
X7060658Y-19535508D02*
X7070182Y-19545031D01*
X7070182Y-19545031D02*
X7079705Y-19564079D01*
X7079705Y-19564079D02*
X7089229Y-19602174D01*
X7089229Y-19602174D02*
X7089229Y-19649793D01*
X7089229Y-19649793D02*
X7079705Y-19687889D01*
X7079705Y-19687889D02*
X7070182Y-19706936D01*
X7070182Y-19706936D02*
X7060658Y-19716460D01*
X7060658Y-19716460D02*
X7041610Y-19725984D01*
X7041610Y-19725984D02*
X7022562Y-19725984D01*
X7022562Y-19725984D02*
X7003515Y-19716460D01*
X7003515Y-19716460D02*
X6993991Y-19706936D01*
X6993991Y-19706936D02*
X6984467Y-19687889D01*
X6984467Y-19687889D02*
X6974943Y-19649793D01*
X6974943Y-19649793D02*
X6974943Y-19602174D01*
X6974943Y-19602174D02*
X6984467Y-19564079D01*
X6984467Y-19564079D02*
X6993991Y-19545031D01*
X6993991Y-19545031D02*
X7003515Y-19535508D01*
X7003515Y-19535508D02*
X7022562Y-19525984D01*
X7213039Y-19525984D02*
X7232086Y-19525984D01*
X7232086Y-19525984D02*
X7251134Y-19535508D01*
X7251134Y-19535508D02*
X7260658Y-19545031D01*
X7260658Y-19545031D02*
X7270182Y-19564079D01*
X7270182Y-19564079D02*
X7279705Y-19602174D01*
X7279705Y-19602174D02*
X7279705Y-19649793D01*
X7279705Y-19649793D02*
X7270182Y-19687889D01*
X7270182Y-19687889D02*
X7260658Y-19706936D01*
X7260658Y-19706936D02*
X7251134Y-19716460D01*
X7251134Y-19716460D02*
X7232086Y-19725984D01*
X7232086Y-19725984D02*
X7213039Y-19725984D01*
X7213039Y-19725984D02*
X7193991Y-19716460D01*
X7193991Y-19716460D02*
X7184467Y-19706936D01*
X7184467Y-19706936D02*
X7174943Y-19687889D01*
X7174943Y-19687889D02*
X7165420Y-19649793D01*
X7165420Y-19649793D02*
X7165420Y-19602174D01*
X7165420Y-19602174D02*
X7174943Y-19564079D01*
X7174943Y-19564079D02*
X7184467Y-19545031D01*
X7184467Y-19545031D02*
X7193991Y-19535508D01*
X7193991Y-19535508D02*
X7213039Y-19525984D01*
X7365420Y-19725984D02*
X7365420Y-19592650D01*
X7365420Y-19611698D02*
X7374943Y-19602174D01*
X7374943Y-19602174D02*
X7393991Y-19592650D01*
X7393991Y-19592650D02*
X7422563Y-19592650D01*
X7422563Y-19592650D02*
X7441610Y-19602174D01*
X7441610Y-19602174D02*
X7451134Y-19621222D01*
X7451134Y-19621222D02*
X7451134Y-19725984D01*
X7451134Y-19621222D02*
X7460658Y-19602174D01*
X7460658Y-19602174D02*
X7479705Y-19592650D01*
X7479705Y-19592650D02*
X7508277Y-19592650D01*
X7508277Y-19592650D02*
X7527324Y-19602174D01*
X7527324Y-19602174D02*
X7536848Y-19621222D01*
X7536848Y-19621222D02*
X7536848Y-19725984D01*
X7632086Y-19725984D02*
X7632086Y-19592650D01*
X7632086Y-19611698D02*
X7641610Y-19602174D01*
X7641610Y-19602174D02*
X7660658Y-19592650D01*
X7660658Y-19592650D02*
X7689229Y-19592650D01*
X7689229Y-19592650D02*
X7708277Y-19602174D01*
X7708277Y-19602174D02*
X7717801Y-19621222D01*
X7717801Y-19621222D02*
X7717801Y-19725984D01*
X7717801Y-19621222D02*
X7727324Y-19602174D01*
X7727324Y-19602174D02*
X7746372Y-19592650D01*
X7746372Y-19592650D02*
X7774943Y-19592650D01*
X7774943Y-19592650D02*
X7793991Y-19602174D01*
X7793991Y-19602174D02*
X7803515Y-19621222D01*
X7803515Y-19621222D02*
X7803515Y-19725984D01*
X8193991Y-19516460D02*
X8022563Y-19773603D01*
X8451134Y-19525984D02*
X8470182Y-19525984D01*
X8470182Y-19525984D02*
X8489229Y-19535508D01*
X8489229Y-19535508D02*
X8498753Y-19545031D01*
X8498753Y-19545031D02*
X8508277Y-19564079D01*
X8508277Y-19564079D02*
X8517801Y-19602174D01*
X8517801Y-19602174D02*
X8517801Y-19649793D01*
X8517801Y-19649793D02*
X8508277Y-19687889D01*
X8508277Y-19687889D02*
X8498753Y-19706936D01*
X8498753Y-19706936D02*
X8489229Y-19716460D01*
X8489229Y-19716460D02*
X8470182Y-19725984D01*
X8470182Y-19725984D02*
X8451134Y-19725984D01*
X8451134Y-19725984D02*
X8432087Y-19716460D01*
X8432087Y-19716460D02*
X8422563Y-19706936D01*
X8422563Y-19706936D02*
X8413039Y-19687889D01*
X8413039Y-19687889D02*
X8403515Y-19649793D01*
X8403515Y-19649793D02*
X8403515Y-19602174D01*
X8403515Y-19602174D02*
X8413039Y-19564079D01*
X8413039Y-19564079D02*
X8422563Y-19545031D01*
X8422563Y-19545031D02*
X8432087Y-19535508D01*
X8432087Y-19535508D02*
X8451134Y-19525984D01*
X8603515Y-19706936D02*
X8613039Y-19716460D01*
X8613039Y-19716460D02*
X8603515Y-19725984D01*
X8603515Y-19725984D02*
X8593991Y-19716460D01*
X8593991Y-19716460D02*
X8603515Y-19706936D01*
X8603515Y-19706936D02*
X8603515Y-19725984D01*
X8736848Y-19525984D02*
X8755896Y-19525984D01*
X8755896Y-19525984D02*
X8774944Y-19535508D01*
X8774944Y-19535508D02*
X8784468Y-19545031D01*
X8784468Y-19545031D02*
X8793991Y-19564079D01*
X8793991Y-19564079D02*
X8803515Y-19602174D01*
X8803515Y-19602174D02*
X8803515Y-19649793D01*
X8803515Y-19649793D02*
X8793991Y-19687889D01*
X8793991Y-19687889D02*
X8784468Y-19706936D01*
X8784468Y-19706936D02*
X8774944Y-19716460D01*
X8774944Y-19716460D02*
X8755896Y-19725984D01*
X8755896Y-19725984D02*
X8736848Y-19725984D01*
X8736848Y-19725984D02*
X8717801Y-19716460D01*
X8717801Y-19716460D02*
X8708277Y-19706936D01*
X8708277Y-19706936D02*
X8698753Y-19687889D01*
X8698753Y-19687889D02*
X8689229Y-19649793D01*
X8689229Y-19649793D02*
X8689229Y-19602174D01*
X8689229Y-19602174D02*
X8698753Y-19564079D01*
X8698753Y-19564079D02*
X8708277Y-19545031D01*
X8708277Y-19545031D02*
X8717801Y-19535508D01*
X8717801Y-19535508D02*
X8736848Y-19525984D01*
X8870182Y-19525984D02*
X8993991Y-19525984D01*
X8993991Y-19525984D02*
X8927325Y-19602174D01*
X8927325Y-19602174D02*
X8955896Y-19602174D01*
X8955896Y-19602174D02*
X8974944Y-19611698D01*
X8974944Y-19611698D02*
X8984468Y-19621222D01*
X8984468Y-19621222D02*
X8993991Y-19640270D01*
X8993991Y-19640270D02*
X8993991Y-19687889D01*
X8993991Y-19687889D02*
X8984468Y-19706936D01*
X8984468Y-19706936D02*
X8974944Y-19716460D01*
X8974944Y-19716460D02*
X8955896Y-19725984D01*
X8955896Y-19725984D02*
X8898753Y-19725984D01*
X8898753Y-19725984D02*
X8879706Y-19716460D01*
X8879706Y-19716460D02*
X8870182Y-19706936D01*
X9184468Y-19725984D02*
X9070182Y-19725984D01*
X9127325Y-19725984D02*
X9127325Y-19525984D01*
X9127325Y-19525984D02*
X9108277Y-19554555D01*
X9108277Y-19554555D02*
X9089229Y-19573603D01*
X9089229Y-19573603D02*
X9070182Y-19583127D01*
X9365420Y-19525984D02*
X9270182Y-19525984D01*
X9270182Y-19525984D02*
X9260658Y-19621222D01*
X9260658Y-19621222D02*
X9270182Y-19611698D01*
X9270182Y-19611698D02*
X9289229Y-19602174D01*
X9289229Y-19602174D02*
X9336849Y-19602174D01*
X9336849Y-19602174D02*
X9355896Y-19611698D01*
X9355896Y-19611698D02*
X9365420Y-19621222D01*
X9365420Y-19621222D02*
X9374944Y-19640270D01*
X9374944Y-19640270D02*
X9374944Y-19687889D01*
X9374944Y-19687889D02*
X9365420Y-19706936D01*
X9365420Y-19706936D02*
X9355896Y-19716460D01*
X9355896Y-19716460D02*
X9336849Y-19725984D01*
X9336849Y-19725984D02*
X9289229Y-19725984D01*
X9289229Y-19725984D02*
X9270182Y-19716460D01*
X9270182Y-19716460D02*
X9260658Y-19706936D01*
X9451134Y-19525984D02*
X9451134Y-19564079D01*
X9527325Y-19525984D02*
X9527325Y-19564079D01*
X9822563Y-19802174D02*
X9813039Y-19792650D01*
X9813039Y-19792650D02*
X9793991Y-19764079D01*
X9793991Y-19764079D02*
X9784468Y-19745031D01*
X9784468Y-19745031D02*
X9774944Y-19716460D01*
X9774944Y-19716460D02*
X9765420Y-19668841D01*
X9765420Y-19668841D02*
X9765420Y-19630746D01*
X9765420Y-19630746D02*
X9774944Y-19583127D01*
X9774944Y-19583127D02*
X9784468Y-19554555D01*
X9784468Y-19554555D02*
X9793991Y-19535508D01*
X9793991Y-19535508D02*
X9813039Y-19506936D01*
X9813039Y-19506936D02*
X9822563Y-19497412D01*
X9889230Y-19545031D02*
X9898753Y-19535508D01*
X9898753Y-19535508D02*
X9917801Y-19525984D01*
X9917801Y-19525984D02*
X9965420Y-19525984D01*
X9965420Y-19525984D02*
X9984468Y-19535508D01*
X9984468Y-19535508D02*
X9993991Y-19545031D01*
X9993991Y-19545031D02*
X10003515Y-19564079D01*
X10003515Y-19564079D02*
X10003515Y-19583127D01*
X10003515Y-19583127D02*
X9993991Y-19611698D01*
X9993991Y-19611698D02*
X9879706Y-19725984D01*
X9879706Y-19725984D02*
X10003515Y-19725984D01*
X10193991Y-19725984D02*
X10079706Y-19725984D01*
X10136849Y-19725984D02*
X10136849Y-19525984D01*
X10136849Y-19525984D02*
X10117801Y-19554555D01*
X10117801Y-19554555D02*
X10098753Y-19573603D01*
X10098753Y-19573603D02*
X10079706Y-19583127D01*
X10317801Y-19525984D02*
X10336849Y-19525984D01*
X10336849Y-19525984D02*
X10355896Y-19535508D01*
X10355896Y-19535508D02*
X10365420Y-19545031D01*
X10365420Y-19545031D02*
X10374944Y-19564079D01*
X10374944Y-19564079D02*
X10384468Y-19602174D01*
X10384468Y-19602174D02*
X10384468Y-19649793D01*
X10384468Y-19649793D02*
X10374944Y-19687889D01*
X10374944Y-19687889D02*
X10365420Y-19706936D01*
X10365420Y-19706936D02*
X10355896Y-19716460D01*
X10355896Y-19716460D02*
X10336849Y-19725984D01*
X10336849Y-19725984D02*
X10317801Y-19725984D01*
X10317801Y-19725984D02*
X10298753Y-19716460D01*
X10298753Y-19716460D02*
X10289230Y-19706936D01*
X10289230Y-19706936D02*
X10279706Y-19687889D01*
X10279706Y-19687889D02*
X10270182Y-19649793D01*
X10270182Y-19649793D02*
X10270182Y-19602174D01*
X10270182Y-19602174D02*
X10279706Y-19564079D01*
X10279706Y-19564079D02*
X10289230Y-19545031D01*
X10289230Y-19545031D02*
X10298753Y-19535508D01*
X10298753Y-19535508D02*
X10317801Y-19525984D01*
X10622563Y-19725984D02*
X10622563Y-19525984D01*
X10708277Y-19725984D02*
X10708277Y-19621222D01*
X10708277Y-19621222D02*
X10698753Y-19602174D01*
X10698753Y-19602174D02*
X10679706Y-19592650D01*
X10679706Y-19592650D02*
X10651134Y-19592650D01*
X10651134Y-19592650D02*
X10632087Y-19602174D01*
X10632087Y-19602174D02*
X10622563Y-19611698D01*
X10832087Y-19725984D02*
X10813039Y-19716460D01*
X10813039Y-19716460D02*
X10803515Y-19706936D01*
X10803515Y-19706936D02*
X10793992Y-19687889D01*
X10793992Y-19687889D02*
X10793992Y-19630746D01*
X10793992Y-19630746D02*
X10803515Y-19611698D01*
X10803515Y-19611698D02*
X10813039Y-19602174D01*
X10813039Y-19602174D02*
X10832087Y-19592650D01*
X10832087Y-19592650D02*
X10860658Y-19592650D01*
X10860658Y-19592650D02*
X10879706Y-19602174D01*
X10879706Y-19602174D02*
X10889230Y-19611698D01*
X10889230Y-19611698D02*
X10898753Y-19630746D01*
X10898753Y-19630746D02*
X10898753Y-19687889D01*
X10898753Y-19687889D02*
X10889230Y-19706936D01*
X10889230Y-19706936D02*
X10879706Y-19716460D01*
X10879706Y-19716460D02*
X10860658Y-19725984D01*
X10860658Y-19725984D02*
X10832087Y-19725984D01*
X11013039Y-19725984D02*
X10993992Y-19716460D01*
X10993992Y-19716460D02*
X10984468Y-19697412D01*
X10984468Y-19697412D02*
X10984468Y-19525984D01*
X11165420Y-19716460D02*
X11146373Y-19725984D01*
X11146373Y-19725984D02*
X11108277Y-19725984D01*
X11108277Y-19725984D02*
X11089230Y-19716460D01*
X11089230Y-19716460D02*
X11079706Y-19697412D01*
X11079706Y-19697412D02*
X11079706Y-19621222D01*
X11079706Y-19621222D02*
X11089230Y-19602174D01*
X11089230Y-19602174D02*
X11108277Y-19592650D01*
X11108277Y-19592650D02*
X11146373Y-19592650D01*
X11146373Y-19592650D02*
X11165420Y-19602174D01*
X11165420Y-19602174D02*
X11174944Y-19621222D01*
X11174944Y-19621222D02*
X11174944Y-19640270D01*
X11174944Y-19640270D02*
X11079706Y-19659317D01*
X11251134Y-19716460D02*
X11270182Y-19725984D01*
X11270182Y-19725984D02*
X11308277Y-19725984D01*
X11308277Y-19725984D02*
X11327325Y-19716460D01*
X11327325Y-19716460D02*
X11336849Y-19697412D01*
X11336849Y-19697412D02*
X11336849Y-19687889D01*
X11336849Y-19687889D02*
X11327325Y-19668841D01*
X11327325Y-19668841D02*
X11308277Y-19659317D01*
X11308277Y-19659317D02*
X11279706Y-19659317D01*
X11279706Y-19659317D02*
X11260658Y-19649793D01*
X11260658Y-19649793D02*
X11251134Y-19630746D01*
X11251134Y-19630746D02*
X11251134Y-19621222D01*
X11251134Y-19621222D02*
X11260658Y-19602174D01*
X11260658Y-19602174D02*
X11279706Y-19592650D01*
X11279706Y-19592650D02*
X11308277Y-19592650D01*
X11308277Y-19592650D02*
X11327325Y-19602174D01*
X11403515Y-19802174D02*
X11413039Y-19792650D01*
X11413039Y-19792650D02*
X11432087Y-19764079D01*
X11432087Y-19764079D02*
X11441611Y-19745031D01*
X11441611Y-19745031D02*
X11451134Y-19716460D01*
X11451134Y-19716460D02*
X11460658Y-19668841D01*
X11460658Y-19668841D02*
X11460658Y-19630746D01*
X11460658Y-19630746D02*
X11451134Y-19583127D01*
X11451134Y-19583127D02*
X11441611Y-19554555D01*
X11441611Y-19554555D02*
X11432087Y-19535508D01*
X11432087Y-19535508D02*
X11413039Y-19506936D01*
X11413039Y-19506936D02*
X11403515Y-19497412D01*
D12*
X6202500Y-19943500D02*
X6247500Y-19898500D01*
X6202500Y-19853500D01*
X6157500Y-19898500D01*
X6202500Y-19943500D01*
D11*
X6546372Y-19789984D02*
X6565420Y-19789984D01*
X6565420Y-19789984D02*
X6584467Y-19799508D01*
X6584467Y-19799508D02*
X6593991Y-19809031D01*
X6593991Y-19809031D02*
X6603515Y-19828079D01*
X6603515Y-19828079D02*
X6613039Y-19866174D01*
X6613039Y-19866174D02*
X6613039Y-19913793D01*
X6613039Y-19913793D02*
X6603515Y-19951889D01*
X6603515Y-19951889D02*
X6593991Y-19970936D01*
X6593991Y-19970936D02*
X6584467Y-19980460D01*
X6584467Y-19980460D02*
X6565420Y-19989984D01*
X6565420Y-19989984D02*
X6546372Y-19989984D01*
X6546372Y-19989984D02*
X6527324Y-19980460D01*
X6527324Y-19980460D02*
X6517801Y-19970936D01*
X6517801Y-19970936D02*
X6508277Y-19951889D01*
X6508277Y-19951889D02*
X6498753Y-19913793D01*
X6498753Y-19913793D02*
X6498753Y-19866174D01*
X6498753Y-19866174D02*
X6508277Y-19828079D01*
X6508277Y-19828079D02*
X6517801Y-19809031D01*
X6517801Y-19809031D02*
X6527324Y-19799508D01*
X6527324Y-19799508D02*
X6546372Y-19789984D01*
X6698753Y-19970936D02*
X6708277Y-19980460D01*
X6708277Y-19980460D02*
X6698753Y-19989984D01*
X6698753Y-19989984D02*
X6689229Y-19980460D01*
X6689229Y-19980460D02*
X6698753Y-19970936D01*
X6698753Y-19970936D02*
X6698753Y-19989984D01*
X6803515Y-19989984D02*
X6841610Y-19989984D01*
X6841610Y-19989984D02*
X6860658Y-19980460D01*
X6860658Y-19980460D02*
X6870182Y-19970936D01*
X6870182Y-19970936D02*
X6889229Y-19942365D01*
X6889229Y-19942365D02*
X6898753Y-19904270D01*
X6898753Y-19904270D02*
X6898753Y-19828079D01*
X6898753Y-19828079D02*
X6889229Y-19809031D01*
X6889229Y-19809031D02*
X6879705Y-19799508D01*
X6879705Y-19799508D02*
X6860658Y-19789984D01*
X6860658Y-19789984D02*
X6822562Y-19789984D01*
X6822562Y-19789984D02*
X6803515Y-19799508D01*
X6803515Y-19799508D02*
X6793991Y-19809031D01*
X6793991Y-19809031D02*
X6784467Y-19828079D01*
X6784467Y-19828079D02*
X6784467Y-19875698D01*
X6784467Y-19875698D02*
X6793991Y-19894746D01*
X6793991Y-19894746D02*
X6803515Y-19904270D01*
X6803515Y-19904270D02*
X6822562Y-19913793D01*
X6822562Y-19913793D02*
X6860658Y-19913793D01*
X6860658Y-19913793D02*
X6879705Y-19904270D01*
X6879705Y-19904270D02*
X6889229Y-19894746D01*
X6889229Y-19894746D02*
X6898753Y-19875698D01*
X7022562Y-19789984D02*
X7041610Y-19789984D01*
X7041610Y-19789984D02*
X7060658Y-19799508D01*
X7060658Y-19799508D02*
X7070182Y-19809031D01*
X7070182Y-19809031D02*
X7079705Y-19828079D01*
X7079705Y-19828079D02*
X7089229Y-19866174D01*
X7089229Y-19866174D02*
X7089229Y-19913793D01*
X7089229Y-19913793D02*
X7079705Y-19951889D01*
X7079705Y-19951889D02*
X7070182Y-19970936D01*
X7070182Y-19970936D02*
X7060658Y-19980460D01*
X7060658Y-19980460D02*
X7041610Y-19989984D01*
X7041610Y-19989984D02*
X7022562Y-19989984D01*
X7022562Y-19989984D02*
X7003515Y-19980460D01*
X7003515Y-19980460D02*
X6993991Y-19970936D01*
X6993991Y-19970936D02*
X6984467Y-19951889D01*
X6984467Y-19951889D02*
X6974943Y-19913793D01*
X6974943Y-19913793D02*
X6974943Y-19866174D01*
X6974943Y-19866174D02*
X6984467Y-19828079D01*
X6984467Y-19828079D02*
X6993991Y-19809031D01*
X6993991Y-19809031D02*
X7003515Y-19799508D01*
X7003515Y-19799508D02*
X7022562Y-19789984D01*
X7213039Y-19789984D02*
X7232086Y-19789984D01*
X7232086Y-19789984D02*
X7251134Y-19799508D01*
X7251134Y-19799508D02*
X7260658Y-19809031D01*
X7260658Y-19809031D02*
X7270182Y-19828079D01*
X7270182Y-19828079D02*
X7279705Y-19866174D01*
X7279705Y-19866174D02*
X7279705Y-19913793D01*
X7279705Y-19913793D02*
X7270182Y-19951889D01*
X7270182Y-19951889D02*
X7260658Y-19970936D01*
X7260658Y-19970936D02*
X7251134Y-19980460D01*
X7251134Y-19980460D02*
X7232086Y-19989984D01*
X7232086Y-19989984D02*
X7213039Y-19989984D01*
X7213039Y-19989984D02*
X7193991Y-19980460D01*
X7193991Y-19980460D02*
X7184467Y-19970936D01*
X7184467Y-19970936D02*
X7174943Y-19951889D01*
X7174943Y-19951889D02*
X7165420Y-19913793D01*
X7165420Y-19913793D02*
X7165420Y-19866174D01*
X7165420Y-19866174D02*
X7174943Y-19828079D01*
X7174943Y-19828079D02*
X7184467Y-19809031D01*
X7184467Y-19809031D02*
X7193991Y-19799508D01*
X7193991Y-19799508D02*
X7213039Y-19789984D01*
X7365420Y-19989984D02*
X7365420Y-19856650D01*
X7365420Y-19875698D02*
X7374943Y-19866174D01*
X7374943Y-19866174D02*
X7393991Y-19856650D01*
X7393991Y-19856650D02*
X7422563Y-19856650D01*
X7422563Y-19856650D02*
X7441610Y-19866174D01*
X7441610Y-19866174D02*
X7451134Y-19885222D01*
X7451134Y-19885222D02*
X7451134Y-19989984D01*
X7451134Y-19885222D02*
X7460658Y-19866174D01*
X7460658Y-19866174D02*
X7479705Y-19856650D01*
X7479705Y-19856650D02*
X7508277Y-19856650D01*
X7508277Y-19856650D02*
X7527324Y-19866174D01*
X7527324Y-19866174D02*
X7536848Y-19885222D01*
X7536848Y-19885222D02*
X7536848Y-19989984D01*
X7632086Y-19989984D02*
X7632086Y-19856650D01*
X7632086Y-19875698D02*
X7641610Y-19866174D01*
X7641610Y-19866174D02*
X7660658Y-19856650D01*
X7660658Y-19856650D02*
X7689229Y-19856650D01*
X7689229Y-19856650D02*
X7708277Y-19866174D01*
X7708277Y-19866174D02*
X7717801Y-19885222D01*
X7717801Y-19885222D02*
X7717801Y-19989984D01*
X7717801Y-19885222D02*
X7727324Y-19866174D01*
X7727324Y-19866174D02*
X7746372Y-19856650D01*
X7746372Y-19856650D02*
X7774943Y-19856650D01*
X7774943Y-19856650D02*
X7793991Y-19866174D01*
X7793991Y-19866174D02*
X7803515Y-19885222D01*
X7803515Y-19885222D02*
X7803515Y-19989984D01*
X8193991Y-19780460D02*
X8022563Y-20037603D01*
X8451134Y-19789984D02*
X8470182Y-19789984D01*
X8470182Y-19789984D02*
X8489229Y-19799508D01*
X8489229Y-19799508D02*
X8498753Y-19809031D01*
X8498753Y-19809031D02*
X8508277Y-19828079D01*
X8508277Y-19828079D02*
X8517801Y-19866174D01*
X8517801Y-19866174D02*
X8517801Y-19913793D01*
X8517801Y-19913793D02*
X8508277Y-19951889D01*
X8508277Y-19951889D02*
X8498753Y-19970936D01*
X8498753Y-19970936D02*
X8489229Y-19980460D01*
X8489229Y-19980460D02*
X8470182Y-19989984D01*
X8470182Y-19989984D02*
X8451134Y-19989984D01*
X8451134Y-19989984D02*
X8432087Y-19980460D01*
X8432087Y-19980460D02*
X8422563Y-19970936D01*
X8422563Y-19970936D02*
X8413039Y-19951889D01*
X8413039Y-19951889D02*
X8403515Y-19913793D01*
X8403515Y-19913793D02*
X8403515Y-19866174D01*
X8403515Y-19866174D02*
X8413039Y-19828079D01*
X8413039Y-19828079D02*
X8422563Y-19809031D01*
X8422563Y-19809031D02*
X8432087Y-19799508D01*
X8432087Y-19799508D02*
X8451134Y-19789984D01*
X8603515Y-19970936D02*
X8613039Y-19980460D01*
X8613039Y-19980460D02*
X8603515Y-19989984D01*
X8603515Y-19989984D02*
X8593991Y-19980460D01*
X8593991Y-19980460D02*
X8603515Y-19970936D01*
X8603515Y-19970936D02*
X8603515Y-19989984D01*
X8736848Y-19789984D02*
X8755896Y-19789984D01*
X8755896Y-19789984D02*
X8774944Y-19799508D01*
X8774944Y-19799508D02*
X8784468Y-19809031D01*
X8784468Y-19809031D02*
X8793991Y-19828079D01*
X8793991Y-19828079D02*
X8803515Y-19866174D01*
X8803515Y-19866174D02*
X8803515Y-19913793D01*
X8803515Y-19913793D02*
X8793991Y-19951889D01*
X8793991Y-19951889D02*
X8784468Y-19970936D01*
X8784468Y-19970936D02*
X8774944Y-19980460D01*
X8774944Y-19980460D02*
X8755896Y-19989984D01*
X8755896Y-19989984D02*
X8736848Y-19989984D01*
X8736848Y-19989984D02*
X8717801Y-19980460D01*
X8717801Y-19980460D02*
X8708277Y-19970936D01*
X8708277Y-19970936D02*
X8698753Y-19951889D01*
X8698753Y-19951889D02*
X8689229Y-19913793D01*
X8689229Y-19913793D02*
X8689229Y-19866174D01*
X8689229Y-19866174D02*
X8698753Y-19828079D01*
X8698753Y-19828079D02*
X8708277Y-19809031D01*
X8708277Y-19809031D02*
X8717801Y-19799508D01*
X8717801Y-19799508D02*
X8736848Y-19789984D01*
X8870182Y-19789984D02*
X8993991Y-19789984D01*
X8993991Y-19789984D02*
X8927325Y-19866174D01*
X8927325Y-19866174D02*
X8955896Y-19866174D01*
X8955896Y-19866174D02*
X8974944Y-19875698D01*
X8974944Y-19875698D02*
X8984468Y-19885222D01*
X8984468Y-19885222D02*
X8993991Y-19904270D01*
X8993991Y-19904270D02*
X8993991Y-19951889D01*
X8993991Y-19951889D02*
X8984468Y-19970936D01*
X8984468Y-19970936D02*
X8974944Y-19980460D01*
X8974944Y-19980460D02*
X8955896Y-19989984D01*
X8955896Y-19989984D02*
X8898753Y-19989984D01*
X8898753Y-19989984D02*
X8879706Y-19980460D01*
X8879706Y-19980460D02*
X8870182Y-19970936D01*
X9174944Y-19789984D02*
X9079706Y-19789984D01*
X9079706Y-19789984D02*
X9070182Y-19885222D01*
X9070182Y-19885222D02*
X9079706Y-19875698D01*
X9079706Y-19875698D02*
X9098753Y-19866174D01*
X9098753Y-19866174D02*
X9146372Y-19866174D01*
X9146372Y-19866174D02*
X9165420Y-19875698D01*
X9165420Y-19875698D02*
X9174944Y-19885222D01*
X9174944Y-19885222D02*
X9184468Y-19904270D01*
X9184468Y-19904270D02*
X9184468Y-19951889D01*
X9184468Y-19951889D02*
X9174944Y-19970936D01*
X9174944Y-19970936D02*
X9165420Y-19980460D01*
X9165420Y-19980460D02*
X9146372Y-19989984D01*
X9146372Y-19989984D02*
X9098753Y-19989984D01*
X9098753Y-19989984D02*
X9079706Y-19980460D01*
X9079706Y-19980460D02*
X9070182Y-19970936D01*
X9355896Y-19856650D02*
X9355896Y-19989984D01*
X9308277Y-19780460D02*
X9260658Y-19923317D01*
X9260658Y-19923317D02*
X9384468Y-19923317D01*
X9451134Y-19789984D02*
X9451134Y-19828079D01*
X9527325Y-19789984D02*
X9527325Y-19828079D01*
X9822563Y-20066174D02*
X9813039Y-20056650D01*
X9813039Y-20056650D02*
X9793991Y-20028079D01*
X9793991Y-20028079D02*
X9784468Y-20009031D01*
X9784468Y-20009031D02*
X9774944Y-19980460D01*
X9774944Y-19980460D02*
X9765420Y-19932841D01*
X9765420Y-19932841D02*
X9765420Y-19894746D01*
X9765420Y-19894746D02*
X9774944Y-19847127D01*
X9774944Y-19847127D02*
X9784468Y-19818555D01*
X9784468Y-19818555D02*
X9793991Y-19799508D01*
X9793991Y-19799508D02*
X9813039Y-19770936D01*
X9813039Y-19770936D02*
X9822563Y-19761412D01*
X9984468Y-19856650D02*
X9984468Y-19989984D01*
X9936849Y-19780460D02*
X9889230Y-19923317D01*
X9889230Y-19923317D02*
X10013039Y-19923317D01*
X10079706Y-19809031D02*
X10089230Y-19799508D01*
X10089230Y-19799508D02*
X10108277Y-19789984D01*
X10108277Y-19789984D02*
X10155896Y-19789984D01*
X10155896Y-19789984D02*
X10174944Y-19799508D01*
X10174944Y-19799508D02*
X10184468Y-19809031D01*
X10184468Y-19809031D02*
X10193991Y-19828079D01*
X10193991Y-19828079D02*
X10193991Y-19847127D01*
X10193991Y-19847127D02*
X10184468Y-19875698D01*
X10184468Y-19875698D02*
X10070182Y-19989984D01*
X10070182Y-19989984D02*
X10193991Y-19989984D01*
X10432087Y-19989984D02*
X10432087Y-19789984D01*
X10517801Y-19989984D02*
X10517801Y-19885222D01*
X10517801Y-19885222D02*
X10508277Y-19866174D01*
X10508277Y-19866174D02*
X10489230Y-19856650D01*
X10489230Y-19856650D02*
X10460658Y-19856650D01*
X10460658Y-19856650D02*
X10441611Y-19866174D01*
X10441611Y-19866174D02*
X10432087Y-19875698D01*
X10641611Y-19989984D02*
X10622563Y-19980460D01*
X10622563Y-19980460D02*
X10613039Y-19970936D01*
X10613039Y-19970936D02*
X10603515Y-19951889D01*
X10603515Y-19951889D02*
X10603515Y-19894746D01*
X10603515Y-19894746D02*
X10613039Y-19875698D01*
X10613039Y-19875698D02*
X10622563Y-19866174D01*
X10622563Y-19866174D02*
X10641611Y-19856650D01*
X10641611Y-19856650D02*
X10670182Y-19856650D01*
X10670182Y-19856650D02*
X10689230Y-19866174D01*
X10689230Y-19866174D02*
X10698753Y-19875698D01*
X10698753Y-19875698D02*
X10708277Y-19894746D01*
X10708277Y-19894746D02*
X10708277Y-19951889D01*
X10708277Y-19951889D02*
X10698753Y-19970936D01*
X10698753Y-19970936D02*
X10689230Y-19980460D01*
X10689230Y-19980460D02*
X10670182Y-19989984D01*
X10670182Y-19989984D02*
X10641611Y-19989984D01*
X10822563Y-19989984D02*
X10803515Y-19980460D01*
X10803515Y-19980460D02*
X10793992Y-19961412D01*
X10793992Y-19961412D02*
X10793992Y-19789984D01*
X10974944Y-19980460D02*
X10955896Y-19989984D01*
X10955896Y-19989984D02*
X10917801Y-19989984D01*
X10917801Y-19989984D02*
X10898753Y-19980460D01*
X10898753Y-19980460D02*
X10889230Y-19961412D01*
X10889230Y-19961412D02*
X10889230Y-19885222D01*
X10889230Y-19885222D02*
X10898753Y-19866174D01*
X10898753Y-19866174D02*
X10917801Y-19856650D01*
X10917801Y-19856650D02*
X10955896Y-19856650D01*
X10955896Y-19856650D02*
X10974944Y-19866174D01*
X10974944Y-19866174D02*
X10984468Y-19885222D01*
X10984468Y-19885222D02*
X10984468Y-19904270D01*
X10984468Y-19904270D02*
X10889230Y-19923317D01*
X11060658Y-19980460D02*
X11079706Y-19989984D01*
X11079706Y-19989984D02*
X11117801Y-19989984D01*
X11117801Y-19989984D02*
X11136849Y-19980460D01*
X11136849Y-19980460D02*
X11146373Y-19961412D01*
X11146373Y-19961412D02*
X11146373Y-19951889D01*
X11146373Y-19951889D02*
X11136849Y-19932841D01*
X11136849Y-19932841D02*
X11117801Y-19923317D01*
X11117801Y-19923317D02*
X11089230Y-19923317D01*
X11089230Y-19923317D02*
X11070182Y-19913793D01*
X11070182Y-19913793D02*
X11060658Y-19894746D01*
X11060658Y-19894746D02*
X11060658Y-19885222D01*
X11060658Y-19885222D02*
X11070182Y-19866174D01*
X11070182Y-19866174D02*
X11089230Y-19856650D01*
X11089230Y-19856650D02*
X11117801Y-19856650D01*
X11117801Y-19856650D02*
X11136849Y-19866174D01*
X11213039Y-20066174D02*
X11222563Y-20056650D01*
X11222563Y-20056650D02*
X11241611Y-20028079D01*
X11241611Y-20028079D02*
X11251134Y-20009031D01*
X11251134Y-20009031D02*
X11260658Y-19980460D01*
X11260658Y-19980460D02*
X11270182Y-19932841D01*
X11270182Y-19932841D02*
X11270182Y-19894746D01*
X11270182Y-19894746D02*
X11260658Y-19847127D01*
X11260658Y-19847127D02*
X11251134Y-19818555D01*
X11251134Y-19818555D02*
X11241611Y-19799508D01*
X11241611Y-19799508D02*
X11222563Y-19770936D01*
X11222563Y-19770936D02*
X11213039Y-19761412D01*
D13*
X6145500Y-20111500D02*
X6247500Y-20213500D01*
X6247500Y-20111500D02*
X6145500Y-20213500D01*
X6247500Y-20162500D02*
G75*
G02*
X6145500Y-20162500I-51000J0D01*
G01*
X6145500Y-20162500D02*
G75*
G02*
X6247500Y-20162500I51000J0D01*
G01*
D11*
X6613039Y-20253984D02*
X6498753Y-20253984D01*
X6555896Y-20253984D02*
X6555896Y-20053984D01*
X6555896Y-20053984D02*
X6536848Y-20082555D01*
X6536848Y-20082555D02*
X6517801Y-20101603D01*
X6517801Y-20101603D02*
X6498753Y-20111127D01*
X6698753Y-20234936D02*
X6708277Y-20244460D01*
X6708277Y-20244460D02*
X6698753Y-20253984D01*
X6698753Y-20253984D02*
X6689229Y-20244460D01*
X6689229Y-20244460D02*
X6698753Y-20234936D01*
X6698753Y-20234936D02*
X6698753Y-20253984D01*
X6832086Y-20053984D02*
X6851134Y-20053984D01*
X6851134Y-20053984D02*
X6870182Y-20063508D01*
X6870182Y-20063508D02*
X6879705Y-20073031D01*
X6879705Y-20073031D02*
X6889229Y-20092079D01*
X6889229Y-20092079D02*
X6898753Y-20130174D01*
X6898753Y-20130174D02*
X6898753Y-20177793D01*
X6898753Y-20177793D02*
X6889229Y-20215889D01*
X6889229Y-20215889D02*
X6879705Y-20234936D01*
X6879705Y-20234936D02*
X6870182Y-20244460D01*
X6870182Y-20244460D02*
X6851134Y-20253984D01*
X6851134Y-20253984D02*
X6832086Y-20253984D01*
X6832086Y-20253984D02*
X6813039Y-20244460D01*
X6813039Y-20244460D02*
X6803515Y-20234936D01*
X6803515Y-20234936D02*
X6793991Y-20215889D01*
X6793991Y-20215889D02*
X6784467Y-20177793D01*
X6784467Y-20177793D02*
X6784467Y-20130174D01*
X6784467Y-20130174D02*
X6793991Y-20092079D01*
X6793991Y-20092079D02*
X6803515Y-20073031D01*
X6803515Y-20073031D02*
X6813039Y-20063508D01*
X6813039Y-20063508D02*
X6832086Y-20053984D01*
X6974943Y-20073031D02*
X6984467Y-20063508D01*
X6984467Y-20063508D02*
X7003515Y-20053984D01*
X7003515Y-20053984D02*
X7051134Y-20053984D01*
X7051134Y-20053984D02*
X7070182Y-20063508D01*
X7070182Y-20063508D02*
X7079705Y-20073031D01*
X7079705Y-20073031D02*
X7089229Y-20092079D01*
X7089229Y-20092079D02*
X7089229Y-20111127D01*
X7089229Y-20111127D02*
X7079705Y-20139698D01*
X7079705Y-20139698D02*
X6965420Y-20253984D01*
X6965420Y-20253984D02*
X7089229Y-20253984D01*
X7213039Y-20053984D02*
X7232086Y-20053984D01*
X7232086Y-20053984D02*
X7251134Y-20063508D01*
X7251134Y-20063508D02*
X7260658Y-20073031D01*
X7260658Y-20073031D02*
X7270182Y-20092079D01*
X7270182Y-20092079D02*
X7279705Y-20130174D01*
X7279705Y-20130174D02*
X7279705Y-20177793D01*
X7279705Y-20177793D02*
X7270182Y-20215889D01*
X7270182Y-20215889D02*
X7260658Y-20234936D01*
X7260658Y-20234936D02*
X7251134Y-20244460D01*
X7251134Y-20244460D02*
X7232086Y-20253984D01*
X7232086Y-20253984D02*
X7213039Y-20253984D01*
X7213039Y-20253984D02*
X7193991Y-20244460D01*
X7193991Y-20244460D02*
X7184467Y-20234936D01*
X7184467Y-20234936D02*
X7174943Y-20215889D01*
X7174943Y-20215889D02*
X7165420Y-20177793D01*
X7165420Y-20177793D02*
X7165420Y-20130174D01*
X7165420Y-20130174D02*
X7174943Y-20092079D01*
X7174943Y-20092079D02*
X7184467Y-20073031D01*
X7184467Y-20073031D02*
X7193991Y-20063508D01*
X7193991Y-20063508D02*
X7213039Y-20053984D01*
X7365420Y-20253984D02*
X7365420Y-20120650D01*
X7365420Y-20139698D02*
X7374943Y-20130174D01*
X7374943Y-20130174D02*
X7393991Y-20120650D01*
X7393991Y-20120650D02*
X7422563Y-20120650D01*
X7422563Y-20120650D02*
X7441610Y-20130174D01*
X7441610Y-20130174D02*
X7451134Y-20149222D01*
X7451134Y-20149222D02*
X7451134Y-20253984D01*
X7451134Y-20149222D02*
X7460658Y-20130174D01*
X7460658Y-20130174D02*
X7479705Y-20120650D01*
X7479705Y-20120650D02*
X7508277Y-20120650D01*
X7508277Y-20120650D02*
X7527324Y-20130174D01*
X7527324Y-20130174D02*
X7536848Y-20149222D01*
X7536848Y-20149222D02*
X7536848Y-20253984D01*
X7632086Y-20253984D02*
X7632086Y-20120650D01*
X7632086Y-20139698D02*
X7641610Y-20130174D01*
X7641610Y-20130174D02*
X7660658Y-20120650D01*
X7660658Y-20120650D02*
X7689229Y-20120650D01*
X7689229Y-20120650D02*
X7708277Y-20130174D01*
X7708277Y-20130174D02*
X7717801Y-20149222D01*
X7717801Y-20149222D02*
X7717801Y-20253984D01*
X7717801Y-20149222D02*
X7727324Y-20130174D01*
X7727324Y-20130174D02*
X7746372Y-20120650D01*
X7746372Y-20120650D02*
X7774943Y-20120650D01*
X7774943Y-20120650D02*
X7793991Y-20130174D01*
X7793991Y-20130174D02*
X7803515Y-20149222D01*
X7803515Y-20149222D02*
X7803515Y-20253984D01*
X8193991Y-20044460D02*
X8022563Y-20301603D01*
X8451134Y-20053984D02*
X8470182Y-20053984D01*
X8470182Y-20053984D02*
X8489229Y-20063508D01*
X8489229Y-20063508D02*
X8498753Y-20073031D01*
X8498753Y-20073031D02*
X8508277Y-20092079D01*
X8508277Y-20092079D02*
X8517801Y-20130174D01*
X8517801Y-20130174D02*
X8517801Y-20177793D01*
X8517801Y-20177793D02*
X8508277Y-20215889D01*
X8508277Y-20215889D02*
X8498753Y-20234936D01*
X8498753Y-20234936D02*
X8489229Y-20244460D01*
X8489229Y-20244460D02*
X8470182Y-20253984D01*
X8470182Y-20253984D02*
X8451134Y-20253984D01*
X8451134Y-20253984D02*
X8432087Y-20244460D01*
X8432087Y-20244460D02*
X8422563Y-20234936D01*
X8422563Y-20234936D02*
X8413039Y-20215889D01*
X8413039Y-20215889D02*
X8403515Y-20177793D01*
X8403515Y-20177793D02*
X8403515Y-20130174D01*
X8403515Y-20130174D02*
X8413039Y-20092079D01*
X8413039Y-20092079D02*
X8422563Y-20073031D01*
X8422563Y-20073031D02*
X8432087Y-20063508D01*
X8432087Y-20063508D02*
X8451134Y-20053984D01*
X8603515Y-20234936D02*
X8613039Y-20244460D01*
X8613039Y-20244460D02*
X8603515Y-20253984D01*
X8603515Y-20253984D02*
X8593991Y-20244460D01*
X8593991Y-20244460D02*
X8603515Y-20234936D01*
X8603515Y-20234936D02*
X8603515Y-20253984D01*
X8736848Y-20053984D02*
X8755896Y-20053984D01*
X8755896Y-20053984D02*
X8774944Y-20063508D01*
X8774944Y-20063508D02*
X8784468Y-20073031D01*
X8784468Y-20073031D02*
X8793991Y-20092079D01*
X8793991Y-20092079D02*
X8803515Y-20130174D01*
X8803515Y-20130174D02*
X8803515Y-20177793D01*
X8803515Y-20177793D02*
X8793991Y-20215889D01*
X8793991Y-20215889D02*
X8784468Y-20234936D01*
X8784468Y-20234936D02*
X8774944Y-20244460D01*
X8774944Y-20244460D02*
X8755896Y-20253984D01*
X8755896Y-20253984D02*
X8736848Y-20253984D01*
X8736848Y-20253984D02*
X8717801Y-20244460D01*
X8717801Y-20244460D02*
X8708277Y-20234936D01*
X8708277Y-20234936D02*
X8698753Y-20215889D01*
X8698753Y-20215889D02*
X8689229Y-20177793D01*
X8689229Y-20177793D02*
X8689229Y-20130174D01*
X8689229Y-20130174D02*
X8698753Y-20092079D01*
X8698753Y-20092079D02*
X8708277Y-20073031D01*
X8708277Y-20073031D02*
X8717801Y-20063508D01*
X8717801Y-20063508D02*
X8736848Y-20053984D01*
X8974944Y-20120650D02*
X8974944Y-20253984D01*
X8927325Y-20044460D02*
X8879706Y-20187317D01*
X8879706Y-20187317D02*
X9003515Y-20187317D01*
X9117801Y-20053984D02*
X9136849Y-20053984D01*
X9136849Y-20053984D02*
X9155896Y-20063508D01*
X9155896Y-20063508D02*
X9165420Y-20073031D01*
X9165420Y-20073031D02*
X9174944Y-20092079D01*
X9174944Y-20092079D02*
X9184468Y-20130174D01*
X9184468Y-20130174D02*
X9184468Y-20177793D01*
X9184468Y-20177793D02*
X9174944Y-20215889D01*
X9174944Y-20215889D02*
X9165420Y-20234936D01*
X9165420Y-20234936D02*
X9155896Y-20244460D01*
X9155896Y-20244460D02*
X9136849Y-20253984D01*
X9136849Y-20253984D02*
X9117801Y-20253984D01*
X9117801Y-20253984D02*
X9098753Y-20244460D01*
X9098753Y-20244460D02*
X9089229Y-20234936D01*
X9089229Y-20234936D02*
X9079706Y-20215889D01*
X9079706Y-20215889D02*
X9070182Y-20177793D01*
X9070182Y-20177793D02*
X9070182Y-20130174D01*
X9070182Y-20130174D02*
X9079706Y-20092079D01*
X9079706Y-20092079D02*
X9089229Y-20073031D01*
X9089229Y-20073031D02*
X9098753Y-20063508D01*
X9098753Y-20063508D02*
X9117801Y-20053984D01*
X9260658Y-20073031D02*
X9270182Y-20063508D01*
X9270182Y-20063508D02*
X9289229Y-20053984D01*
X9289229Y-20053984D02*
X9336849Y-20053984D01*
X9336849Y-20053984D02*
X9355896Y-20063508D01*
X9355896Y-20063508D02*
X9365420Y-20073031D01*
X9365420Y-20073031D02*
X9374944Y-20092079D01*
X9374944Y-20092079D02*
X9374944Y-20111127D01*
X9374944Y-20111127D02*
X9365420Y-20139698D01*
X9365420Y-20139698D02*
X9251134Y-20253984D01*
X9251134Y-20253984D02*
X9374944Y-20253984D01*
X9451134Y-20053984D02*
X9451134Y-20092079D01*
X9527325Y-20053984D02*
X9527325Y-20092079D01*
X9822563Y-20330174D02*
X9813039Y-20320650D01*
X9813039Y-20320650D02*
X9793991Y-20292079D01*
X9793991Y-20292079D02*
X9784468Y-20273031D01*
X9784468Y-20273031D02*
X9774944Y-20244460D01*
X9774944Y-20244460D02*
X9765420Y-20196841D01*
X9765420Y-20196841D02*
X9765420Y-20158746D01*
X9765420Y-20158746D02*
X9774944Y-20111127D01*
X9774944Y-20111127D02*
X9784468Y-20082555D01*
X9784468Y-20082555D02*
X9793991Y-20063508D01*
X9793991Y-20063508D02*
X9813039Y-20034936D01*
X9813039Y-20034936D02*
X9822563Y-20025412D01*
X9879706Y-20053984D02*
X10003515Y-20053984D01*
X10003515Y-20053984D02*
X9936849Y-20130174D01*
X9936849Y-20130174D02*
X9965420Y-20130174D01*
X9965420Y-20130174D02*
X9984468Y-20139698D01*
X9984468Y-20139698D02*
X9993991Y-20149222D01*
X9993991Y-20149222D02*
X10003515Y-20168270D01*
X10003515Y-20168270D02*
X10003515Y-20215889D01*
X10003515Y-20215889D02*
X9993991Y-20234936D01*
X9993991Y-20234936D02*
X9984468Y-20244460D01*
X9984468Y-20244460D02*
X9965420Y-20253984D01*
X9965420Y-20253984D02*
X9908277Y-20253984D01*
X9908277Y-20253984D02*
X9889230Y-20244460D01*
X9889230Y-20244460D02*
X9879706Y-20234936D01*
X10241611Y-20253984D02*
X10241611Y-20053984D01*
X10327325Y-20253984D02*
X10327325Y-20149222D01*
X10327325Y-20149222D02*
X10317801Y-20130174D01*
X10317801Y-20130174D02*
X10298753Y-20120650D01*
X10298753Y-20120650D02*
X10270182Y-20120650D01*
X10270182Y-20120650D02*
X10251134Y-20130174D01*
X10251134Y-20130174D02*
X10241611Y-20139698D01*
X10451134Y-20253984D02*
X10432087Y-20244460D01*
X10432087Y-20244460D02*
X10422563Y-20234936D01*
X10422563Y-20234936D02*
X10413039Y-20215889D01*
X10413039Y-20215889D02*
X10413039Y-20158746D01*
X10413039Y-20158746D02*
X10422563Y-20139698D01*
X10422563Y-20139698D02*
X10432087Y-20130174D01*
X10432087Y-20130174D02*
X10451134Y-20120650D01*
X10451134Y-20120650D02*
X10479706Y-20120650D01*
X10479706Y-20120650D02*
X10498753Y-20130174D01*
X10498753Y-20130174D02*
X10508277Y-20139698D01*
X10508277Y-20139698D02*
X10517801Y-20158746D01*
X10517801Y-20158746D02*
X10517801Y-20215889D01*
X10517801Y-20215889D02*
X10508277Y-20234936D01*
X10508277Y-20234936D02*
X10498753Y-20244460D01*
X10498753Y-20244460D02*
X10479706Y-20253984D01*
X10479706Y-20253984D02*
X10451134Y-20253984D01*
X10632087Y-20253984D02*
X10613039Y-20244460D01*
X10613039Y-20244460D02*
X10603515Y-20225412D01*
X10603515Y-20225412D02*
X10603515Y-20053984D01*
X10784468Y-20244460D02*
X10765420Y-20253984D01*
X10765420Y-20253984D02*
X10727325Y-20253984D01*
X10727325Y-20253984D02*
X10708277Y-20244460D01*
X10708277Y-20244460D02*
X10698753Y-20225412D01*
X10698753Y-20225412D02*
X10698753Y-20149222D01*
X10698753Y-20149222D02*
X10708277Y-20130174D01*
X10708277Y-20130174D02*
X10727325Y-20120650D01*
X10727325Y-20120650D02*
X10765420Y-20120650D01*
X10765420Y-20120650D02*
X10784468Y-20130174D01*
X10784468Y-20130174D02*
X10793992Y-20149222D01*
X10793992Y-20149222D02*
X10793992Y-20168270D01*
X10793992Y-20168270D02*
X10698753Y-20187317D01*
X10870182Y-20244460D02*
X10889230Y-20253984D01*
X10889230Y-20253984D02*
X10927325Y-20253984D01*
X10927325Y-20253984D02*
X10946373Y-20244460D01*
X10946373Y-20244460D02*
X10955896Y-20225412D01*
X10955896Y-20225412D02*
X10955896Y-20215889D01*
X10955896Y-20215889D02*
X10946373Y-20196841D01*
X10946373Y-20196841D02*
X10927325Y-20187317D01*
X10927325Y-20187317D02*
X10898753Y-20187317D01*
X10898753Y-20187317D02*
X10879706Y-20177793D01*
X10879706Y-20177793D02*
X10870182Y-20158746D01*
X10870182Y-20158746D02*
X10870182Y-20149222D01*
X10870182Y-20149222D02*
X10879706Y-20130174D01*
X10879706Y-20130174D02*
X10898753Y-20120650D01*
X10898753Y-20120650D02*
X10927325Y-20120650D01*
X10927325Y-20120650D02*
X10946373Y-20130174D01*
X11022563Y-20330174D02*
X11032087Y-20320650D01*
X11032087Y-20320650D02*
X11051134Y-20292079D01*
X11051134Y-20292079D02*
X11060658Y-20273031D01*
X11060658Y-20273031D02*
X11070182Y-20244460D01*
X11070182Y-20244460D02*
X11079706Y-20196841D01*
X11079706Y-20196841D02*
X11079706Y-20158746D01*
X11079706Y-20158746D02*
X11070182Y-20111127D01*
X11070182Y-20111127D02*
X11060658Y-20082555D01*
X11060658Y-20082555D02*
X11051134Y-20063508D01*
X11051134Y-20063508D02*
X11032087Y-20034936D01*
X11032087Y-20034936D02*
X11022563Y-20025412D01*
D14*
X6117500Y-20361500D02*
X6247500Y-20491500D01*
X6247500Y-20361500D02*
X6117500Y-20491500D01*
X6182500Y-20361500D02*
X6182500Y-20491500D01*
X6117500Y-20426500D02*
X6247500Y-20426500D01*
D11*
X6613039Y-20517984D02*
X6498753Y-20517984D01*
X6555896Y-20517984D02*
X6555896Y-20317984D01*
X6555896Y-20317984D02*
X6536848Y-20346555D01*
X6536848Y-20346555D02*
X6517801Y-20365603D01*
X6517801Y-20365603D02*
X6498753Y-20375127D01*
X6698753Y-20498936D02*
X6708277Y-20508460D01*
X6708277Y-20508460D02*
X6698753Y-20517984D01*
X6698753Y-20517984D02*
X6689229Y-20508460D01*
X6689229Y-20508460D02*
X6698753Y-20498936D01*
X6698753Y-20498936D02*
X6698753Y-20517984D01*
X6774943Y-20317984D02*
X6898753Y-20317984D01*
X6898753Y-20317984D02*
X6832086Y-20394174D01*
X6832086Y-20394174D02*
X6860658Y-20394174D01*
X6860658Y-20394174D02*
X6879705Y-20403698D01*
X6879705Y-20403698D02*
X6889229Y-20413222D01*
X6889229Y-20413222D02*
X6898753Y-20432270D01*
X6898753Y-20432270D02*
X6898753Y-20479889D01*
X6898753Y-20479889D02*
X6889229Y-20498936D01*
X6889229Y-20498936D02*
X6879705Y-20508460D01*
X6879705Y-20508460D02*
X6860658Y-20517984D01*
X6860658Y-20517984D02*
X6803515Y-20517984D01*
X6803515Y-20517984D02*
X6784467Y-20508460D01*
X6784467Y-20508460D02*
X6774943Y-20498936D01*
X7022562Y-20317984D02*
X7041610Y-20317984D01*
X7041610Y-20317984D02*
X7060658Y-20327508D01*
X7060658Y-20327508D02*
X7070182Y-20337031D01*
X7070182Y-20337031D02*
X7079705Y-20356079D01*
X7079705Y-20356079D02*
X7089229Y-20394174D01*
X7089229Y-20394174D02*
X7089229Y-20441793D01*
X7089229Y-20441793D02*
X7079705Y-20479889D01*
X7079705Y-20479889D02*
X7070182Y-20498936D01*
X7070182Y-20498936D02*
X7060658Y-20508460D01*
X7060658Y-20508460D02*
X7041610Y-20517984D01*
X7041610Y-20517984D02*
X7022562Y-20517984D01*
X7022562Y-20517984D02*
X7003515Y-20508460D01*
X7003515Y-20508460D02*
X6993991Y-20498936D01*
X6993991Y-20498936D02*
X6984467Y-20479889D01*
X6984467Y-20479889D02*
X6974943Y-20441793D01*
X6974943Y-20441793D02*
X6974943Y-20394174D01*
X6974943Y-20394174D02*
X6984467Y-20356079D01*
X6984467Y-20356079D02*
X6993991Y-20337031D01*
X6993991Y-20337031D02*
X7003515Y-20327508D01*
X7003515Y-20327508D02*
X7022562Y-20317984D01*
X7213039Y-20317984D02*
X7232086Y-20317984D01*
X7232086Y-20317984D02*
X7251134Y-20327508D01*
X7251134Y-20327508D02*
X7260658Y-20337031D01*
X7260658Y-20337031D02*
X7270182Y-20356079D01*
X7270182Y-20356079D02*
X7279705Y-20394174D01*
X7279705Y-20394174D02*
X7279705Y-20441793D01*
X7279705Y-20441793D02*
X7270182Y-20479889D01*
X7270182Y-20479889D02*
X7260658Y-20498936D01*
X7260658Y-20498936D02*
X7251134Y-20508460D01*
X7251134Y-20508460D02*
X7232086Y-20517984D01*
X7232086Y-20517984D02*
X7213039Y-20517984D01*
X7213039Y-20517984D02*
X7193991Y-20508460D01*
X7193991Y-20508460D02*
X7184467Y-20498936D01*
X7184467Y-20498936D02*
X7174943Y-20479889D01*
X7174943Y-20479889D02*
X7165420Y-20441793D01*
X7165420Y-20441793D02*
X7165420Y-20394174D01*
X7165420Y-20394174D02*
X7174943Y-20356079D01*
X7174943Y-20356079D02*
X7184467Y-20337031D01*
X7184467Y-20337031D02*
X7193991Y-20327508D01*
X7193991Y-20327508D02*
X7213039Y-20317984D01*
X7365420Y-20517984D02*
X7365420Y-20384650D01*
X7365420Y-20403698D02*
X7374943Y-20394174D01*
X7374943Y-20394174D02*
X7393991Y-20384650D01*
X7393991Y-20384650D02*
X7422563Y-20384650D01*
X7422563Y-20384650D02*
X7441610Y-20394174D01*
X7441610Y-20394174D02*
X7451134Y-20413222D01*
X7451134Y-20413222D02*
X7451134Y-20517984D01*
X7451134Y-20413222D02*
X7460658Y-20394174D01*
X7460658Y-20394174D02*
X7479705Y-20384650D01*
X7479705Y-20384650D02*
X7508277Y-20384650D01*
X7508277Y-20384650D02*
X7527324Y-20394174D01*
X7527324Y-20394174D02*
X7536848Y-20413222D01*
X7536848Y-20413222D02*
X7536848Y-20517984D01*
X7632086Y-20517984D02*
X7632086Y-20384650D01*
X7632086Y-20403698D02*
X7641610Y-20394174D01*
X7641610Y-20394174D02*
X7660658Y-20384650D01*
X7660658Y-20384650D02*
X7689229Y-20384650D01*
X7689229Y-20384650D02*
X7708277Y-20394174D01*
X7708277Y-20394174D02*
X7717801Y-20413222D01*
X7717801Y-20413222D02*
X7717801Y-20517984D01*
X7717801Y-20413222D02*
X7727324Y-20394174D01*
X7727324Y-20394174D02*
X7746372Y-20384650D01*
X7746372Y-20384650D02*
X7774943Y-20384650D01*
X7774943Y-20384650D02*
X7793991Y-20394174D01*
X7793991Y-20394174D02*
X7803515Y-20413222D01*
X7803515Y-20413222D02*
X7803515Y-20517984D01*
X8193991Y-20308460D02*
X8022563Y-20565603D01*
X8451134Y-20317984D02*
X8470182Y-20317984D01*
X8470182Y-20317984D02*
X8489229Y-20327508D01*
X8489229Y-20327508D02*
X8498753Y-20337031D01*
X8498753Y-20337031D02*
X8508277Y-20356079D01*
X8508277Y-20356079D02*
X8517801Y-20394174D01*
X8517801Y-20394174D02*
X8517801Y-20441793D01*
X8517801Y-20441793D02*
X8508277Y-20479889D01*
X8508277Y-20479889D02*
X8498753Y-20498936D01*
X8498753Y-20498936D02*
X8489229Y-20508460D01*
X8489229Y-20508460D02*
X8470182Y-20517984D01*
X8470182Y-20517984D02*
X8451134Y-20517984D01*
X8451134Y-20517984D02*
X8432087Y-20508460D01*
X8432087Y-20508460D02*
X8422563Y-20498936D01*
X8422563Y-20498936D02*
X8413039Y-20479889D01*
X8413039Y-20479889D02*
X8403515Y-20441793D01*
X8403515Y-20441793D02*
X8403515Y-20394174D01*
X8403515Y-20394174D02*
X8413039Y-20356079D01*
X8413039Y-20356079D02*
X8422563Y-20337031D01*
X8422563Y-20337031D02*
X8432087Y-20327508D01*
X8432087Y-20327508D02*
X8451134Y-20317984D01*
X8603515Y-20498936D02*
X8613039Y-20508460D01*
X8613039Y-20508460D02*
X8603515Y-20517984D01*
X8603515Y-20517984D02*
X8593991Y-20508460D01*
X8593991Y-20508460D02*
X8603515Y-20498936D01*
X8603515Y-20498936D02*
X8603515Y-20517984D01*
X8736848Y-20317984D02*
X8755896Y-20317984D01*
X8755896Y-20317984D02*
X8774944Y-20327508D01*
X8774944Y-20327508D02*
X8784468Y-20337031D01*
X8784468Y-20337031D02*
X8793991Y-20356079D01*
X8793991Y-20356079D02*
X8803515Y-20394174D01*
X8803515Y-20394174D02*
X8803515Y-20441793D01*
X8803515Y-20441793D02*
X8793991Y-20479889D01*
X8793991Y-20479889D02*
X8784468Y-20498936D01*
X8784468Y-20498936D02*
X8774944Y-20508460D01*
X8774944Y-20508460D02*
X8755896Y-20517984D01*
X8755896Y-20517984D02*
X8736848Y-20517984D01*
X8736848Y-20517984D02*
X8717801Y-20508460D01*
X8717801Y-20508460D02*
X8708277Y-20498936D01*
X8708277Y-20498936D02*
X8698753Y-20479889D01*
X8698753Y-20479889D02*
X8689229Y-20441793D01*
X8689229Y-20441793D02*
X8689229Y-20394174D01*
X8689229Y-20394174D02*
X8698753Y-20356079D01*
X8698753Y-20356079D02*
X8708277Y-20337031D01*
X8708277Y-20337031D02*
X8717801Y-20327508D01*
X8717801Y-20327508D02*
X8736848Y-20317984D01*
X8984468Y-20317984D02*
X8889229Y-20317984D01*
X8889229Y-20317984D02*
X8879706Y-20413222D01*
X8879706Y-20413222D02*
X8889229Y-20403698D01*
X8889229Y-20403698D02*
X8908277Y-20394174D01*
X8908277Y-20394174D02*
X8955896Y-20394174D01*
X8955896Y-20394174D02*
X8974944Y-20403698D01*
X8974944Y-20403698D02*
X8984468Y-20413222D01*
X8984468Y-20413222D02*
X8993991Y-20432270D01*
X8993991Y-20432270D02*
X8993991Y-20479889D01*
X8993991Y-20479889D02*
X8984468Y-20498936D01*
X8984468Y-20498936D02*
X8974944Y-20508460D01*
X8974944Y-20508460D02*
X8955896Y-20517984D01*
X8955896Y-20517984D02*
X8908277Y-20517984D01*
X8908277Y-20517984D02*
X8889229Y-20508460D01*
X8889229Y-20508460D02*
X8879706Y-20498936D01*
X9184468Y-20517984D02*
X9070182Y-20517984D01*
X9127325Y-20517984D02*
X9127325Y-20317984D01*
X9127325Y-20317984D02*
X9108277Y-20346555D01*
X9108277Y-20346555D02*
X9089229Y-20365603D01*
X9089229Y-20365603D02*
X9070182Y-20375127D01*
X9260658Y-20337031D02*
X9270182Y-20327508D01*
X9270182Y-20327508D02*
X9289229Y-20317984D01*
X9289229Y-20317984D02*
X9336849Y-20317984D01*
X9336849Y-20317984D02*
X9355896Y-20327508D01*
X9355896Y-20327508D02*
X9365420Y-20337031D01*
X9365420Y-20337031D02*
X9374944Y-20356079D01*
X9374944Y-20356079D02*
X9374944Y-20375127D01*
X9374944Y-20375127D02*
X9365420Y-20403698D01*
X9365420Y-20403698D02*
X9251134Y-20517984D01*
X9251134Y-20517984D02*
X9374944Y-20517984D01*
X9451134Y-20317984D02*
X9451134Y-20356079D01*
X9527325Y-20317984D02*
X9527325Y-20356079D01*
X9822563Y-20594174D02*
X9813039Y-20584650D01*
X9813039Y-20584650D02*
X9793991Y-20556079D01*
X9793991Y-20556079D02*
X9784468Y-20537031D01*
X9784468Y-20537031D02*
X9774944Y-20508460D01*
X9774944Y-20508460D02*
X9765420Y-20460841D01*
X9765420Y-20460841D02*
X9765420Y-20422746D01*
X9765420Y-20422746D02*
X9774944Y-20375127D01*
X9774944Y-20375127D02*
X9784468Y-20346555D01*
X9784468Y-20346555D02*
X9793991Y-20327508D01*
X9793991Y-20327508D02*
X9813039Y-20298936D01*
X9813039Y-20298936D02*
X9822563Y-20289412D01*
X9879706Y-20317984D02*
X10003515Y-20317984D01*
X10003515Y-20317984D02*
X9936849Y-20394174D01*
X9936849Y-20394174D02*
X9965420Y-20394174D01*
X9965420Y-20394174D02*
X9984468Y-20403698D01*
X9984468Y-20403698D02*
X9993991Y-20413222D01*
X9993991Y-20413222D02*
X10003515Y-20432270D01*
X10003515Y-20432270D02*
X10003515Y-20479889D01*
X10003515Y-20479889D02*
X9993991Y-20498936D01*
X9993991Y-20498936D02*
X9984468Y-20508460D01*
X9984468Y-20508460D02*
X9965420Y-20517984D01*
X9965420Y-20517984D02*
X9908277Y-20517984D01*
X9908277Y-20517984D02*
X9889230Y-20508460D01*
X9889230Y-20508460D02*
X9879706Y-20498936D01*
X10241611Y-20517984D02*
X10241611Y-20317984D01*
X10327325Y-20517984D02*
X10327325Y-20413222D01*
X10327325Y-20413222D02*
X10317801Y-20394174D01*
X10317801Y-20394174D02*
X10298753Y-20384650D01*
X10298753Y-20384650D02*
X10270182Y-20384650D01*
X10270182Y-20384650D02*
X10251134Y-20394174D01*
X10251134Y-20394174D02*
X10241611Y-20403698D01*
X10451134Y-20517984D02*
X10432087Y-20508460D01*
X10432087Y-20508460D02*
X10422563Y-20498936D01*
X10422563Y-20498936D02*
X10413039Y-20479889D01*
X10413039Y-20479889D02*
X10413039Y-20422746D01*
X10413039Y-20422746D02*
X10422563Y-20403698D01*
X10422563Y-20403698D02*
X10432087Y-20394174D01*
X10432087Y-20394174D02*
X10451134Y-20384650D01*
X10451134Y-20384650D02*
X10479706Y-20384650D01*
X10479706Y-20384650D02*
X10498753Y-20394174D01*
X10498753Y-20394174D02*
X10508277Y-20403698D01*
X10508277Y-20403698D02*
X10517801Y-20422746D01*
X10517801Y-20422746D02*
X10517801Y-20479889D01*
X10517801Y-20479889D02*
X10508277Y-20498936D01*
X10508277Y-20498936D02*
X10498753Y-20508460D01*
X10498753Y-20508460D02*
X10479706Y-20517984D01*
X10479706Y-20517984D02*
X10451134Y-20517984D01*
X10632087Y-20517984D02*
X10613039Y-20508460D01*
X10613039Y-20508460D02*
X10603515Y-20489412D01*
X10603515Y-20489412D02*
X10603515Y-20317984D01*
X10784468Y-20508460D02*
X10765420Y-20517984D01*
X10765420Y-20517984D02*
X10727325Y-20517984D01*
X10727325Y-20517984D02*
X10708277Y-20508460D01*
X10708277Y-20508460D02*
X10698753Y-20489412D01*
X10698753Y-20489412D02*
X10698753Y-20413222D01*
X10698753Y-20413222D02*
X10708277Y-20394174D01*
X10708277Y-20394174D02*
X10727325Y-20384650D01*
X10727325Y-20384650D02*
X10765420Y-20384650D01*
X10765420Y-20384650D02*
X10784468Y-20394174D01*
X10784468Y-20394174D02*
X10793992Y-20413222D01*
X10793992Y-20413222D02*
X10793992Y-20432270D01*
X10793992Y-20432270D02*
X10698753Y-20451317D01*
X10870182Y-20508460D02*
X10889230Y-20517984D01*
X10889230Y-20517984D02*
X10927325Y-20517984D01*
X10927325Y-20517984D02*
X10946373Y-20508460D01*
X10946373Y-20508460D02*
X10955896Y-20489412D01*
X10955896Y-20489412D02*
X10955896Y-20479889D01*
X10955896Y-20479889D02*
X10946373Y-20460841D01*
X10946373Y-20460841D02*
X10927325Y-20451317D01*
X10927325Y-20451317D02*
X10898753Y-20451317D01*
X10898753Y-20451317D02*
X10879706Y-20441793D01*
X10879706Y-20441793D02*
X10870182Y-20422746D01*
X10870182Y-20422746D02*
X10870182Y-20413222D01*
X10870182Y-20413222D02*
X10879706Y-20394174D01*
X10879706Y-20394174D02*
X10898753Y-20384650D01*
X10898753Y-20384650D02*
X10927325Y-20384650D01*
X10927325Y-20384650D02*
X10946373Y-20394174D01*
X11022563Y-20594174D02*
X11032087Y-20584650D01*
X11032087Y-20584650D02*
X11051134Y-20556079D01*
X11051134Y-20556079D02*
X11060658Y-20537031D01*
X11060658Y-20537031D02*
X11070182Y-20508460D01*
X11070182Y-20508460D02*
X11079706Y-20460841D01*
X11079706Y-20460841D02*
X11079706Y-20422746D01*
X11079706Y-20422746D02*
X11070182Y-20375127D01*
X11070182Y-20375127D02*
X11060658Y-20346555D01*
X11060658Y-20346555D02*
X11051134Y-20327508D01*
X11051134Y-20327508D02*
X11032087Y-20298936D01*
X11032087Y-20298936D02*
X11022563Y-20289412D01*
D15*
X6072500Y-20603000D02*
X6247500Y-20778000D01*
X6247500Y-20603000D02*
X6072500Y-20778000D01*
X6221872Y-20752372D02*
X6221872Y-20628628D01*
X6098128Y-20628628D01*
X6098128Y-20752372D01*
X6221872Y-20752372D01*
D11*
X6613039Y-20781984D02*
X6498753Y-20781984D01*
X6555896Y-20781984D02*
X6555896Y-20581984D01*
X6555896Y-20581984D02*
X6536848Y-20610555D01*
X6536848Y-20610555D02*
X6517801Y-20629603D01*
X6517801Y-20629603D02*
X6498753Y-20639127D01*
X6698753Y-20762936D02*
X6708277Y-20772460D01*
X6708277Y-20772460D02*
X6698753Y-20781984D01*
X6698753Y-20781984D02*
X6689229Y-20772460D01*
X6689229Y-20772460D02*
X6698753Y-20762936D01*
X6698753Y-20762936D02*
X6698753Y-20781984D01*
X6774943Y-20581984D02*
X6908277Y-20581984D01*
X6908277Y-20581984D02*
X6822562Y-20781984D01*
X7079705Y-20581984D02*
X6984467Y-20581984D01*
X6984467Y-20581984D02*
X6974943Y-20677222D01*
X6974943Y-20677222D02*
X6984467Y-20667698D01*
X6984467Y-20667698D02*
X7003515Y-20658174D01*
X7003515Y-20658174D02*
X7051134Y-20658174D01*
X7051134Y-20658174D02*
X7070182Y-20667698D01*
X7070182Y-20667698D02*
X7079705Y-20677222D01*
X7079705Y-20677222D02*
X7089229Y-20696270D01*
X7089229Y-20696270D02*
X7089229Y-20743889D01*
X7089229Y-20743889D02*
X7079705Y-20762936D01*
X7079705Y-20762936D02*
X7070182Y-20772460D01*
X7070182Y-20772460D02*
X7051134Y-20781984D01*
X7051134Y-20781984D02*
X7003515Y-20781984D01*
X7003515Y-20781984D02*
X6984467Y-20772460D01*
X6984467Y-20772460D02*
X6974943Y-20762936D01*
X7213039Y-20581984D02*
X7232086Y-20581984D01*
X7232086Y-20581984D02*
X7251134Y-20591508D01*
X7251134Y-20591508D02*
X7260658Y-20601031D01*
X7260658Y-20601031D02*
X7270182Y-20620079D01*
X7270182Y-20620079D02*
X7279705Y-20658174D01*
X7279705Y-20658174D02*
X7279705Y-20705793D01*
X7279705Y-20705793D02*
X7270182Y-20743889D01*
X7270182Y-20743889D02*
X7260658Y-20762936D01*
X7260658Y-20762936D02*
X7251134Y-20772460D01*
X7251134Y-20772460D02*
X7232086Y-20781984D01*
X7232086Y-20781984D02*
X7213039Y-20781984D01*
X7213039Y-20781984D02*
X7193991Y-20772460D01*
X7193991Y-20772460D02*
X7184467Y-20762936D01*
X7184467Y-20762936D02*
X7174943Y-20743889D01*
X7174943Y-20743889D02*
X7165420Y-20705793D01*
X7165420Y-20705793D02*
X7165420Y-20658174D01*
X7165420Y-20658174D02*
X7174943Y-20620079D01*
X7174943Y-20620079D02*
X7184467Y-20601031D01*
X7184467Y-20601031D02*
X7193991Y-20591508D01*
X7193991Y-20591508D02*
X7213039Y-20581984D01*
X7365420Y-20781984D02*
X7365420Y-20648650D01*
X7365420Y-20667698D02*
X7374943Y-20658174D01*
X7374943Y-20658174D02*
X7393991Y-20648650D01*
X7393991Y-20648650D02*
X7422563Y-20648650D01*
X7422563Y-20648650D02*
X7441610Y-20658174D01*
X7441610Y-20658174D02*
X7451134Y-20677222D01*
X7451134Y-20677222D02*
X7451134Y-20781984D01*
X7451134Y-20677222D02*
X7460658Y-20658174D01*
X7460658Y-20658174D02*
X7479705Y-20648650D01*
X7479705Y-20648650D02*
X7508277Y-20648650D01*
X7508277Y-20648650D02*
X7527324Y-20658174D01*
X7527324Y-20658174D02*
X7536848Y-20677222D01*
X7536848Y-20677222D02*
X7536848Y-20781984D01*
X7632086Y-20781984D02*
X7632086Y-20648650D01*
X7632086Y-20667698D02*
X7641610Y-20658174D01*
X7641610Y-20658174D02*
X7660658Y-20648650D01*
X7660658Y-20648650D02*
X7689229Y-20648650D01*
X7689229Y-20648650D02*
X7708277Y-20658174D01*
X7708277Y-20658174D02*
X7717801Y-20677222D01*
X7717801Y-20677222D02*
X7717801Y-20781984D01*
X7717801Y-20677222D02*
X7727324Y-20658174D01*
X7727324Y-20658174D02*
X7746372Y-20648650D01*
X7746372Y-20648650D02*
X7774943Y-20648650D01*
X7774943Y-20648650D02*
X7793991Y-20658174D01*
X7793991Y-20658174D02*
X7803515Y-20677222D01*
X7803515Y-20677222D02*
X7803515Y-20781984D01*
X8193991Y-20572460D02*
X8022563Y-20829603D01*
X8451134Y-20581984D02*
X8470182Y-20581984D01*
X8470182Y-20581984D02*
X8489229Y-20591508D01*
X8489229Y-20591508D02*
X8498753Y-20601031D01*
X8498753Y-20601031D02*
X8508277Y-20620079D01*
X8508277Y-20620079D02*
X8517801Y-20658174D01*
X8517801Y-20658174D02*
X8517801Y-20705793D01*
X8517801Y-20705793D02*
X8508277Y-20743889D01*
X8508277Y-20743889D02*
X8498753Y-20762936D01*
X8498753Y-20762936D02*
X8489229Y-20772460D01*
X8489229Y-20772460D02*
X8470182Y-20781984D01*
X8470182Y-20781984D02*
X8451134Y-20781984D01*
X8451134Y-20781984D02*
X8432087Y-20772460D01*
X8432087Y-20772460D02*
X8422563Y-20762936D01*
X8422563Y-20762936D02*
X8413039Y-20743889D01*
X8413039Y-20743889D02*
X8403515Y-20705793D01*
X8403515Y-20705793D02*
X8403515Y-20658174D01*
X8403515Y-20658174D02*
X8413039Y-20620079D01*
X8413039Y-20620079D02*
X8422563Y-20601031D01*
X8422563Y-20601031D02*
X8432087Y-20591508D01*
X8432087Y-20591508D02*
X8451134Y-20581984D01*
X8603515Y-20762936D02*
X8613039Y-20772460D01*
X8613039Y-20772460D02*
X8603515Y-20781984D01*
X8603515Y-20781984D02*
X8593991Y-20772460D01*
X8593991Y-20772460D02*
X8603515Y-20762936D01*
X8603515Y-20762936D02*
X8603515Y-20781984D01*
X8736848Y-20581984D02*
X8755896Y-20581984D01*
X8755896Y-20581984D02*
X8774944Y-20591508D01*
X8774944Y-20591508D02*
X8784468Y-20601031D01*
X8784468Y-20601031D02*
X8793991Y-20620079D01*
X8793991Y-20620079D02*
X8803515Y-20658174D01*
X8803515Y-20658174D02*
X8803515Y-20705793D01*
X8803515Y-20705793D02*
X8793991Y-20743889D01*
X8793991Y-20743889D02*
X8784468Y-20762936D01*
X8784468Y-20762936D02*
X8774944Y-20772460D01*
X8774944Y-20772460D02*
X8755896Y-20781984D01*
X8755896Y-20781984D02*
X8736848Y-20781984D01*
X8736848Y-20781984D02*
X8717801Y-20772460D01*
X8717801Y-20772460D02*
X8708277Y-20762936D01*
X8708277Y-20762936D02*
X8698753Y-20743889D01*
X8698753Y-20743889D02*
X8689229Y-20705793D01*
X8689229Y-20705793D02*
X8689229Y-20658174D01*
X8689229Y-20658174D02*
X8698753Y-20620079D01*
X8698753Y-20620079D02*
X8708277Y-20601031D01*
X8708277Y-20601031D02*
X8717801Y-20591508D01*
X8717801Y-20591508D02*
X8736848Y-20581984D01*
X8974944Y-20581984D02*
X8936848Y-20581984D01*
X8936848Y-20581984D02*
X8917801Y-20591508D01*
X8917801Y-20591508D02*
X8908277Y-20601031D01*
X8908277Y-20601031D02*
X8889229Y-20629603D01*
X8889229Y-20629603D02*
X8879706Y-20667698D01*
X8879706Y-20667698D02*
X8879706Y-20743889D01*
X8879706Y-20743889D02*
X8889229Y-20762936D01*
X8889229Y-20762936D02*
X8898753Y-20772460D01*
X8898753Y-20772460D02*
X8917801Y-20781984D01*
X8917801Y-20781984D02*
X8955896Y-20781984D01*
X8955896Y-20781984D02*
X8974944Y-20772460D01*
X8974944Y-20772460D02*
X8984468Y-20762936D01*
X8984468Y-20762936D02*
X8993991Y-20743889D01*
X8993991Y-20743889D02*
X8993991Y-20696270D01*
X8993991Y-20696270D02*
X8984468Y-20677222D01*
X8984468Y-20677222D02*
X8974944Y-20667698D01*
X8974944Y-20667698D02*
X8955896Y-20658174D01*
X8955896Y-20658174D02*
X8917801Y-20658174D01*
X8917801Y-20658174D02*
X8898753Y-20667698D01*
X8898753Y-20667698D02*
X8889229Y-20677222D01*
X8889229Y-20677222D02*
X8879706Y-20696270D01*
X9108277Y-20667698D02*
X9089229Y-20658174D01*
X9089229Y-20658174D02*
X9079706Y-20648650D01*
X9079706Y-20648650D02*
X9070182Y-20629603D01*
X9070182Y-20629603D02*
X9070182Y-20620079D01*
X9070182Y-20620079D02*
X9079706Y-20601031D01*
X9079706Y-20601031D02*
X9089229Y-20591508D01*
X9089229Y-20591508D02*
X9108277Y-20581984D01*
X9108277Y-20581984D02*
X9146372Y-20581984D01*
X9146372Y-20581984D02*
X9165420Y-20591508D01*
X9165420Y-20591508D02*
X9174944Y-20601031D01*
X9174944Y-20601031D02*
X9184468Y-20620079D01*
X9184468Y-20620079D02*
X9184468Y-20629603D01*
X9184468Y-20629603D02*
X9174944Y-20648650D01*
X9174944Y-20648650D02*
X9165420Y-20658174D01*
X9165420Y-20658174D02*
X9146372Y-20667698D01*
X9146372Y-20667698D02*
X9108277Y-20667698D01*
X9108277Y-20667698D02*
X9089229Y-20677222D01*
X9089229Y-20677222D02*
X9079706Y-20686746D01*
X9079706Y-20686746D02*
X9070182Y-20705793D01*
X9070182Y-20705793D02*
X9070182Y-20743889D01*
X9070182Y-20743889D02*
X9079706Y-20762936D01*
X9079706Y-20762936D02*
X9089229Y-20772460D01*
X9089229Y-20772460D02*
X9108277Y-20781984D01*
X9108277Y-20781984D02*
X9146372Y-20781984D01*
X9146372Y-20781984D02*
X9165420Y-20772460D01*
X9165420Y-20772460D02*
X9174944Y-20762936D01*
X9174944Y-20762936D02*
X9184468Y-20743889D01*
X9184468Y-20743889D02*
X9184468Y-20705793D01*
X9184468Y-20705793D02*
X9174944Y-20686746D01*
X9174944Y-20686746D02*
X9165420Y-20677222D01*
X9165420Y-20677222D02*
X9146372Y-20667698D01*
X9279706Y-20781984D02*
X9317801Y-20781984D01*
X9317801Y-20781984D02*
X9336849Y-20772460D01*
X9336849Y-20772460D02*
X9346372Y-20762936D01*
X9346372Y-20762936D02*
X9365420Y-20734365D01*
X9365420Y-20734365D02*
X9374944Y-20696270D01*
X9374944Y-20696270D02*
X9374944Y-20620079D01*
X9374944Y-20620079D02*
X9365420Y-20601031D01*
X9365420Y-20601031D02*
X9355896Y-20591508D01*
X9355896Y-20591508D02*
X9336849Y-20581984D01*
X9336849Y-20581984D02*
X9298753Y-20581984D01*
X9298753Y-20581984D02*
X9279706Y-20591508D01*
X9279706Y-20591508D02*
X9270182Y-20601031D01*
X9270182Y-20601031D02*
X9260658Y-20620079D01*
X9260658Y-20620079D02*
X9260658Y-20667698D01*
X9260658Y-20667698D02*
X9270182Y-20686746D01*
X9270182Y-20686746D02*
X9279706Y-20696270D01*
X9279706Y-20696270D02*
X9298753Y-20705793D01*
X9298753Y-20705793D02*
X9336849Y-20705793D01*
X9336849Y-20705793D02*
X9355896Y-20696270D01*
X9355896Y-20696270D02*
X9365420Y-20686746D01*
X9365420Y-20686746D02*
X9374944Y-20667698D01*
X9451134Y-20581984D02*
X9451134Y-20620079D01*
X9527325Y-20581984D02*
X9527325Y-20620079D01*
X9822563Y-20858174D02*
X9813039Y-20848650D01*
X9813039Y-20848650D02*
X9793991Y-20820079D01*
X9793991Y-20820079D02*
X9784468Y-20801031D01*
X9784468Y-20801031D02*
X9774944Y-20772460D01*
X9774944Y-20772460D02*
X9765420Y-20724841D01*
X9765420Y-20724841D02*
X9765420Y-20686746D01*
X9765420Y-20686746D02*
X9774944Y-20639127D01*
X9774944Y-20639127D02*
X9784468Y-20610555D01*
X9784468Y-20610555D02*
X9793991Y-20591508D01*
X9793991Y-20591508D02*
X9813039Y-20562936D01*
X9813039Y-20562936D02*
X9822563Y-20553412D01*
X9984468Y-20648650D02*
X9984468Y-20781984D01*
X9936849Y-20572460D02*
X9889230Y-20715317D01*
X9889230Y-20715317D02*
X10013039Y-20715317D01*
X10241611Y-20781984D02*
X10241611Y-20581984D01*
X10327325Y-20781984D02*
X10327325Y-20677222D01*
X10327325Y-20677222D02*
X10317801Y-20658174D01*
X10317801Y-20658174D02*
X10298753Y-20648650D01*
X10298753Y-20648650D02*
X10270182Y-20648650D01*
X10270182Y-20648650D02*
X10251134Y-20658174D01*
X10251134Y-20658174D02*
X10241611Y-20667698D01*
X10451134Y-20781984D02*
X10432087Y-20772460D01*
X10432087Y-20772460D02*
X10422563Y-20762936D01*
X10422563Y-20762936D02*
X10413039Y-20743889D01*
X10413039Y-20743889D02*
X10413039Y-20686746D01*
X10413039Y-20686746D02*
X10422563Y-20667698D01*
X10422563Y-20667698D02*
X10432087Y-20658174D01*
X10432087Y-20658174D02*
X10451134Y-20648650D01*
X10451134Y-20648650D02*
X10479706Y-20648650D01*
X10479706Y-20648650D02*
X10498753Y-20658174D01*
X10498753Y-20658174D02*
X10508277Y-20667698D01*
X10508277Y-20667698D02*
X10517801Y-20686746D01*
X10517801Y-20686746D02*
X10517801Y-20743889D01*
X10517801Y-20743889D02*
X10508277Y-20762936D01*
X10508277Y-20762936D02*
X10498753Y-20772460D01*
X10498753Y-20772460D02*
X10479706Y-20781984D01*
X10479706Y-20781984D02*
X10451134Y-20781984D01*
X10632087Y-20781984D02*
X10613039Y-20772460D01*
X10613039Y-20772460D02*
X10603515Y-20753412D01*
X10603515Y-20753412D02*
X10603515Y-20581984D01*
X10784468Y-20772460D02*
X10765420Y-20781984D01*
X10765420Y-20781984D02*
X10727325Y-20781984D01*
X10727325Y-20781984D02*
X10708277Y-20772460D01*
X10708277Y-20772460D02*
X10698753Y-20753412D01*
X10698753Y-20753412D02*
X10698753Y-20677222D01*
X10698753Y-20677222D02*
X10708277Y-20658174D01*
X10708277Y-20658174D02*
X10727325Y-20648650D01*
X10727325Y-20648650D02*
X10765420Y-20648650D01*
X10765420Y-20648650D02*
X10784468Y-20658174D01*
X10784468Y-20658174D02*
X10793992Y-20677222D01*
X10793992Y-20677222D02*
X10793992Y-20696270D01*
X10793992Y-20696270D02*
X10698753Y-20715317D01*
X10870182Y-20772460D02*
X10889230Y-20781984D01*
X10889230Y-20781984D02*
X10927325Y-20781984D01*
X10927325Y-20781984D02*
X10946373Y-20772460D01*
X10946373Y-20772460D02*
X10955896Y-20753412D01*
X10955896Y-20753412D02*
X10955896Y-20743889D01*
X10955896Y-20743889D02*
X10946373Y-20724841D01*
X10946373Y-20724841D02*
X10927325Y-20715317D01*
X10927325Y-20715317D02*
X10898753Y-20715317D01*
X10898753Y-20715317D02*
X10879706Y-20705793D01*
X10879706Y-20705793D02*
X10870182Y-20686746D01*
X10870182Y-20686746D02*
X10870182Y-20677222D01*
X10870182Y-20677222D02*
X10879706Y-20658174D01*
X10879706Y-20658174D02*
X10898753Y-20648650D01*
X10898753Y-20648650D02*
X10927325Y-20648650D01*
X10927325Y-20648650D02*
X10946373Y-20658174D01*
X11022563Y-20858174D02*
X11032087Y-20848650D01*
X11032087Y-20848650D02*
X11051134Y-20820079D01*
X11051134Y-20820079D02*
X11060658Y-20801031D01*
X11060658Y-20801031D02*
X11070182Y-20772460D01*
X11070182Y-20772460D02*
X11079706Y-20724841D01*
X11079706Y-20724841D02*
X11079706Y-20686746D01*
X11079706Y-20686746D02*
X11070182Y-20639127D01*
X11070182Y-20639127D02*
X11060658Y-20610555D01*
X11060658Y-20610555D02*
X11051134Y-20591508D01*
X11051134Y-20591508D02*
X11032087Y-20562936D01*
X11032087Y-20562936D02*
X11022563Y-20553412D01*
M02*
