M48
; DRILL file {KiCad 8.0.4} date 2024-12-01T21:10:43+0100
; FORMAT={-:-/ absolute / inch / decimal}
; #@! TF.CreationDate,2024-12-01T21:10:43+01:00
; #@! TF.GenerationSoftware,Kicad,Pcbnew,8.0.4
; #@! TF.FileFunction,Plated,1,2,PTH
FMAT,2
INCH
; #@! TA.AperFunction,Plated,PTH,ViaDrill
T1C0.0157
; #@! TA.AperFunction,Plated,PTH,ComponentDrill
T2C0.0197
; #@! TA.AperFunction,Plated,PTH,ComponentDrill
T3C0.0276
; #@! TA.AperFunction,Plated,PTH,ComponentDrill
T4C0.0315
; #@! TA.AperFunction,Plated,PTH,ComponentDrill
T5C0.0354
; #@! TA.AperFunction,Plated,PTH,ComponentDrill
T6C0.0402
; #@! TA.AperFunction,Plated,PTH,ComponentDrill
T7C0.0512
; #@! TA.AperFunction,Plated,PTH,ComponentDrill
T8C0.0689
%
G90
G05
T1
X2.7342Y-1.8105
X3.4727Y-1.9133
X3.4824Y-1.8004
X3.6291Y-2.9181
X3.6291Y-4.7617
X3.781Y-5.0724
X3.8555Y-2.0123
X3.9113Y-5.5468
X3.9537Y-3.0411
X4.0017Y-0.8646
X4.4106Y-2.2765
X4.4255Y-3.8298
X4.5669Y-4.1286
X4.5928Y-2.1212
X4.7424Y-5.1276
X4.8751Y-2.5946
X4.9005Y-3.188
X4.9089Y-3.8845
X5.0751Y-4.2957
X5.2003Y-5.376
X5.2983Y-4.8168
X5.3485Y-4.4511
X5.3551Y-2.4318
X5.9621Y-2.4318
X6.2618Y-3.0348
T2
X6.3386Y-4.2913
T3
X3.9614Y-5.2039
X3.9614Y-5.3614
X3.963Y-5.0465
X4.1614Y-5.2039
X4.1614Y-5.3614
X4.163Y-5.0465
X4.2094Y-1.8094
X4.2094Y-2.0094
X4.2323Y-3.0299
X4.2323Y-3.2299
X4.2717Y-2.5181
X4.2717Y-2.7181
X4.3094Y-3.3858
X4.3567Y-5.0366
X4.3567Y-5.2039
X4.4094Y-1.8094
X4.4094Y-2.0094
X4.4094Y-3.0299
X4.4094Y-3.2299
X4.5094Y-3.3858
X4.5457Y-4.626
X4.5472Y-2.5181
X4.5472Y-2.7181
X4.5472Y-4.8031
X4.5567Y-5.0366
X4.5567Y-5.2039
X4.5866Y-3.0299
X4.5866Y-3.2299
X4.6094Y-1.8094
X4.6094Y-2.0094
X4.7457Y-4.626
X4.7472Y-4.8031
X4.849Y-5.315
X5.049Y-5.315
X5.2543Y-1.6677
X5.2559Y-2.1228
X5.2559Y-2.3228
X5.2559Y-2.4197
X5.2559Y-2.6197
X5.4543Y-1.6677
X5.5346Y-6.6629
X5.5346Y-6.8041
X5.7346Y-6.6629
X5.7346Y-6.8041
X5.9252Y-4.7213
X5.9252Y-4.9213
X6.0561Y-1.2732
X6.0561Y-1.6669
X6.0561Y-2.0409
X6.0561Y-2.415
X6.0561Y-2.789
X6.0846Y-4.7213
X6.0846Y-4.9213
X6.2441Y-4.7213
X6.2441Y-4.9213
X6.2561Y-1.2732
X6.2561Y-1.6669
X6.2561Y-2.0409
X6.2561Y-2.415
X6.2561Y-2.789
T4
X2.7953Y-3.5453
X2.7953Y-3.6453
X2.7953Y-3.7453
X2.7953Y-3.8453
X2.7953Y-3.9453
X2.7953Y-4.0453
X2.7953Y-4.1453
X2.7953Y-4.2453
X2.7953Y-4.3453
X2.815Y-5.5677
X2.815Y-5.6677
X2.815Y-5.7677
X2.815Y-5.8677
X2.815Y-5.9677
X2.815Y-6.0677
X2.815Y-6.1677
X2.815Y-6.2677
X2.815Y-6.3677
X2.8248Y-1.0024
X2.8248Y-1.1024
X2.8248Y-1.2024
X2.8248Y-1.3024
X2.8248Y-1.4024
X2.8248Y-1.5024
X2.8248Y-1.6024
X2.8248Y-1.7024
X2.8248Y-2.0488
X2.8248Y-2.1488
X2.8248Y-2.2488
X2.8248Y-2.3488
X2.8248Y-2.4488
X2.8248Y-2.5488
X2.8248Y-2.6488
X2.8248Y-2.7488
X3.1248Y-1.0024
X3.1248Y-1.1024
X3.1248Y-1.2024
X3.1248Y-1.3024
X3.1248Y-1.4024
X3.1248Y-1.5024
X3.1248Y-1.6024
X3.1248Y-1.7024
X3.1248Y-2.0488
X3.1248Y-2.1488
X3.1248Y-2.2488
X3.1248Y-2.3488
X3.1248Y-2.4488
X3.1248Y-2.5488
X3.1248Y-2.6488
X3.1248Y-2.7488
X3.7402Y-1.0024
X3.7402Y-1.1024
X3.7402Y-1.2024
X3.7402Y-1.3024
X3.7402Y-1.4024
X3.7402Y-1.5024
X3.7402Y-1.6024
X3.7402Y-1.7024
X3.7402Y-2.0488
X3.7402Y-2.1488
X3.7402Y-2.2488
X3.7402Y-2.3488
X3.7402Y-2.4488
X3.7402Y-2.5488
X3.7402Y-2.6488
X3.7402Y-2.7488
X4.0236Y-4.515
X4.0236Y-4.815
X4.0307Y-3.6142
X4.0307Y-3.7142
X4.0307Y-3.8142
X4.0307Y-3.9142
X4.0307Y-4.0142
X4.0307Y-4.1142
X4.0307Y-4.2142
X4.0307Y-4.3142
X4.0307Y-5.6533
X4.0307Y-5.7533
X4.0307Y-5.8533
X4.0307Y-5.9533
X4.0307Y-6.0533
X4.0307Y-6.1533
X4.0307Y-6.2533
X4.0307Y-6.3533
X4.0402Y-1.0024
X4.0402Y-1.1024
X4.0402Y-1.2024
X4.0402Y-1.3024
X4.0402Y-1.4024
X4.0402Y-1.5024
X4.0402Y-1.6024
X4.0402Y-1.7024
X4.0402Y-2.0488
X4.0402Y-2.1488
X4.0402Y-2.2488
X4.0402Y-2.3488
X4.0402Y-2.4488
X4.0402Y-2.5488
X4.0402Y-2.6488
X4.0402Y-2.7488
X4.1236Y-4.515
X4.1236Y-4.815
X4.2236Y-4.515
X4.2236Y-4.815
X4.3236Y-4.515
X4.3236Y-4.815
X4.3307Y-3.6142
X4.3307Y-3.7142
X4.3307Y-3.8142
X4.3307Y-3.9142
X4.3307Y-4.0142
X4.3307Y-4.1142
X4.3307Y-4.2142
X4.3307Y-4.3142
X4.3307Y-5.6533
X4.3307Y-5.7533
X4.3307Y-5.8533
X4.3307Y-5.9533
X4.3307Y-6.0533
X4.3307Y-6.1533
X4.3307Y-6.2533
X4.3307Y-6.3533
X4.7591Y-2.1047
X4.7591Y-2.2047
X4.7591Y-2.3047
X4.7591Y-2.4047
X4.7591Y-2.5047
X4.7591Y-2.6047
X4.7591Y-2.7047
X4.7787Y-1.0677
X4.7787Y-1.1677
X4.7787Y-1.2677
X4.7787Y-1.3677
X4.7787Y-1.4677
X4.7787Y-1.5677
X4.7787Y-1.6677
X4.7984Y-5.4693
X4.7984Y-5.5693
X4.7984Y-5.6693
X4.7984Y-5.7693
X4.7984Y-5.8693
X4.7984Y-5.9693
X4.7984Y-6.0693
X4.7984Y-6.1693
X4.7984Y-6.2693
X4.7984Y-6.3693
X4.8506Y-5.1772
X5.0165Y-3.6173
X5.0165Y-3.9173
X5.0474Y-5.1772
X5.0591Y-2.1047
X5.0591Y-2.2047
X5.0591Y-2.3047
X5.0591Y-2.4047
X5.0591Y-2.5047
X5.0591Y-2.6047
X5.0591Y-2.7047
X5.0787Y-1.0677
X5.0787Y-1.1677
X5.0787Y-1.2677
X5.0787Y-1.3677
X5.0787Y-1.4677
X5.0787Y-1.5677
X5.0787Y-1.6677
X5.0984Y-5.4693
X5.0984Y-5.5693
X5.0984Y-5.6693
X5.0984Y-5.7693
X5.0984Y-5.8693
X5.0984Y-5.9693
X5.0984Y-6.0693
X5.0984Y-6.1693
X5.0984Y-6.2693
X5.0984Y-6.3693
X5.1165Y-3.6173
X5.1165Y-3.9173
X5.2165Y-3.6173
X5.2165Y-3.9173
X5.2559Y-4.6925
X5.2559Y-4.9925
X5.3165Y-3.6173
X5.3165Y-3.9173
X5.4213Y-4.6921
X5.4213Y-4.9921
X5.4803Y-5.7992
X5.4803Y-5.8992
X5.4803Y-5.9992
X5.4803Y-6.0992
X5.4803Y-6.1992
X5.4803Y-6.2992
X5.4803Y-6.3992
X5.4803Y-6.4992
X5.5213Y-4.6921
X5.5213Y-4.9921
X5.5362Y-6.9631
X5.6213Y-4.6921
X5.6213Y-4.9921
X5.7213Y-4.6921
X5.7213Y-4.9921
X5.7331Y-6.9631
X5.7803Y-5.7992
X5.7803Y-5.8992
X5.7803Y-5.9992
X5.7803Y-6.0992
X5.7803Y-6.1992
X5.7803Y-6.2992
X5.7803Y-6.3992
X5.7803Y-6.4992
X6.4035Y-4.7213
X6.4035Y-5.3213
T5
X3.4774Y-3.1382
X3.4774Y-3.2382
X3.4774Y-3.3575
X3.4774Y-3.4575
X3.4774Y-3.5769
X3.4774Y-3.6769
X3.4774Y-3.7962
X3.4774Y-3.8962
X3.4774Y-4.0156
X3.4774Y-4.1156
X3.4774Y-4.2349
X3.4774Y-4.3349
X3.4774Y-4.4543
X3.4774Y-4.5543
X3.4774Y-4.6736
X3.4774Y-4.7736
X3.4774Y-5.2248
X3.4774Y-5.3248
X3.4774Y-5.4329
X3.4774Y-5.5329
X3.4774Y-5.641
X3.4774Y-5.741
X3.4774Y-5.8491
X3.4774Y-5.9491
X3.4774Y-6.0572
X3.4774Y-6.1572
X3.4774Y-6.2653
X3.4774Y-6.3653
X3.4774Y-6.4734
X3.4774Y-6.5734
X3.4774Y-6.6815
X3.4774Y-6.7815
X6.0561Y-1.0516
X6.0561Y-1.1516
X6.0561Y-1.4256
X6.0561Y-1.5256
X6.0561Y-1.7996
X6.0561Y-1.8996
X6.0561Y-2.1736
X6.0561Y-2.2736
X6.0561Y-2.5476
X6.0561Y-2.6476
T6
X5.8051Y-4.2766
X5.9051Y-4.2766
X6.0051Y-4.2766
T7
X5.5234Y-5.6206
X5.6219Y-5.2269
X5.7203Y-5.6206
T8
X6.2894Y-3.1532
X6.2894Y-3.306
X6.2894Y-3.5273
X6.2894Y-3.68
M30
